{
.appVersion = "1352";
copyright = "Copyright 2022 The Noto Project Authors";
customParameters = (
{
name = "Enforce Compatibility Check";
value = 1;
},
{
name = Axes;
value = (
{
Name = Weight;
Tag = wght;
},
{
Name = Width;
Tag = wdth;
}
);
},
{
name = fsType;
value = (
);
},
{
name = unicodeRanges;
value = (
24
);
},
{
name = codePageRanges;
value = (
874
);
},
{
name = license;
value = "This Font Software is licensed under the SIL Open Font License, Version 1.1. This Font Software is distributed on an \"AS IS\" BASIS, WITHOUT WARRANTIES OR CONDITIONS OF ANY KIND, either express or implied. See the SIL Open Font License for the specific language, permissions and limitations governing your use of this Font Software.";
},
{
name = licenseURL;
value = "http://scripts.sil.org/OFL";
},
{
name = vendorID;
value = GOOG;
},
{
name = trademark;
value = "Noto is a trademark of Google LLC.";
},
{
name = versionString;
value = "Version 1.000";
},
{
name = sampleText;
value = "กขคงจฉบพอ";
},
{
name = "Family Alignment Zones";
value = (
"{550, 8}",
"{0, -8}"
);
},
{
name = "Get Hints From Master";
value = "9148514D-BEB8-4275-B264-8F51401A425F";
},
{
name = "Use Typo Metrics";
value = 1;
},
{
name = blueScale;
value = 0.05;
},
{
name = blueShift;
value = 7;
},
{
name = blueFuzz;
value = 1;
},
{
name = description;
value = "Design by Cadson Demak Co.,Ltd.";
}
);
date = "2022-10-15 17:17:10 +0000";
designer = "Cadson Demak Team";
designerURL = "https://www.cadsondemak.com/";
familyName = "Noto Sans Thai Looped";
featurePrefixes = (
{
automatic = 1;
code = "languagesystem DFLT dflt;\012\012languagesystem thai dflt;\012languagesystem thai MLY;\012languagesystem thai MFA;\012languagesystem thai PAL;\012languagesystem thai SAN;\012";
name = Languagesystems;
}
);
features = (
{
automatic = 1;
code = "feature calt;\012feature locl;\012";
name = aalt;
},
{

glyphs = (
{
glyphname = "koKai-thai";
lastChange = "2022-09-01 04:16:00 +0000";
layers = (
{
anchors = (
{
name = bottom;
position = "{599, 0}";
},
{
name = top;
position = "{589, 563}";
}
);
layerId = "EB3A5D6C-8260-43A6-9EF2-63971FC08D48";
paths = (
{
closed = 1;
nodes = (
"251 0 LINE",
"251 177 LINE SMOOTH",
"251 226 OFFCURVE",
"269 247 OFFCURVE",
"319 256 CURVE",
"329 334 LINE",
"146 415 LINE",
"219 334 LINE",
"219 358 LINE SMOOTH",
"219 409 OFFCURVE",
"254 438 OFFCURVE",
"315 438 CURVE SMOOTH",
"381 438 OFFCURVE",
"413 403 OFFCURVE",
"413 329 CURVE SMOOTH",
"413 0 LINE",
"599 0 LINE",
"599 334 LINE SMOOTH",
"599 501 OFFCURVE",
"511 578 OFFCURVE",
"319 578 CURVE SMOOTH",
"150 578 OFFCURVE",
"43 493 OFFCURVE",
"43 360 CURVE SMOOTH",
"43 344 LINE",
"165 300 LINE",
"165 296 LINE",
"96 271 OFFCURVE",
"65 231 OFFCURVE",
"65 169 CURVE SMOOTH",
"65 0 LINE"
);
}
);
userData = {
com.schriftgestaltung.Glyphs.glyph.rightMetricsKey = "khoKhwai-thai";
};
width = 671;
},
{
anchors = (
{
name = bottom;
position = "{483, 0}";
},
{
name = top;
position = "{473, 550}";
}
);
layerId = "90A34054-68E4-499D-AE50-276C7B026D8B";
paths = (
{
closed = 1;
nodes = (
"122 0 LINE",
"122 204 LINE SMOOTH",
"122 278 OFFCURVE",
"148 308 OFFCURVE",
"228 325 CURVE",
"231 346 LINE",
"83 392 LINE",
"94 377 LINE",
"94 384 LINE SMOOTH",
"94 477 OFFCURVE",
"167 535 OFFCURVE",
"283 535 CURVE SMOOTH",
"400 535 OFFCURVE",
"458 482 OFFCURVE",
"458 377 CURVE SMOOTH",
"458 0 LINE",
"483 0 LINE",
"483 382 LINE SMOOTH",
"483 496 OFFCURVE",
"412 558 OFFCURVE",
"283 558 CURVE SMOOTH",
"153 558 OFFCURVE",
"69 490 OFFCURVE",
"69 384 CURVE SMOOTH",
"69 373 LINE",
"196 338 LINE",
"196 335 LINE",
"125 315 OFFCURVE",
"97 278 OFFCURVE",
"97 204 CURVE SMOOTH",
"97 0 LINE"
);
}
);
width = 578;
},
{
anchors = (
{
name = bottom;
position = "{530, 0}";
},
{
name = top;
position = "{520, 555}";
}
);
hints = (
{
horizontal = 1;
origin = "{0, 30}";
target = up;
type = BottomGhost;
},
{
horizontal = 1;
origin = "{0, 20}";
target = "{0, 11}";
type = Stem;
},
{
origin = "{0, 30}";
target = "{0, 0}";
type = Stem;
},
{
origin = "{0, 15}";
target = "{0, 16}";
type = Stem;
}
);
layerId = "9148514D-BEB8-4275-B264-8F51401A425F";
paths = (
{
closed = 1;
nodes = (
"174 0 LINE",
"174 193 LINE SMOOTH",
"174 257 OFFCURVE",
"197 283 OFFCURVE",
"265 297 CURVE",
"271 351 LINE",
"104 411 LINE",
"140 360 LINE",
"140 374 LINE SMOOTH",
"140 451 OFFCURVE",
"199 498 OFFCURVE",
"294 498 CURVE SMOOTH",
"392 498 OFFCURVE",
"440 452 OFFCURVE",
"440 358 CURVE SMOOTH",
"440 0 LINE",
"530 0 LINE",
"530 358 LINE SMOOTH",
"530 497 OFFCURVE",
"452 566 OFFCURVE",
"296 566 CURVE SMOOTH",
"149 566 OFFCURVE",
"55 491 OFFCURVE",
"55 374 CURVE SMOOTH",
"55 361 LINE",
"183 323 LINE",
"183 319 LINE",
"114 297 OFFCURVE",
"84 259 OFFCURVE",
"84 190 CURVE SMOOTH",
"84 0 LINE"
);
}
);
width = 616;
},
{
anchors = (
{
name = bottom;
position = "{315, 0}";
},
{
name = top;
position = "{309, 550}";
}
);
layerId = "54E3FB14-E6D2-4DF3-BA4A-5621168F9335";
paths = (
{
closed = 1;
nodes = (
"85 0 LINE",
"85 204 LINE SMOOTH",
"85 277 OFFCURVE",
"102 308 OFFCURVE",
"151 325 CURVE",
"153 346 LINE",
"56 392 LINE",
"66 377 LINE",
"66 384 LINE SMOOTH",
"66 480 OFFCURVE",
"107 535 OFFCURVE",
"180 535 CURVE SMOOTH",
"251 535 OFFCURVE",
"290 483 OFFCURVE",
"290 387 CURVE SMOOTH",
"290 0 LINE",
"315 0 LINE",
"315 391 LINE SMOOTH",
"315 498 OFFCURVE",
"266 558 OFFCURVE",
"180 558 CURVE SMOOTH",
"92 558 OFFCURVE",
"42 495 OFFCURVE",
"42 384 CURVE SMOOTH",
"42 373 LINE",
"123 338 LINE",
"123 335 LINE",
"78 315 OFFCURVE",
"60 277 OFFCURVE",
"60 204 CURVE SMOOTH",
"60 0 LINE"
);
}
);
width = 375;
},
{
anchors = (
{
name = bottom;
position = "{461, 0}";
},
{
name = top;
position = "{455, 563}";
}
);
layerId = "E703E12A-5DA7-48FA-B69F-BB282FBD8E56";
paths = (
{
closed = 1;
nodes = (
"201 0 LINE",
"201 177 LINE SMOOTH",
"201 225 OFFCURVE",
"214 247 OFFCURVE",
"248 256 CURVE",
"257 334 LINE",
"117 415 LINE",
"178 334 LINE",
"178 358 LINE SMOOTH",
"178 410 OFFCURVE",
"200 438 OFFCURVE",
"240 438 CURVE SMOOTH",
"284 438 OFFCURVE",
"305 402 OFFCURVE",
"305 329 CURVE SMOOTH",
"305 0 LINE",
"461 0 LINE",
"461 334 LINE SMOOTH",
"461 502 OFFCURVE",
"393 578 OFFCURVE",
"243 578 CURVE SMOOTH",
"113 578 OFFCURVE",
"30 493 OFFCURVE",
"30 360 CURVE SMOOTH",
"30 344 LINE",
"120 300 LINE",
"120 296 LINE",
"69 271 OFFCURVE",
"45 230 OFFCURVE",
"45 169 CURVE SMOOTH",
"45 0 LINE"
);
}
);
userData = {
com.schriftgestaltung.Glyphs.glyph.rightMetricsKey = "khoKhwai-thai";
};
width = 507;
},
{
anchors = (
{
name = bottom;
position = "{373, 0}";
},
{
name = top;
position = "{367, 555}";
}
);
layerId = "94F80E8F-7C96-497F-B870-569C37B7A2A5";
paths = (
{
closed = 1;
nodes = (
"131 0 LINE",
"131 193 LINE SMOOTH",
"131 256 OFFCURVE",
"146 283 OFFCURVE",
"189 298 CURVE",
"194 341 LINE",
"80 401 LINE",
"110 360 LINE",
"110 374 LINE SMOOTH",
"110 453 OFFCURVE",
"144 499 OFFCURVE",
"204 499 CURVE SMOOTH",
"263 499 OFFCURVE",
"296 451 OFFCURVE",
"296 364 CURVE SMOOTH",
"296 0 LINE",
"373 0 LINE",
"373 369 LINE SMOOTH",
"373 499 OFFCURVE",
"316 566 OFFCURVE",
"205 566 CURVE SMOOTH",
"100 566 OFFCURVE",
"37 494 OFFCURVE",
"37 375 CURVE SMOOTH",
"37 362 LINE",
"122 323 LINE",
"122 320 LINE",
"75 297 OFFCURVE",
"54 257 OFFCURVE",
"54 190 CURVE SMOOTH",
"54 0 LINE"
);
}
);
width = 429;
}
);
note = "\012uni0E01\012";
rightKerningGroup = "koKai-thai";
unicode = 0E01;
},
{
glyphname = "khoKhai-thai";
lastChange = "2022-09-01 04:16:00 +0000";
layers = (
{
anchors = (
{
name = bottom;
position = "{414, 0}";
},
{
name = top;
position = "{414, 550}";
}
);
layerId = "90A34054-68E4-499D-AE50-276C7B026D8B";
paths = (
{
closed = 1;
nodes = (
"333 0 LINE SMOOTH",
"389 0 OFFCURVE",
"414 26 OFFCURVE",
"414 81 CURVE SMOOTH",
"414 550 LINE",
"389 550 LINE",
"389 85 LINE SMOOTH",
"389 41 OFFCURVE",
"371 23 OFFCURVE",
"328 23 CURVE SMOOTH",
"144 23 LINE",
"144 212 LINE SMOOTH",
"144 266 OFFCURVE",
"152 298 OFFCURVE",
"173 331 CURVE SMOOTH",
"209 387 OFFCURVE",
"220 419 OFFCURVE",
"220 465 CURVE SMOOTH",
"220 520 OFFCURVE",
"188 554 OFFCURVE",
"137 554 CURVE SMOOTH",
"87 554 OFFCURVE",
"54 522 OFFCURVE",
"54 474 CURVE SMOOTH",
"54 427 OFFCURVE",
"86 395 OFFCURVE",
"135 395 CURVE SMOOTH",
"179 395 OFFCURVE",
"206 425 OFFCURVE",
"206 474 CURVE",
"197 442 LINE",
"199 421 OFFCURVE",
"186 391 OFFCURVE",
"155 346 CURVE SMOOTH",
"127 305 OFFCURVE",
"119 275 OFFCURVE",
"119 212 CURVE SMOOTH",
"119 23 LINE",
"67 18 LINE",
"67 0 LINE"
);
},
{
closed = 1;
nodes = (
"101 416 OFFCURVE",
"78 439 OFFCURVE",
"78 474 CURVE SMOOTH",
"78 509 OFFCURVE",
"101 532 OFFCURVE",
"136 532 CURVE SMOOTH",
"171 532 OFFCURVE",
"194 509 OFFCURVE",
"194 474 CURVE SMOOTH",
"194 439 OFFCURVE",
"171 416 OFFCURVE",
"136 416 CURVE SMOOTH"
);
}
);
width = 514;
},
{
anchors = (
{
name = bottom;
position = "{544, 0}";
},
{
name = top;
position = "{544, 563}";
}
);
layerId = "EB3A5D6C-8260-43A6-9EF2-63971FC08D48";
paths = (
{
closed = 1;
nodes = (
"414 0 LINE SMOOTH",
"498 0 OFFCURVE",
"544 46 OFFCURVE",
"544 130 CURVE SMOOTH",
"544 563 LINE",
"362 563 LINE",
"362 165 LINE SMOOTH",
"362 146 OFFCURVE",
"351 135 OFFCURVE",
"332 135 CURVE SMOOTH",
"270 135 LINE",
"270 242 LINE SMOOTH",
"270 301 OFFCURVE",
"278 331 OFFCURVE",
"288 363 CURVE SMOOTH",
"299 398 OFFCURVE",
"303 423 OFFCURVE",
"303 451 CURVE SMOOTH",
"303 526 OFFCURVE",
"250 571 OFFCURVE",
"163 571 CURVE SMOOTH",
"74 571 OFFCURVE",
"19 527 OFFCURVE",
"19 455 CURVE SMOOTH",
"19 389 OFFCURVE",
"63 348 OFFCURVE",
"134 348 CURVE SMOOTH",
"186 348 OFFCURVE",
"223 381 OFFCURVE",
"223 426 CURVE",
"172 399 LINE",
"188 381 OFFCURVE",
"184 363 OFFCURVE",
"159 346 CURVE SMOOTH",
"106 311 OFFCURVE",
"88 287 OFFCURVE",
"88 225 CURVE SMOOTH",
"88 128 LINE",
"48 103 LINE",
"48 0 LINE"
);
},
{
closed = 1;
nodes = (
"124 415 OFFCURVE",
"108 429 OFFCURVE",
"108 454 CURVE SMOOTH",
"108 479 OFFCURVE",
"124 493 OFFCURVE",
"150 493 CURVE SMOOTH",
"176 493 OFFCURVE",
"192 479 OFFCURVE",
"192 454 CURVE SMOOTH",
"192 429 OFFCURVE",
"176 415 OFFCURVE",
"150 415 CURVE SMOOTH"
);
}
);
userData = {
com.schriftgestaltung.Glyphs.glyph.rightMetricsKey = "boBaimai-thai";
};
width = 618;
},
{
anchors = (
{
name = bottom;
position = "{466, 0}";
},
{
name = top;
position = "{466, 555}";
}
);
hints = (
{
origin = "{0, 37}";
target = "{0, 10}";
type = Stem;
},
{
origin = "{0, 6}";
target = "{0, 3}";
type = Stem;
},
{
horizontal = 1;
origin = "{0, 39}";
target = "{0, 10}";
type = Stem;
},
{
horizontal = 1;
origin = "{0, 20}";
target = "{1, 5}";
type = Stem;
},
{
horizontal = 1;
origin = "{0, 5}";
target = down;
type = TopGhost;
}
);
layerId = "9148514D-BEB8-4275-B264-8F51401A425F";
paths = (
{
closed = 1;
nodes = (
"366 0 LINE SMOOTH",
"433 0 OFFCURVE",
"466 34 OFFCURVE",
"466 101 CURVE SMOOTH",
"466 555 LINE",
"376 555 LINE",
"376 117 LINE SMOOTH",
"376 82 OFFCURVE",
"362 68 OFFCURVE",
"330 68 CURVE SMOOTH",
"196 68 LINE",
"196 224 LINE SMOOTH",
"196 280 OFFCURVE",
"203 313 OFFCURVE",
"227 361 CURVE SMOOTH",
"247 401 OFFCURVE",
"254 427 OFFCURVE",
"254 456 CURVE SMOOTH",
"254 524 OFFCURVE",
"215 561 OFFCURVE",
"145 561 CURVE SMOOTH",
"80 561 OFFCURVE",
"40 524 OFFCURVE",
"40 466 CURVE SMOOTH",
"40 411 OFFCURVE",
"77 376 OFFCURVE",
"135 376 CURVE SMOOTH",
"183 376 OFFCURVE",
"212 408 OFFCURVE",
"212 455 CURVE",
"187 425 LINE",
"187 408 OFFCURVE",
"174 382 OFFCURVE",
"147 346 CURVE SMOOTH",
"113 300 OFFCURVE",
"106 281 OFFCURVE",
"106 237 CURVE SMOOTH",
"106 65 LINE",
"59 52 LINE",
"59 0 LINE"
);
},
{
closed = 1;
nodes = (
"114 422 OFFCURVE",
"98 438 OFFCURVE",
"98 465 CURVE SMOOTH",
"98 492 OFFCURVE",
"114 508 OFFCURVE",
"142 508 CURVE SMOOTH",
"170 508 OFFCURVE",
"186 492 OFFCURVE",
"186 465 CURVE SMOOTH",
"186 438 OFFCURVE",
"170 422 OFFCURVE",
"142 422 CURVE SMOOTH"
);
}
);
width = 555;
},
{
anchors = (
{
name = bottom;
position = "{273, 0}";
},
{
name = top;
position = "{273, 550}";
}
);
layerId = "54E3FB14-E6D2-4DF3-BA4A-5621168F9335";
paths = (
{
closed = 1;
nodes = (
"209 0 LINE SMOOTH",
"254 0 OFFCURVE",
"273 22 OFFCURVE",
"273 72 CURVE SMOOTH",
"273 550 LINE",
"248 550 LINE",
"248 75 LINE SMOOTH",
"248 35 OFFCURVE",
"238 23 OFFCURVE",
"205 23 CURVE SMOOTH",
"100 23 LINE",
"100 212 LINE SMOOTH",
"100 269 OFFCURVE",
"104 297 OFFCURVE",
"118 331 CURVE SMOOTH",
"139 384 OFFCURVE",
"146 416 OFFCURVE",
"146 465 CURVE SMOOTH",
"146 524 OFFCURVE",
"127 554 OFFCURVE",
"89 554 CURVE SMOOTH",
"53 554 OFFCURVE",
"33 525 OFFCURVE",
"33 474 CURVE SMOOTH",
"33 424 OFFCURVE",
"53 395 OFFCURVE",
"87 395 CURVE SMOOTH",
"115 395 OFFCURVE",
"133 425 OFFCURVE",
"133 474 CURVE",
"129 474 LINE",
"131 434 OFFCURVE",
"123 400 OFFCURVE",
"99 346 CURVE SMOOTH",
"80 303 OFFCURVE",
"75 274 OFFCURVE",
"75 212 CURVE SMOOTH",
"75 23 LINE",
"42 18 LINE",
"42 0 LINE"
);
},
{
closed = 1;
nodes = (
"67 416 OFFCURVE",
"56 437 OFFCURVE",
"56 474 CURVE SMOOTH",
"56 511 OFFCURVE",
"67 532 OFFCURVE",
"87 532 CURVE SMOOTH",
"107 532 OFFCURVE",
"118 511 OFFCURVE",
"118 474 CURVE SMOOTH",
"118 437 OFFCURVE",
"107 416 OFFCURVE",
"87 416 CURVE SMOOTH"
);
}
);
width = 335;
},
{
anchors = (
{
name = bottom;
position = "{422, 0}";
},
{
name = top;
position = "{422, 563}";
}
);
layerId = "E703E12A-5DA7-48FA-B69F-BB282FBD8E56";
paths = (
{
closed = 1;
nodes = (
"309 0 LINE SMOOTH",
"384 0 OFFCURVE",
"422 44 OFFCURVE",
"422 130 CURVE SMOOTH",
"422 563 LINE",
"269 563 LINE",
"269 165 LINE SMOOTH",
"269 145 OFFCURVE",
"260 135 OFFCURVE",
"240 135 CURVE SMOOTH",
"216 135 LINE",
"216 242 LINE SMOOTH",
"216 306 OFFCURVE",
"220 329 OFFCURVE",
"227 363 CURVE SMOOTH",
"234 398 OFFCURVE",
"236 427 OFFCURVE",
"236 451 CURVE SMOOTH",
"236 525 OFFCURVE",
"194 571 OFFCURVE",
"126 571 CURVE SMOOTH",
"55 571 OFFCURVE",
"11 527 OFFCURVE",
"11 455 CURVE SMOOTH",
"11 389 OFFCURVE",
"45 348 OFFCURVE",
"101 348 CURVE SMOOTH",
"141 348 OFFCURVE",
"167 379 OFFCURVE",
"167 426 CURVE",
"127 399 LINE",
"142 379 OFFCURVE",
"140 362 OFFCURVE",
"121 346 CURVE SMOOTH",
"79 311 OFFCURVE",
"63 287 OFFCURVE",
"63 225 CURVE SMOOTH",
"63 128 LINE",
"34 103 LINE",
"34 0 LINE"
);
},
{
closed = 1;
nodes = (
"95 415 OFFCURVE",
"83 430 OFFCURVE",
"83 454 CURVE SMOOTH",
"83 478 OFFCURVE",
"95 493 OFFCURVE",
"114 493 CURVE SMOOTH",
"133 493 OFFCURVE",
"145 478 OFFCURVE",
"145 454 CURVE SMOOTH",
"145 430 OFFCURVE",
"133 415 OFFCURVE",
"114 415 CURVE SMOOTH"
);
}
);
userData = {
com.schriftgestaltung.Glyphs.glyph.rightMetricsKey = "boBaimai-thai";
};
width = 470;
},
{
anchors = (
{
name = bottom;
position = "{332, 0}";
},
{
name = top;
position = "{332, 555}";
}
);
layerId = "94F80E8F-7C96-497F-B870-569C37B7A2A5";
paths = (
{
closed = 1;
nodes = (
"252 0 LINE SMOOTH",
"306 0 OFFCURVE",
"332 31 OFFCURVE",
"332 95 CURVE SMOOTH",
"332 555 LINE",
"255 555 LINE",
"255 108 LINE SMOOTH",
"255 77 OFFCURVE",
"246 65 OFFCURVE",
"222 65 CURVE SMOOTH",
"147 65 LINE",
"147 225 LINE SMOOTH",
"147 281 OFFCURVE",
"151 310 OFFCURVE",
"162 345 CURVE SMOOTH",
"176 389 OFFCURVE",
"181 417 OFFCURVE",
"181 460 CURVE SMOOTH",
"181 524 OFFCURVE",
"153 562 OFFCURVE",
"104 562 CURVE SMOOTH",
"54 562 OFFCURVE",
"24 527 OFFCURVE",
"24 468 CURVE SMOOTH",
"24 411 OFFCURVE",
"50 377 OFFCURVE",
"93 377 CURVE SMOOTH",
"126 377 OFFCURVE",
"147 408 OFFCURVE",
"147 456 CURVE",
"137 456 LINE",
"138 414 OFFCURVE",
"132 396 OFFCURVE",
"102 347 CURVE SMOOTH",
"76 304 OFFCURVE",
"70 281 OFFCURVE",
"70 218 CURVE SMOOTH",
"70 64 LINE",
"40 51 LINE",
"40 0 LINE"
);
},
{
closed = 1;
nodes = (
"79 418 OFFCURVE",
"69 436 OFFCURVE",
"69 468 CURVE SMOOTH",
"69 500 OFFCURVE",
"79 518 OFFCURVE",
"97 518 CURVE SMOOTH",
"115 518 OFFCURVE",
"125 500 OFFCURVE",
"125 468 CURVE SMOOTH",
"125 436 OFFCURVE",
"115 418 OFFCURVE",
"97 418 CURVE SMOOTH"
);
}
);
width = 388;
}
);
leftKerningGroup = "khoKhai-thai";
note = "\012uni0E02\012";
rightMetricsKey = "boBaimai-thai";
unicode = 0E02;
},
{
glyphname = "khoKhuat-thai";
lastChange = "2022-09-01 04:16:00 +0000";
layers = (
{
anchors = (
{
name = bottom;
position = "{569, 0}";
},
{
name = top;
position = "{569, 563}";
}
);
layerId = "EB3A5D6C-8260-43A6-9EF2-63971FC08D48";
paths = (
{
closed = 1;
nodes = (
"439 0 LINE SMOOTH",
"523 0 OFFCURVE",
"569 46 OFFCURVE",
"569 130 CURVE SMOOTH",
"569 563 LINE",
"387 563 LINE",
"387 165 LINE SMOOTH",
"387 146 OFFCURVE",
"376 135 OFFCURVE",
"357 135 CURVE SMOOTH",
"279 135 LINE",
"279 218 LINE SMOOTH",
"279 255 OFFCURVE",
"284 282 OFFCURVE",
"297 312 CURVE SMOOTH",
"322 370 OFFCURVE",
"332 414 OFFCURVE",
"332 470 CURVE SMOOTH",
"332 563 LINE",
"248 563 LINE",
"242 511 OFFCURVE",
"229 470 OFFCURVE",
"212 443 CURVE",
"214 427 LINE",
"225 440 OFFCURVE",
"232 458 OFFCURVE",
"232 475 CURVE SMOOTH",
"232 533 OFFCURVE",
"187 573 OFFCURVE",
"122 573 CURVE SMOOTH",
"49 573 OFFCURVE",
"4 532 OFFCURVE",
"4 465 CURVE SMOOTH",
"4 400 OFFCURVE",
"52 357 OFFCURVE",
"123 357 CURVE SMOOTH",
"152 357 OFFCURVE",
"182 370 OFFCURVE",
"202 391 CURVE",
"205 389 LINE",
"198 377 OFFCURVE",
"188 369 OFFCURVE",
"160 347 CURVE SMOOTH",
"115 312 OFFCURVE",
"97 273 OFFCURVE",
"97 211 CURVE SMOOTH",
"97 128 LINE",
"47 103 LINE",
"47 0 LINE"
);
},
{
closed = 1;
nodes = (
"98 426 OFFCURVE",
"82 440 OFFCURVE",
"82 465 CURVE SMOOTH",
"82 490 OFFCURVE",
"98 504 OFFCURVE",
"124 504 CURVE SMOOTH",
"150 504 OFFCURVE",
"166 490 OFFCURVE",
"166 465 CURVE SMOOTH",
"166 440 OFFCURVE",
"150 426 OFFCURVE",
"124 426 CURVE SMOOTH"
);
}
);
userData = {
com.schriftgestaltung.Glyphs.glyph.leftMetricsKey = "soSo-thai";
com.schriftgestaltung.Glyphs.glyph.rightMetricsKey = "boBaimai-thai";
};
width = 643;
},
{
anchors = (
{
name = bottom;
position = "{427, 0}";
},
{
name = top;
position = "{427, 550}";
}
);
layerId = "90A34054-68E4-499D-AE50-276C7B026D8B";
paths = (
{
closed = 1;
nodes = (
"346 0 LINE SMOOTH",
"401 0 OFFCURVE",
"427 26 OFFCURVE",
"427 82 CURVE SMOOTH",
"427 550 LINE",
"402 550 LINE",
"402 85 LINE SMOOTH",
"402 41 OFFCURVE",
"384 23 OFFCURVE",
"341 23 CURVE SMOOTH",
"157 23 LINE",
"157 202 LINE SMOOTH",
"157 272 OFFCURVE",
"164 289 OFFCURVE",
"215 349 CURVE SMOOTH",
"255 396 OFFCURVE",
"267 435 OFFCURVE",
"267 514 CURVE SMOOTH",
"267 550 LINE",
"248 550 LINE",
"238 492 OFFCURVE",
"192 430 OFFCURVE",
"157 427 CURVE",
"157 417 LINE",
"176 431 OFFCURVE",
"188 454 OFFCURVE",
"188 478 CURVE SMOOTH",
"188 523 OFFCURVE",
"155 554 OFFCURVE",
"108 554 CURVE SMOOTH",
"59 554 OFFCURVE",
"27 522 OFFCURVE",
"27 474 CURVE SMOOTH",
"27 427 OFFCURVE",
"61 396 OFFCURVE",
"114 396 CURVE SMOOTH",
"172 396 OFFCURVE",
"226 436 OFFCURVE",
"246 493 CURVE",
"248 493 LINE",
"244 431 OFFCURVE",
"235 408 OFFCURVE",
"198 364 CURVE SMOOTH",
"141 297 OFFCURVE",
"132 275 OFFCURVE",
"132 202 CURVE SMOOTH",
"132 23 LINE",
"80 18 LINE",
"80 0 LINE"
);
},
{
closed = 1;
nodes = (
"73 416 OFFCURVE",
"51 439 OFFCURVE",
"51 474 CURVE SMOOTH",
"51 509 OFFCURVE",
"73 532 OFFCURVE",
"108 532 CURVE SMOOTH",
"143 532 OFFCURVE",
"165 509 OFFCURVE",
"165 474 CURVE SMOOTH",
"165 439 OFFCURVE",
"143 416 OFFCURVE",
"108 416 CURVE SMOOTH"
);
}
);
width = 527;
},
{
anchors = (
{
name = bottom;
position = "{484, 0}";
},
{
name = top;
position = "{484, 555}";
}
);
hints = (
{
horizontal = 1;
origin = "{0, 29}";
target = "{1, 5}";
type = Stem;
},
{
horizontal = 1;
origin = "{0, 5}";
target = down;
type = TopGhost;
},
{
horizontal = 1;
origin = "{0, 48}";
target = "{0, 10}";
type = Stem;
},
{
origin = "{0, 46}";
target = "{0, 10}";
type = Stem;
},
{
origin = "{0, 6}";
target = "{0, 3}";
type = Stem;
}
);
layerId = "9148514D-BEB8-4275-B264-8F51401A425F";
paths = (
{
closed = 1;
nodes = (
"384 0 LINE SMOOTH",
"450 0 OFFCURVE",
"484 34 OFFCURVE",
"484 101 CURVE SMOOTH",
"484 555 LINE",
"394 555 LINE",
"394 117 LINE SMOOTH",
"394 82 OFFCURVE",
"380 68 OFFCURVE",
"347 68 CURVE SMOOTH",
"206 68 LINE",
"206 217 LINE SMOOTH",
"206 259 OFFCURVE",
"215 282 OFFCURVE",
"254 337 CURVE SMOOTH",
"283 378 OFFCURVE",
"293 419 OFFCURVE",
"293 496 CURVE SMOOTH",
"293 555 LINE",
"244 555 LINE",
"237 509 OFFCURVE",
"207 456 OFFCURVE",
"175 433 CURVE",
"180 421 LINE",
"196 434 OFFCURVE",
"206 455 OFFCURVE",
"206 477 CURVE SMOOTH",
"206 527 OFFCURVE",
"168 562 OFFCURVE",
"114 562 CURVE SMOOTH",
"55 562 OFFCURVE",
"18 526 OFFCURVE",
"18 470 CURVE SMOOTH",
"18 415 OFFCURVE",
"57 380 OFFCURVE",
"118 380 CURVE SMOOTH",
"163 380 OFFCURVE",
"207 409 OFFCURVE",
"228 452 CURVE",
"231 451 LINE",
"225 413 OFFCURVE",
"217 397 OFFCURVE",
"183 357 CURVE SMOOTH",
"130 294 OFFCURVE",
"118 267 OFFCURVE",
"118 217 CURVE SMOOTH",
"118 65 LINE",
"67 52 LINE",
"67 0 LINE"
);
},
{
closed = 1;
nodes = (
"86 427 OFFCURVE",
"70 443 OFFCURVE",
"70 470 CURVE SMOOTH",
"70 497 OFFCURVE",
"86 513 OFFCURVE",
"114 513 CURVE SMOOTH",
"142 513 OFFCURVE",
"158 497 OFFCURVE",
"158 470 CURVE SMOOTH",
"158 443 OFFCURVE",
"142 427 OFFCURVE",
"114 427 CURVE SMOOTH"
);
}
);
width = 573;
},
{
anchors = (
{
name = bottom;
position = "{281, 0}";
},
{
name = top;
position = "{281, 550}";
}
);
layerId = "54E3FB14-E6D2-4DF3-BA4A-5621168F9335";
paths = (
{
closed = 1;
nodes = (
"217 0 LINE SMOOTH",
"262 0 OFFCURVE",
"281 22 OFFCURVE",
"281 72 CURVE SMOOTH",
"281 550 LINE",
"256 550 LINE",
"256 75 LINE SMOOTH",
"256 35 OFFCURVE",
"246 23 OFFCURVE",
"213 23 CURVE SMOOTH",
"107 23 LINE",
"107 202 LINE SMOOTH",
"107 265 OFFCURVE",
"114 294 OFFCURVE",
"143 351 CURVE SMOOTH",
"170 404 OFFCURVE",
"174 425 OFFCURVE",
"174 498 CURVE SMOOTH",
"174 550 LINE",
"156 550 LINE",
"150 496 OFFCURVE",
"126 441 OFFCURVE",
"103 427 CURVE",
"104 417 LINE",
"116 432 OFFCURVE",
"122 453 OFFCURVE",
"122 478 CURVE SMOOTH",
"122 527 OFFCURVE",
"104 554 OFFCURVE",
"70 554 CURVE SMOOTH",
"36 554 OFFCURVE",
"16 525 OFFCURVE",
"16 474 CURVE SMOOTH",
"16 424 OFFCURVE",
"37 396 OFFCURVE",
"73 396 CURVE SMOOTH",
"107 396 OFFCURVE",
"141 432 OFFCURVE",
"155 483 CURVE",
"156 483 LINE",
"153 428 OFFCURVE",
"148 409 OFFCURVE",
"124 363 CURVE SMOOTH",
"91 299 OFFCURVE",
"83 268 OFFCURVE",
"83 202 CURVE SMOOTH",
"83 23 LINE",
"49 18 LINE",
"49 0 LINE"
);
},
{
closed = 1;
nodes = (
"50 416 OFFCURVE",
"39 437 OFFCURVE",
"39 474 CURVE SMOOTH",
"39 511 OFFCURVE",
"50 532 OFFCURVE",
"70 532 CURVE SMOOTH",
"90 532 OFFCURVE",
"101 511 OFFCURVE",
"101 474 CURVE SMOOTH",
"101 437 OFFCURVE",
"90 416 OFFCURVE",
"70 416 CURVE SMOOTH"
);
}
);
width = 343;
},
{
anchors = (
{
name = bottom;
position = "{443, 0}";
},
{
name = top;
position = "{443, 563}";
}
);
layerId = "E703E12A-5DA7-48FA-B69F-BB282FBD8E56";
paths = (
{
closed = 1;
nodes = (
"340 0 LINE SMOOTH",
"406 0 OFFCURVE",
"443 46 OFFCURVE",
"443 130 CURVE SMOOTH",
"443 563 LINE",
"290 563 LINE",
"290 165 LINE SMOOTH",
"290 145 OFFCURVE",
"281 135 OFFCURVE",
"261 135 CURVE SMOOTH",
"223 135 LINE",
"223 218 LINE SMOOTH",
"223 258 OFFCURVE",
"225 285 OFFCURVE",
"232 312 CURVE SMOOTH",
"253 391 OFFCURVE",
"257 419 OFFCURVE",
"257 470 CURVE SMOOTH",
"257 563 LINE",
"188 563 LINE",
"183 502 OFFCURVE",
"176 466 OFFCURVE",
"167 443 CURVE",
"168 427 LINE",
"176 441 OFFCURVE",
"180 458 OFFCURVE",
"180 475 CURVE SMOOTH",
"180 533 OFFCURVE",
"144 573 OFFCURVE",
"92 573 CURVE SMOOTH",
"37 573 OFFCURVE",
"2 531 OFFCURVE",
"2 466 CURVE SMOOTH",
"2 402 OFFCURVE",
"37 357 OFFCURVE",
"87 357 CURVE SMOOTH",
"111 357 OFFCURVE",
"132 369 OFFCURVE",
"148 391 CURVE",
"151 389 LINE",
"145 378 OFFCURVE",
"140 371 OFFCURVE",
"117 347 CURVE SMOOTH",
"84 312 OFFCURVE",
"71 273 OFFCURVE",
"71 211 CURVE SMOOTH",
"71 128 LINE",
"33 103 LINE",
"33 0 LINE"
);
},
{
closed = 1;
nodes = (
"77 426 OFFCURVE",
"65 441 OFFCURVE",
"65 465 CURVE SMOOTH",
"65 489 OFFCURVE",
"77 504 OFFCURVE",
"96 504 CURVE SMOOTH",
"115 504 OFFCURVE",
"127 489 OFFCURVE",
"127 465 CURVE SMOOTH",
"127 441 OFFCURVE",
"115 426 OFFCURVE",
"96 426 CURVE SMOOTH"
);
}
);
userData = {
com.schriftgestaltung.Glyphs.glyph.leftMetricsKey = "soSo-thai";
com.schriftgestaltung.Glyphs.glyph.rightMetricsKey = "boBaimai-thai";
};
width = 491;
},
{
anchors = (
{
name = bottom;
position = "{345, 0}";
},
{
name = top;
position = "{345, 555}";
}
);
layerId = "94F80E8F-7C96-497F-B870-569C37B7A2A5";
paths = (
{
closed = 1;
nodes = (
"265 0 LINE SMOOTH",
"319 0 OFFCURVE",
"345 31 OFFCURVE",
"345 95 CURVE SMOOTH",
"345 555 LINE",
"268 555 LINE",
"268 108 LINE SMOOTH",
"268 77 OFFCURVE",
"259 65 OFFCURVE",
"235 65 CURVE SMOOTH",
"155 65 LINE",
"155 209 LINE SMOOTH",
"155 267 OFFCURVE",
"160 295 OFFCURVE",
"178 337 CURVE SMOOTH",
"202 394 OFFCURVE",
"207 422 OFFCURVE",
"207 488 CURVE SMOOTH",
"207 555 LINE",
"169 555 LINE",
"163 505 OFFCURVE",
"149 473 OFFCURVE",
"123 447 CURVE",
"129 422 LINE",
"139 436 OFFCURVE",
"145 456 OFFCURVE",
"145 478 CURVE SMOOTH",
"145 531 OFFCURVE",
"120 562 OFFCURVE",
"79 562 CURVE SMOOTH",
"36 562 OFFCURVE",
"10 528 OFFCURVE",
"10 471 CURVE SMOOTH",
"10 416 OFFCURVE",
"37 382 OFFCURVE",
"82 382 CURVE SMOOTH",
"108 382 OFFCURVE",
"135 408 OFFCURVE",
"152 448 CURVE",
"154 447 LINE",
"149 408 OFFCURVE",
"143 393 OFFCURVE",
"121 358 CURVE SMOOTH",
"88 305 OFFCURVE",
"78 271 OFFCURVE",
"78 207 CURVE SMOOTH",
"78 64 LINE",
"43 51 LINE",
"43 0 LINE"
);
},
{
closed = 1;
nodes = (
"63 421 OFFCURVE",
"53 439 OFFCURVE",
"53 471 CURVE SMOOTH",
"53 503 OFFCURVE",
"63 521 OFFCURVE",
"81 521 CURVE SMOOTH",
"99 521 OFFCURVE",
"109 503 OFFCURVE",
"109 471 CURVE SMOOTH",
"109 439 OFFCURVE",
"99 421 OFFCURVE",
"81 421 CURVE SMOOTH"
);
}
);
width = 401;
}
);
leftKerningGroup = "khoKhai-thai";
rightMetricsKey = "boBaimai-thai";
unicode = 0E03;
},
{
glyphname = "khoKhwai-thai";
lastChange = "2022-09-01 04:16:00 +0000";
layers = (
{
anchors = (
{
name = bottom;
position = "{624, 0}";
},
{
name = top;
position = "{614, 563}";
}
);
layerId = "EB3A5D6C-8260-43A6-9EF2-63971FC08D48";
paths = (
{
closed = 1;
nodes = (
"259 0 LINE",
"259 43 LINE SMOOTH",
"259 110 OFFCURVE",
"269 142 OFFCURVE",
"302 181 CURVE",
"284 252 LINE",
"263 247 OFFCURVE",
"252 231 OFFCURVE",
"252 207 CURVE SMOOTH",
"252 174 OFFCURVE",
"296 146 OFFCURVE",
"347 146 CURVE SMOOTH",
"415 146 OFFCURVE",
"457 187 OFFCURVE",
"457 255 CURVE SMOOTH",
"457 325 OFFCURVE",
"417 364 OFFCURVE",
"346 364 CURVE SMOOTH",
"281 364 OFFCURVE",
"239 324 OFFCURVE",
"213 238 CURVE",
"209 238 LINE",
"213 254 OFFCURVE",
"214 267 OFFCURVE",
"214 319 CURVE SMOOTH",
"214 337 LINE SMOOTH",
"214 401 OFFCURVE",
"257 440 OFFCURVE",
"328 440 CURVE SMOOTH",
"401 440 OFFCURVE",
"442 401 OFFCURVE",
"442 332 CURVE SMOOTH",
"442 0 LINE",
"624 0 LINE",
"624 334 LINE SMOOTH",
"624 493 OFFCURVE",
"525 578 OFFCURVE",
"341 578 CURVE SMOOTH",
"159 578 OFFCURVE",
"51 485 OFFCURVE",
"51 328 CURVE SMOOTH",
"51 227 OFFCURVE",
"81 175 OFFCURVE",
"81 67 CURVE SMOOTH",
"81 0 LINE"
);
},
{
closed = 1;
nodes = (
"321 219 OFFCURVE",
"308 232 OFFCURVE",
"308 255 CURVE SMOOTH",
"308 278 OFFCURVE",
"321 291 OFFCURVE",
"346 291 CURVE SMOOTH",
"370 291 OFFCURVE",
"384 278 OFFCURVE",
"384 255 CURVE SMOOTH",
"384 232 OFFCURVE",
"370 219 OFFCURVE",
"346 219 CURVE SMOOTH"
);
}
);
width = 696;
},
{
anchors = (
{
name = bottom;
position = "{499, 0}";
},
{
name = top;
position = "{489, 550}";
}
);
layerId = "90A34054-68E4-499D-AE50-276C7B026D8B";
paths = (
{
closed = 1;
nodes = (
"126 0 LINE",
"126 87 LINE SMOOTH",
"126 222 OFFCURVE",
"204 314 OFFCURVE",
"238 321 CURVE",
"241 328 LINE",
"225 320 OFFCURVE",
"214 301 OFFCURVE",
"214 278 CURVE SMOOTH",
"214 233 OFFCURVE",
"244 199 OFFCURVE",
"293 199 CURVE SMOOTH",
"342 199 OFFCURVE",
"374 234 OFFCURVE",
"374 279 CURVE SMOOTH",
"374 324 OFFCURVE",
"342 359 OFFCURVE",
"292 359 CURVE SMOOTH",
"218 359 OFFCURVE",
"135 279 OFFCURVE",
"116 169 CURVE",
"114 169 LINE",
"113 211 OFFCURVE",
"100 248 OFFCURVE",
"100 329 CURVE SMOOTH",
"100 342 LINE SMOOTH",
"100 466 OFFCURVE",
"174 535 OFFCURVE",
"292 535 CURVE SMOOTH",
"406 535 OFFCURVE",
"474 475 OFFCURVE",
"474 361 CURVE SMOOTH",
"474 0 LINE",
"499 0 LINE",
"499 366 LINE SMOOTH",
"499 487 OFFCURVE",
"423 558 OFFCURVE",
"292 558 CURVE SMOOTH",
"149 558 OFFCURVE",
"75 476 OFFCURVE",
"75 334 CURVE SMOOTH",
"75 234 OFFCURVE",
"101 170 OFFCURVE",
"101 77 CURVE SMOOTH",
"101 0 LINE"
);
},
{
closed = 1;
nodes = (
"258 221 OFFCURVE",
"236 244 OFFCURVE",
"236 279 CURVE SMOOTH",
"236 314 OFFCURVE",
"258 337 OFFCURVE",
"293 337 CURVE SMOOTH",
"328 337 OFFCURVE",
"350 314 OFFCURVE",
"350 279 CURVE SMOOTH",
"350 244 OFFCURVE",
"328 221 OFFCURVE",
"293 221 CURVE SMOOTH"
);
}
);
width = 594;
},
{
anchors = (
{
name = bottom;
position = "{549, 0}";
},
{
name = top;
position = "{539, 555}";
}
);
hints = (
{
origin = "{0, 32}";
target = "{0, 33}";
type = Stem;
},
{
horizontal = 1;
origin = "{0, 37}";
target = "{0, 28}";
type = Stem;
},
{
horizontal = 1;
origin = "{0, 44}";
target = up;
type = BottomGhost;
},
{
origin = "{0, 40}";
target = "{0, 24}";
type = Stem;
}
);
layerId = "9148514D-BEB8-4275-B264-8F51401A425F";
paths = (
{
closed = 1;
nodes = (
"180 0 LINE",
"180 69 LINE SMOOTH",
"180 152 OFFCURVE",
"216 235 OFFCURVE",
"264 264 CURVE",
"258 297 LINE",
"240 290 OFFCURVE",
"229 272 OFFCURVE",
"229 249 CURVE SMOOTH",
"229 209 OFFCURVE",
"267 178 OFFCURVE",
"316 178 CURVE SMOOTH",
"376 178 OFFCURVE",
"416 214 OFFCURVE",
"416 269 CURVE SMOOTH",
"416 325 OFFCURVE",
"376 361 OFFCURVE",
"314 361 CURVE SMOOTH",
"237 361 OFFCURVE",
"178 300 OFFCURVE",
"155 197 CURVE",
"152 197 LINE",
"152 242 OFFCURVE",
"145 287 OFFCURVE",
"145 329 CURVE SMOOTH",
"145 337 LINE SMOOTH",
"145 438 OFFCURVE",
"207 497 OFFCURVE",
"308 497 CURVE SMOOTH",
"404 497 OFFCURVE",
"459 444 OFFCURVE",
"459 342 CURVE SMOOTH",
"459 0 LINE",
"549 0 LINE",
"549 342 LINE SMOOTH",
"549 488 OFFCURVE",
"461 566 OFFCURVE",
"308 566 CURVE SMOOTH",
"148 566 OFFCURVE",
"59 479 OFFCURVE",
"59 332 CURVE SMOOTH",
"59 231 OFFCURVE",
"93 172 OFFCURVE",
"93 73 CURVE SMOOTH",
"93 0 LINE"
);
},
{
closed = 1;
nodes = (
"287 226 OFFCURVE",
"270 242 OFFCURVE",
"270 269 CURVE SMOOTH",
"270 296 OFFCURVE",
"286 312 OFFCURVE",
"314 312 CURVE SMOOTH",
"342 312 OFFCURVE",
"358 296 OFFCURVE",
"358 269 CURVE SMOOTH",
"358 242 OFFCURVE",
"343 226 OFFCURVE",
"315 226 CURVE SMOOTH"
);
}
);
width = 635;
},
{
anchors = (
{
name = bottom;
position = "{326, 0}";
},
{
name = top;
position = "{320, 550}";
}
);
layerId = "54E3FB14-E6D2-4DF3-BA4A-5621168F9335";
paths = (
{
closed = 1;
nodes = (
"88 0 LINE",
"88 87 LINE SMOOTH",
"88 184 OFFCURVE",
"117 283 OFFCURVE",
"156 319 CURVE",
"157 328 LINE",
"146 319 OFFCURVE",
"139 300 OFFCURVE",
"139 278 CURVE SMOOTH",
"139 228 OFFCURVE",
"158 199 OFFCURVE",
"191 199 CURVE SMOOTH",
"225 199 OFFCURVE",
"245 228 OFFCURVE",
"245 279 CURVE SMOOTH",
"245 330 OFFCURVE",
"225 359 OFFCURVE",
"190 359 CURVE SMOOTH",
"139 359 OFFCURVE",
"95 284 OFFCURVE",
"79 169 CURVE",
"77 169 LINE",
"77 211 OFFCURVE",
"70 249 OFFCURVE",
"70 329 CURVE SMOOTH",
"70 342 LINE SMOOTH",
"70 464 OFFCURVE",
"108 535 OFFCURVE",
"189 535 CURVE SMOOTH",
"269 535 OFFCURVE",
"301 474 OFFCURVE",
"301 364 CURVE SMOOTH",
"301 0 LINE",
"326 0 LINE",
"326 364 LINE SMOOTH",
"326 487 OFFCURVE",
"288 558 OFFCURVE",
"189 558 CURVE SMOOTH",
"87 558 OFFCURVE",
"46 475 OFFCURVE",
"46 334 CURVE SMOOTH",
"46 234 OFFCURVE",
"64 170 OFFCURVE",
"64 77 CURVE SMOOTH",
"64 0 LINE"
);
},
{
closed = 1;
nodes = (
"171 221 OFFCURVE",
"160 242 OFFCURVE",
"160 279 CURVE SMOOTH",
"160 316 OFFCURVE",
"171 337 OFFCURVE",
"191 337 CURVE SMOOTH",
"211 337 OFFCURVE",
"222 316 OFFCURVE",
"222 279 CURVE SMOOTH",
"222 242 OFFCURVE",
"211 221 OFFCURVE",
"191 221 CURVE SMOOTH"
);
}
);
width = 386;
},
{
anchors = (
{
name = bottom;
position = "{481, 0}";
},
{
name = top;
position = "{475, 563}";
}
);
layerId = "E703E12A-5DA7-48FA-B69F-BB282FBD8E56";
paths = (
{
closed = 1;
nodes = (
"208 0 LINE",
"208 43 LINE SMOOTH",
"208 126 OFFCURVE",
"212 148 OFFCURVE",
"233 181 CURVE",
"218 252 LINE",
"202 247 OFFCURVE",
"193 231 OFFCURVE",
"193 207 CURVE SMOOTH",
"193 175 OFFCURVE",
"227 146 OFFCURVE",
"266 146 CURVE SMOOTH",
"318 146 OFFCURVE",
"350 187 OFFCURVE",
"350 255 CURVE SMOOTH",
"350 325 OFFCURVE",
"320 364 OFFCURVE",
"265 364 CURVE SMOOTH",
"212 364 OFFCURVE",
"183 325 OFFCURVE",
"170 238 CURVE",
"164 238 LINE",
"168 257 OFFCURVE",
"169 276 OFFCURVE",
"169 319 CURVE SMOOTH",
"169 337 LINE SMOOTH",
"169 399 OFFCURVE",
"201 440 OFFCURVE",
"250 440 CURVE SMOOTH",
"300 440 OFFCURVE",
"329 400 OFFCURVE",
"329 332 CURVE SMOOTH",
"329 0 LINE",
"481 0 LINE",
"481 334 LINE SMOOTH",
"481 492 OFFCURVE",
"403 578 OFFCURVE",
"260 578 CURVE SMOOTH",
"120 578 OFFCURVE",
"37 485 OFFCURVE",
"37 328 CURVE SMOOTH",
"37 227 OFFCURVE",
"59 175 OFFCURVE",
"59 67 CURVE SMOOTH",
"59 0 LINE"
);
},
{
closed = 1;
nodes = (
"247 219 OFFCURVE",
"237 232 OFFCURVE",
"237 255 CURVE SMOOTH",
"237 278 OFFCURVE",
"247 291 OFFCURVE",
"265 291 CURVE SMOOTH",
"282 291 OFFCURVE",
"293 278 OFFCURVE",
"293 255 CURVE SMOOTH",
"293 232 OFFCURVE",
"282 219 OFFCURVE",
"265 219 CURVE SMOOTH"
);
}
);
width = 527;
},
{
anchors = (
{
name = bottom;
position = "{387, 0}";
},
{
name = top;
position = "{381, 555}";
}
);
layerId = "94F80E8F-7C96-497F-B870-569C37B7A2A5";
paths = (
{
closed = 1;
nodes = (
"135 0 LINE",
"135 70 LINE SMOOTH",
"135 156 OFFCURVE",
"154 243 OFFCURVE",
"181 276 CURVE",
"181 298 LINE",
"168 291 OFFCURVE",
"160 273 OFFCURVE",
"160 250 CURVE SMOOTH",
"160 208 OFFCURVE",
"185 179 OFFCURVE",
"221 179 CURVE SMOOTH",
"262 179 OFFCURVE",
"286 212 OFFCURVE",
"286 270 CURVE SMOOTH",
"286 330 OFFCURVE",
"263 362 OFFCURVE",
"220 362 CURVE SMOOTH",
"172 362 OFFCURVE",
"133 300 OFFCURVE",
"115 196 CURVE",
"112 196 LINE",
"114 249 OFFCURVE",
"110 274 OFFCURVE",
"110 325 CURVE SMOOTH",
"110 340 LINE SMOOTH",
"110 442 OFFCURVE",
"147 499 OFFCURVE",
"213 499 CURVE SMOOTH",
"278 499 OFFCURVE",
"310 450 OFFCURVE",
"310 351 CURVE SMOOTH",
"310 0 LINE",
"387 0 LINE",
"387 352 LINE SMOOTH",
"387 494 OFFCURVE",
"330 566 OFFCURVE",
"218 566 CURVE SMOOTH",
"99 566 OFFCURVE",
"42 490 OFFCURVE",
"42 332 CURVE SMOOTH",
"42 231 OFFCURVE",
"62 172 OFFCURVE",
"62 73 CURVE SMOOTH",
"62 0 LINE"
);
},
{
closed = 1;
nodes = (
"202 219 OFFCURVE",
"192 237 OFFCURVE",
"192 269 CURVE SMOOTH",
"192 301 OFFCURVE",
"202 319 OFFCURVE",
"220 319 CURVE SMOOTH",
"238 319 OFFCURVE",
"248 301 OFFCURVE",
"248 269 CURVE SMOOTH",
"248 237 OFFCURVE",
"238 219 OFFCURVE",
"220 219 CURVE SMOOTH"
);
}
);
width = 443;
}
);
leftKerningGroup = "khoKhwai-thai";
note = "\012uni0E04\012";
rightKerningGroup = "koKai-thai";
rightMetricsKey = "koKai-thai";
unicode = 0E04;
},
{
glyphname = "khoKhon-thai";
lastChange = "2022-09-01 04:16:00 +0000";
layers = (
{
anchors = (
{
name = bottom;
position = "{624, 0}";
},
{
name = top;
position = "{614, 563}";
}
);
layerId = "EB3A5D6C-8260-43A6-9EF2-63971FC08D48";
paths = (
{
closed = 1;
nodes = (
"259 0 LINE",
"259 43 LINE SMOOTH",
"259 104 OFFCURVE",
"269 136 OFFCURVE",
"302 174 CURVE",
"278 231 LINE",
"261 227 OFFCURVE",
"252 216 OFFCURVE",
"252 200 CURVE SMOOTH",
"252 166 OFFCURVE",
"294 139 OFFCURVE",
"347 139 CURVE SMOOTH",
"415 139 OFFCURVE",
"457 180 OFFCURVE",
"457 248 CURVE SMOOTH",
"457 318 OFFCURVE",
"417 357 OFFCURVE",
"346 357 CURVE SMOOTH",
"282 357 OFFCURVE",
"239 316 OFFCURVE",
"213 231 CURVE",
"209 231 LINE",
"213 250 OFFCURVE",
"214 272 OFFCURVE",
"214 312 CURVE SMOOTH",
"214 337 LINE SMOOTH",
"214 396 OFFCURVE",
"233 431 OFFCURVE",
"265 431 CURVE",
"329 386 LINE",
"339 386 LINE",
"401 431 LINE",
"425 431 OFFCURVE",
"442 409 OFFCURVE",
"442 376 CURVE SMOOTH",
"442 0 LINE",
"624 0 LINE",
"624 354 LINE SMOOTH",
"624 485 OFFCURVE",
"541 573 OFFCURVE",
"418 573 CURVE",
"332 511 LINE",
"247 573 LINE",
"132 573 OFFCURVE",
"51 475 OFFCURVE",
"51 337 CURVE SMOOTH",
"51 227 OFFCURVE",
"81 175 OFFCURVE",
"81 67 CURVE SMOOTH",
"81 0 LINE"
);
},
{
closed = 1;
nodes = (
"321 212 OFFCURVE",
"308 225 OFFCURVE",
"308 248 CURVE SMOOTH",
"308 271 OFFCURVE",
"321 284 OFFCURVE",
"346 284 CURVE SMOOTH",
"370 284 OFFCURVE",
"384 271 OFFCURVE",
"384 248 CURVE SMOOTH",
"384 225 OFFCURVE",
"370 212 OFFCURVE",
"346 212 CURVE SMOOTH"
);
}
);
userData = {
com.schriftgestaltung.Glyphs.glyph.leftMetricsKey = "khoKhwai-thai";
com.schriftgestaltung.Glyphs.glyph.rightMetricsKey = "khoKhwai-thai";
};
width = 696;
},
{
anchors = (
{
name = bottom;
position = "{501, 0}";
},
{
name = top;
position = "{491, 550}";
}
);
layerId = "90A34054-68E4-499D-AE50-276C7B026D8B";
paths = (
{
closed = 1;
nodes = (
"126 0 LINE",
"126 87 LINE SMOOTH",
"126 217 OFFCURVE",
"205 310 OFFCURVE",
"239 317 CURVE",
"242 324 LINE",
"226 316 OFFCURVE",
"215 297 OFFCURVE",
"215 274 CURVE SMOOTH",
"215 229 OFFCURVE",
"245 195 OFFCURVE",
"294 195 CURVE SMOOTH",
"343 195 OFFCURVE",
"375 230 OFFCURVE",
"375 275 CURVE SMOOTH",
"375 320 OFFCURVE",
"343 355 OFFCURVE",
"293 355 CURVE SMOOTH",
"219 355 OFFCURVE",
"135 274 OFFCURVE",
"116 169 CURVE",
"114 169 LINE",
"113 216 OFFCURVE",
"100 259 OFFCURVE",
"100 348 CURVE SMOOTH",
"100 365 LINE SMOOTH",
"100 447 OFFCURVE",
"133 502 OFFCURVE",
"198 530 CURVE",
"286 450 LINE",
"290 450 LINE",
"380 530 LINE",
"446 513 OFFCURVE",
"476 462 OFFCURVE",
"476 366 CURVE SMOOTH",
"476 0 LINE",
"501 0 LINE",
"501 366 LINE SMOOTH",
"501 478 OFFCURVE",
"464 534 OFFCURVE",
"374 555 CURVE",
"288 477 LINE",
"203 555 LINE",
"116 528 OFFCURVE",
"75 463 OFFCURVE",
"75 353 CURVE SMOOTH",
"75 246 OFFCURVE",
"101 177 OFFCURVE",
"101 77 CURVE SMOOTH",
"101 0 LINE"
);
},
{
closed = 1;
nodes = (
"259 217 OFFCURVE",
"237 240 OFFCURVE",
"237 275 CURVE SMOOTH",
"237 310 OFFCURVE",
"259 333 OFFCURVE",
"294 333 CURVE SMOOTH",
"329 333 OFFCURVE",
"351 310 OFFCURVE",
"351 275 CURVE SMOOTH",
"351 240 OFFCURVE",
"329 217 OFFCURVE",
"294 217 CURVE SMOOTH"
);
}
);
width = 596;
},
{
anchors = (
{
name = bottom;
position = "{545, 0}";
},
{
name = top;
position = "{535, 555}";
}
);
hints = (
{
origin = "{0, 45}";
target = "{0, 24}";
type = Stem;
},
{
origin = "{0, 35}";
target = "{0, 36}";
type = Stem;
},
{
horizontal = 1;
origin = "{0, 49}";
target = up;
type = BottomGhost;
},
{
horizontal = 1;
origin = "{0, 42}";
target = down;
type = TopGhost;
}
);
layerId = "9148514D-BEB8-4275-B264-8F51401A425F";
paths = (
{
closed = 1;
nodes = (
"174 0 LINE",
"174 69 LINE SMOOTH",
"174 152 OFFCURVE",
"210 235 OFFCURVE",
"258 264 CURVE",
"252 297 LINE",
"234 290 OFFCURVE",
"223 272 OFFCURVE",
"223 249 CURVE SMOOTH",
"223 209 OFFCURVE",
"261 178 OFFCURVE",
"310 178 CURVE SMOOTH",
"370 178 OFFCURVE",
"410 214 OFFCURVE",
"410 269 CURVE SMOOTH",
"410 325 OFFCURVE",
"370 361 OFFCURVE",
"308 361 CURVE SMOOTH",
"231 361 OFFCURVE",
"172 300 OFFCURVE",
"149 197 CURVE",
"146 197 LINE",
"146 242 OFFCURVE",
"139 287 OFFCURVE",
"139 329 CURVE SMOOTH",
"139 347 LINE SMOOTH",
"139 427 OFFCURVE",
"169 475 OFFCURVE",
"206 487 CURVE",
"295 422 LINE",
"305 422 LINE",
"394 487 LINE",
"432 480 OFFCURVE",
"455 447 OFFCURVE",
"455 381 CURVE SMOOTH",
"455 0 LINE",
"545 0 LINE",
"545 381 LINE SMOOTH",
"545 490 OFFCURVE",
"491 553 OFFCURVE",
"388 562 CURVE",
"299 497 LINE",
"210 562 LINE",
"117 546 OFFCURVE",
"59 469 OFFCURVE",
"59 347 CURVE SMOOTH",
"59 238 OFFCURVE",
"87 176 OFFCURVE",
"87 73 CURVE SMOOTH",
"87 0 LINE"
);
},
{
closed = 1;
nodes = (
"281 226 OFFCURVE",
"264 242 OFFCURVE",
"264 269 CURVE SMOOTH",
"264 296 OFFCURVE",
"280 312 OFFCURVE",
"308 312 CURVE SMOOTH",
"336 312 OFFCURVE",
"352 296 OFFCURVE",
"352 269 CURVE SMOOTH",
"352 242 OFFCURVE",
"337 226 OFFCURVE",
"309 226 CURVE SMOOTH"
);
}
);
width = 631;
},
{
anchors = (
{
name = bottom;
position = "{327, 0}";
},
{
name = top;
position = "{321, 550}";
}
);
layerId = "54E3FB14-E6D2-4DF3-BA4A-5621168F9335";
paths = (
{
closed = 1;
nodes = (
"88 0 LINE",
"88 87 LINE SMOOTH",
"88 184 OFFCURVE",
"117 283 OFFCURVE",
"156 319 CURVE",
"157 328 LINE",
"146 319 OFFCURVE",
"139 300 OFFCURVE",
"139 278 CURVE SMOOTH",
"139 228 OFFCURVE",
"158 199 OFFCURVE",
"191 199 CURVE SMOOTH",
"225 199 OFFCURVE",
"245 228 OFFCURVE",
"245 279 CURVE SMOOTH",
"245 330 OFFCURVE",
"225 359 OFFCURVE",
"190 359 CURVE SMOOTH",
"139 359 OFFCURVE",
"95 284 OFFCURVE",
"79 169 CURVE",
"77 169 LINE",
"77 211 OFFCURVE",
"70 249 OFFCURVE",
"70 329 CURVE SMOOTH",
"70 342 LINE SMOOTH",
"70 451 OFFCURVE",
"93 503 OFFCURVE",
"132 527 CURVE",
"190 445 LINE",
"193 445 LINE",
"251 526 LINE",
"285 506 OFFCURVE",
"302 468 OFFCURVE",
"302 376 CURVE SMOOTH",
"302 0 LINE",
"327 0 LINE",
"327 376 LINE SMOOTH",
"327 481 OFFCURVE",
"305 529 OFFCURVE",
"247 555 CURVE",
"192 477 LINE",
"138 555 LINE",
"77 528 OFFCURVE",
"46 464 OFFCURVE",
"46 334 CURVE SMOOTH",
"46 234 OFFCURVE",
"64 170 OFFCURVE",
"64 77 CURVE SMOOTH",
"64 0 LINE"
);
},
{
closed = 1;
nodes = (
"171 221 OFFCURVE",
"160 242 OFFCURVE",
"160 279 CURVE SMOOTH",
"160 316 OFFCURVE",
"171 337 OFFCURVE",
"191 337 CURVE SMOOTH",
"211 337 OFFCURVE",
"222 316 OFFCURVE",
"222 279 CURVE SMOOTH",
"222 242 OFFCURVE",
"211 221 OFFCURVE",
"191 221 CURVE SMOOTH"
);
}
);
width = 387;
},
{
anchors = (
{
name = bottom;
position = "{482, 0}";
},
{
name = top;
position = "{476, 563}";
}
);
layerId = "E703E12A-5DA7-48FA-B69F-BB282FBD8E56";
paths = (
{
closed = 1;
nodes = (
"209 0 LINE",
"209 43 LINE SMOOTH",
"209 112 OFFCURVE",
"215 143 OFFCURVE",
"234 174 CURVE",
"213 231 LINE",
"201 227 OFFCURVE",
"194 216 OFFCURVE",
"194 200 CURVE SMOOTH",
"194 166 OFFCURVE",
"226 139 OFFCURVE",
"267 139 CURVE SMOOTH",
"319 139 OFFCURVE",
"351 180 OFFCURVE",
"351 248 CURVE SMOOTH",
"351 318 OFFCURVE",
"321 357 OFFCURVE",
"266 357 CURVE SMOOTH",
"213 357 OFFCURVE",
"183 316 OFFCURVE",
"171 231 CURVE",
"165 231 LINE",
"170 251 OFFCURVE",
"171 270 OFFCURVE",
"171 312 CURVE SMOOTH",
"171 337 LINE SMOOTH",
"171 396 OFFCURVE",
"185 431 OFFCURVE",
"209 431 CURVE",
"253 386 LINE",
"260 386 LINE",
"302 431 LINE",
"318 431 OFFCURVE",
"329 409 OFFCURVE",
"329 376 CURVE SMOOTH",
"329 0 LINE",
"482 0 LINE",
"482 354 LINE SMOOTH",
"482 482 OFFCURVE",
"414 573 OFFCURVE",
"319 573 CURVE",
"255 511 LINE",
"192 573 LINE",
"102 573 OFFCURVE",
"37 474 OFFCURVE",
"37 337 CURVE SMOOTH",
"37 227 OFFCURVE",
"60 175 OFFCURVE",
"60 67 CURVE SMOOTH",
"60 0 LINE"
);
},
{
closed = 1;
nodes = (
"248 212 OFFCURVE",
"238 225 OFFCURVE",
"238 248 CURVE SMOOTH",
"238 271 OFFCURVE",
"248 284 OFFCURVE",
"266 284 CURVE SMOOTH",
"283 284 OFFCURVE",
"294 271 OFFCURVE",
"294 248 CURVE SMOOTH",
"294 225 OFFCURVE",
"283 212 OFFCURVE",
"266 212 CURVE SMOOTH"
);
}
);
userData = {
com.schriftgestaltung.Glyphs.glyph.leftMetricsKey = "khoKhwai-thai";
com.schriftgestaltung.Glyphs.glyph.rightMetricsKey = "khoKhwai-thai";
};
width = 528;
},
{
anchors = (
{
name = bottom;
position = "{388, 0}";
},
{
name = top;
position = "{382, 555}";
}
);
layerId = "94F80E8F-7C96-497F-B870-569C37B7A2A5";
paths = (
{
closed = 1;
nodes = (
"136 0 LINE",
"136 70 LINE SMOOTH",
"136 156 OFFCURVE",
"155 243 OFFCURVE",
"182 276 CURVE",
"182 298 LINE",
"169 291 OFFCURVE",
"161 273 OFFCURVE",
"161 250 CURVE SMOOTH",
"161 208 OFFCURVE",
"186 179 OFFCURVE",
"222 179 CURVE SMOOTH",
"263 179 OFFCURVE",
"287 212 OFFCURVE",
"287 270 CURVE SMOOTH",
"287 330 OFFCURVE",
"264 362 OFFCURVE",
"221 362 CURVE SMOOTH",
"173 362 OFFCURVE",
"134 300 OFFCURVE",
"116 196 CURVE",
"113 196 LINE",
"115 249 OFFCURVE",
"110 274 OFFCURVE",
"110 325 CURVE SMOOTH",
"110 340 LINE SMOOTH",
"110 426 OFFCURVE",
"128 475 OFFCURVE",
"162 489 CURVE",
"215 422 LINE",
"219 422 LINE",
"271 489 LINE",
"299 476 OFFCURVE",
"311 442 OFFCURVE",
"311 376 CURVE SMOOTH",
"311 0 LINE",
"388 0 LINE",
"388 367 LINE SMOOTH",
"388 479 OFFCURVE",
"350 545 OFFCURVE",
"275 562 CURVE",
"217 490 LINE",
"159 562 LINE",
"84 545 OFFCURVE",
"42 464 OFFCURVE",
"42 335 CURVE SMOOTH",
"42 231 OFFCURVE",
"62 172 OFFCURVE",
"62 73 CURVE SMOOTH",
"62 0 LINE"
);
},
{
closed = 1;
nodes = (
"203 219 OFFCURVE",
"193 237 OFFCURVE",
"193 269 CURVE SMOOTH",
"193 301 OFFCURVE",
"203 319 OFFCURVE",
"221 319 CURVE SMOOTH",
"239 319 OFFCURVE",
"249 301 OFFCURVE",
"249 269 CURVE SMOOTH",
"249 237 OFFCURVE",
"239 219 OFFCURVE",
"221 219 CURVE SMOOTH"
);
}
);
width = 444;
}
);
leftKerningGroup = "khoKhwai-thai";
leftMetricsKey = "khoKhwai-thai";
rightMetricsKey = "koKai-thai";
unicode = 0E05;
},
{
glyphname = "khoRakhang-thai";
lastChange = "2022-10-15 14:56:47 +0000";
layers = (
{
anchors = (
{
name = bottom;
position = "{598, 0}";
},
{
name = top;
position = "{598, 563}";
}
);
layerId = "EB3A5D6C-8260-43A6-9EF2-63971FC08D48";
paths = (
{
closed = 1;
nodes = (
"598 0 LINE",
"598 563 LINE",
"412 563 LINE",
"412 254 LINE SMOOTH",
"412 219 OFFCURVE",
"414 184 OFFCURVE",
"417 146 CURVE",
"413 146 LINE",
"365 191 OFFCURVE",
"309 220 OFFCURVE",
"247 233 CURVE",
"297 197 LINE",
"297 255 LINE SMOOTH",
"297 279 OFFCURVE",
"301 300 OFFCURVE",
"311 335 CURVE SMOOTH",
"326 385 OFFCURVE",
"332 422 OFFCURVE",
"332 470 CURVE SMOOTH",
"332 563 LINE",
"248 563 LINE",
"242 511 OFFCURVE",
"229 470 OFFCURVE",
"212 443 CURVE",
"214 427 LINE",
"225 440 OFFCURVE",
"232 458 OFFCURVE",
"232 475 CURVE SMOOTH",
"232 533 OFFCURVE",
"187 573 OFFCURVE",
"122 573 CURVE SMOOTH",
"49 573 OFFCURVE",
"4 532 OFFCURVE",
"4 465 CURVE SMOOTH",
"4 400 OFFCURVE",
"52 357 OFFCURVE",
"123 357 CURVE SMOOTH",
"150 357 OFFCURVE",
"177 369 OFFCURVE",
"198 391 CURVE",
"201 389 LINE",
"194 378 OFFCURVE",
"187 371 OFFCURVE",
"160 347 CURVE SMOOTH",
"128 319 OFFCURVE",
"112 292 OFFCURVE",
"112 262 CURVE SMOOTH",
"112 254 LINE SMOOTH",
"112 231 OFFCURVE",
"116 211 OFFCURVE",
"123 194 CURVE",
"237 146 LINE",
"314 99 OFFCURVE",
"370 54 OFFCURVE",
"417 0 CURVE"
);
},
{
closed = 1;
nodes = (
"98 426 OFFCURVE",
"82 440 OFFCURVE",
"82 465 CURVE SMOOTH",
"82 490 OFFCURVE",
"98 504 OFFCURVE",
"124 504 CURVE SMOOTH",
"150 504 OFFCURVE",
"166 490 OFFCURVE",
"166 465 CURVE SMOOTH",
"166 440 OFFCURVE",
"150 426 OFFCURVE",
"124 426 CURVE SMOOTH"
);
},
{
closed = 1;
nodes = (
"246 -10 OFFCURVE",
"300 36 OFFCURVE",
"300 109 CURVE SMOOTH",
"300 182 OFFCURVE",
"246 228 OFFCURVE",
"162 228 CURVE SMOOTH",
"78 228 OFFCURVE",
"25 182 OFFCURVE",
"25 109 CURVE SMOOTH",
"25 36 OFFCURVE",
"78 -10 OFFCURVE",
"162 -10 CURVE SMOOTH"
);
},
{
closed = 1;
nodes = (
"129 70 OFFCURVE",
"113 84 OFFCURVE",
"113 109 CURVE SMOOTH",
"113 134 OFFCURVE",
"129 148 OFFCURVE",
"155 148 CURVE SMOOTH",
"181 148 OFFCURVE",
"197 134 OFFCURVE",
"197 109 CURVE SMOOTH",
"197 84 OFFCURVE",
"181 70 OFFCURVE",
"155 70 CURVE SMOOTH"
);
}
);
userData = {
com.schriftgestaltung.Glyphs.glyph.rightMetricsKey = "boBaimai-thai";
};
width = 672;
},
{
anchors = (
{
name = bottom;
position = "{502, 0}";
},
{
name = top;
position = "{502, 550}";
}
);
layerId = "90A34054-68E4-499D-AE50-276C7B026D8B";
paths = (
{
closed = 1;
nodes = (
"502 0 LINE",
"502 550 LINE",
"477 550 LINE",
"477 236 LINE SMOOTH",
"477 131 OFFCURVE",
"477 78 OFFCURVE",
"478 28 CURVE",
"475 28 LINE",
"407 67 OFFCURVE",
"288 112 OFFCURVE",
"185 137 CURVE",
"196 121 LINE",
"196 232 LINE SMOOTH",
"196 282 OFFCURVE",
"201 298 OFFCURVE",
"234 353 CURVE SMOOTH",
"265 405 OFFCURVE",
"273 439 OFFCURVE",
"273 514 CURVE SMOOTH",
"273 550 LINE",
"254 550 LINE",
"244 492 OFFCURVE",
"198 430 OFFCURVE",
"163 427 CURVE",
"163 417 LINE",
"182 431 OFFCURVE",
"194 454 OFFCURVE",
"194 478 CURVE SMOOTH",
"194 523 OFFCURVE",
"161 554 OFFCURVE",
"114 554 CURVE SMOOTH",
"65 554 OFFCURVE",
"33 522 OFFCURVE",
"33 474 CURVE SMOOTH",
"33 427 OFFCURVE",
"67 396 OFFCURVE",
"120 396 CURVE SMOOTH",
"178 396 OFFCURVE",
"232 436 OFFCURVE",
"252 493 CURVE",
"254 493 LINE",
"250 438 OFFCURVE",
"243 414 OFFCURVE",
"214 364 CURVE SMOOTH",
"179 305 OFFCURVE",
"171 280 OFFCURVE",
"171 232 CURVE SMOOTH",
"171 210 LINE SMOOTH",
"171 183 OFFCURVE",
"171 157 OFFCURVE",
"171 130 CURVE",
"196 112 LINE",
"272 94 OFFCURVE",
"404 48 OFFCURVE",
"477 0 CURVE"
);
},
{
closed = 1;
nodes = (
"79 416 OFFCURVE",
"57 439 OFFCURVE",
"57 474 CURVE SMOOTH",
"57 509 OFFCURVE",
"79 532 OFFCURVE",
"114 532 CURVE SMOOTH",
"149 532 OFFCURVE",
"171 509 OFFCURVE",
"171 474 CURVE SMOOTH",
"171 439 OFFCURVE",
"149 416 OFFCURVE",
"114 416 CURVE SMOOTH"
);
},
{
closed = 1;
nodes = (
"177 -5 OFFCURVE",
"211 29 OFFCURVE",
"211 77 CURVE SMOOTH",
"211 125 OFFCURVE",
"177 158 OFFCURVE",
"127 158 CURVE SMOOTH",
"77 158 OFFCURVE",
"43 125 OFFCURVE",
"43 77 CURVE SMOOTH",
"43 29 OFFCURVE",
"77 -5 OFFCURVE",
"127 -5 CURVE SMOOTH"
);
},
{
closed = 1;
nodes = (
"91 17 OFFCURVE",
"67 41 OFFCURVE",
"67 77 CURVE SMOOTH",
"67 112 OFFCURVE",
"91 136 OFFCURVE",
"127 136 CURVE SMOOTH",
"163 136 OFFCURVE",
"187 112 OFFCURVE",
"187 77 CURVE SMOOTH",
"187 41 OFFCURVE",
"163 17 OFFCURVE",
"127 17 CURVE SMOOTH"
);
}
);
width = 602;
},
{
anchors = (
{
name = bottom;
position = "{541, 0}";
},
{
name = top;
position = "{541, 555}";
}
);
hints = (
{
horizontal = 1;
origin = "{0, 30}";
target = "{1, 5}";
type = Stem;
},
{
horizontal = 1;
origin = "{2, 11}";
target = "{3, 11}";
type = Stem;
},
{
horizontal = 1;
origin = "{0, 2}";
target = down;
type = TopGhost;
},
{
horizontal = 1;
origin = "{0, 54}";
target = up;
type = BottomGhost;
},
{
origin = "{0, 47}";
target = "{0, 12}";
type = Stem;
},
{
origin = "{0, 3}";
target = "{0, 0}";
type = Stem;
}
);
layerId = "9148514D-BEB8-4275-B264-8F51401A425F";
paths = (
{
closed = 1;
nodes = (
"541 0 LINE",
"541 555 LINE",
"451 555 LINE",
"451 243 LINE SMOOTH",
"451 162 OFFCURVE",
"452 119 OFFCURVE",
"453 76 CURVE",
"450 76 LINE",
"390 116 OFFCURVE",
"298 155 OFFCURVE",
"210 176 CURVE",
"237 152 LINE",
"237 217 LINE SMOOTH",
"237 278 OFFCURVE",
"242 295 OFFCURVE",
"271 337 CURVE SMOOTH",
"300 379 OFFCURVE",
"310 420 OFFCURVE",
"310 496 CURVE SMOOTH",
"310 555 LINE",
"261 555 LINE",
"254 509 OFFCURVE",
"224 456 OFFCURVE",
"192 433 CURVE",
"197 421 LINE",
"213 434 OFFCURVE",
"223 455 OFFCURVE",
"223 477 CURVE SMOOTH",
"223 527 OFFCURVE",
"185 562 OFFCURVE",
"131 562 CURVE SMOOTH",
"72 562 OFFCURVE",
"35 526 OFFCURVE",
"35 470 CURVE SMOOTH",
"35 415 OFFCURVE",
"74 380 OFFCURVE",
"135 380 CURVE SMOOTH",
"180 380 OFFCURVE",
"224 409 OFFCURVE",
"245 452 CURVE",
"248 451 LINE",
"242 412 OFFCURVE",
"233 396 OFFCURVE",
"200 357 CURVE SMOOTH",
"162 313 OFFCURVE",
"147 274 OFFCURVE",
"147 222 CURVE SMOOTH",
"147 218 LINE SMOOTH",
"147 194 OFFCURVE",
"149 174 OFFCURVE",
"152 156 CURVE",
"213 126 LINE",
"313 87 OFFCURVE",
"402 41 OFFCURVE",
"453 0 CURVE"
);
},
{
closed = 1;
nodes = (
"103 427 OFFCURVE",
"87 443 OFFCURVE",
"87 470 CURVE SMOOTH",
"87 497 OFFCURVE",
"103 513 OFFCURVE",
"131 513 CURVE SMOOTH",
"159 513 OFFCURVE",
"175 497 OFFCURVE",
"175 470 CURVE SMOOTH",
"175 443 OFFCURVE",
"159 427 OFFCURVE",
"131 427 CURVE SMOOTH"
);
},
{
closed = 1;
nodes = (
"204 -7 OFFCURVE",
"246 32 OFFCURVE",
"246 90 CURVE SMOOTH",
"246 148 OFFCURVE",
"204 186 OFFCURVE",
"140 186 CURVE SMOOTH",
"77 186 OFFCURVE",
"36 148 OFFCURVE",
"36 90 CURVE SMOOTH",
"36 32 OFFCURVE",
"77 -7 OFFCURVE",
"140 -7 CURVE SMOOTH"
);
},
{
closed = 1;
nodes = (
"110 46 OFFCURVE",
"94 62 OFFCURVE",
"94 89 CURVE SMOOTH",
"94 116 OFFCURVE",
"110 132 OFFCURVE",
"138 132 CURVE SMOOTH",
"166 132 OFFCURVE",
"182 116 OFFCURVE",
"182 89 CURVE SMOOTH",
"182 62 OFFCURVE",
"166 46 OFFCURVE",
"138 46 CURVE SMOOTH"
);
}
);
width = 630;
},
{
anchors = (
{
name = bottom;
position = "{326, 0}";
},
{
name = top;
position = "{326, 550}";
}
);
layerId = "54E3FB14-E6D2-4DF3-BA4A-5621168F9335";
paths = (
{
closed = 1;
nodes = (
"326 0 LINE",
"326 550 LINE",
"301 550 LINE",
"301 236 LINE SMOOTH",
"301 166 OFFCURVE",
"301 95 OFFCURVE",
"301 28 CURVE",
"299 28 LINE",
"248 75 OFFCURVE",
"175 116 OFFCURVE",
"121 137 CURVE",
"131 121 LINE",
"131 202 LINE SMOOTH",
"131 268 OFFCURVE",
"138 296 OFFCURVE",
"166 351 CURVE SMOOTH",
"191 401 OFFCURVE",
"197 420 OFFCURVE",
"197 498 CURVE SMOOTH",
"197 550 LINE",
"179 550 LINE",
"173 493 OFFCURVE",
"148 440 OFFCURVE",
"126 427 CURVE",
"127 417 LINE",
"139 432 OFFCURVE",
"145 454 OFFCURVE",
"145 478 CURVE SMOOTH",
"145 527 OFFCURVE",
"127 554 OFFCURVE",
"93 554 CURVE SMOOTH",
"59 554 OFFCURVE",
"39 525 OFFCURVE",
"39 474 CURVE SMOOTH",
"39 424 OFFCURVE",
"60 396 OFFCURVE",
"96 396 CURVE SMOOTH",
"133 396 OFFCURVE",
"165 436 OFFCURVE",
"178 483 CURVE",
"179 483 LINE",
"176 426 OFFCURVE",
"170 407 OFFCURVE",
"147 363 CURVE SMOOTH",
"117 305 OFFCURVE",
"106 274 OFFCURVE",
"106 202 CURVE SMOOTH",
"106 190 LINE SMOOTH",
"106 161 OFFCURVE",
"106 154 OFFCURVE",
"106 130 CURVE",
"127 112 LINE",
"176 94 OFFCURVE",
"257 48 OFFCURVE",
"302 0 CURVE"
);
},
{
closed = 1;
nodes = (
"73 416 OFFCURVE",
"62 437 OFFCURVE",
"62 474 CURVE SMOOTH",
"62 511 OFFCURVE",
"73 532 OFFCURVE",
"93 532 CURVE SMOOTH",
"113 532 OFFCURVE",
"124 511 OFFCURVE",
"124 474 CURVE SMOOTH",
"124 437 OFFCURVE",
"113 416 OFFCURVE",
"93 416 CURVE SMOOTH"
);
},
{
closed = 1;
nodes = (
"119 -5 OFFCURVE",
"138 24 OFFCURVE",
"138 75 CURVE SMOOTH",
"138 126 OFFCURVE",
"119 155 OFFCURVE",
"87 155 CURVE SMOOTH",
"51 155 OFFCURVE",
"30 126 OFFCURVE",
"30 75 CURVE SMOOTH",
"30 24 OFFCURVE",
"50 -5 OFFCURVE",
"85 -5 CURVE SMOOTH"
);
},
{
closed = 1;
nodes = (
"64 17 OFFCURVE",
"53 38 OFFCURVE",
"53 75 CURVE SMOOTH",
"53 112 OFFCURVE",
"64 133 OFFCURVE",
"84 133 CURVE SMOOTH",
"104 133 OFFCURVE",
"115 112 OFFCURVE",
"115 75 CURVE SMOOTH",
"115 38 OFFCURVE",
"104 17 OFFCURVE",
"84 17 CURVE SMOOTH"
);
}
);
width = 388;
},
{
anchors = (
{
name = bottom;
position = "{466, 0}";
},
{
name = top;
position = "{466, 563}";
}
);
layerId = "E703E12A-5DA7-48FA-B69F-BB282FBD8E56";
paths = (
{
closed = 1;
nodes = (
"466 0 LINE",
"466 563 LINE",
"310 563 LINE",
"310 254 LINE SMOOTH",
"310 213 OFFCURVE",
"311 184 OFFCURVE",
"314 146 CURVE",
"311 146 LINE",
"275 194 OFFCURVE",
"240 221 OFFCURVE",
"199 233 CURVE",
"240 197 LINE",
"240 255 LINE SMOOTH",
"240 274 OFFCURVE",
"243 301 OFFCURVE",
"248 335 CURVE SMOOTH",
"256 390 OFFCURVE",
"260 433 OFFCURVE",
"260 470 CURVE SMOOTH",
"260 563 LINE",
"191 563 LINE",
"186 502 OFFCURVE",
"179 466 OFFCURVE",
"170 443 CURVE",
"171 427 LINE",
"179 441 OFFCURVE",
"183 458 OFFCURVE",
"183 475 CURVE SMOOTH",
"183 534 OFFCURVE",
"149 573 OFFCURVE",
"97 573 CURVE SMOOTH",
"42 573 OFFCURVE",
"5 530 OFFCURVE",
"5 466 CURVE SMOOTH",
"5 402 OFFCURVE",
"40 357 OFFCURVE",
"90 357 CURVE SMOOTH",
"113 357 OFFCURVE",
"131 368 OFFCURVE",
"148 391 CURVE",
"150 389 LINE",
"145 382 OFFCURVE",
"141 376 OFFCURVE",
"120 347 CURVE SMOOTH",
"95 312 OFFCURVE",
"85 289 OFFCURVE",
"85 262 CURVE SMOOTH",
"85 254 LINE SMOOTH",
"85 232 OFFCURVE",
"88 211 OFFCURVE",
"95 194 CURVE",
"189 146 LINE",
"239 105 OFFCURVE",
"275 63 OFFCURVE",
"314 0 CURVE"
);
},
{
closed = 1;
nodes = (
"80 426 OFFCURVE",
"68 441 OFFCURVE",
"68 465 CURVE SMOOTH",
"68 489 OFFCURVE",
"80 504 OFFCURVE",
"99 504 CURVE SMOOTH",
"118 504 OFFCURVE",
"130 489 OFFCURVE",
"130 465 CURVE SMOOTH",
"130 441 OFFCURVE",
"118 426 OFFCURVE",
"99 426 CURVE SMOOTH"
);
},
{
closed = 1;
nodes = (
"199 -10 OFFCURVE",
"242 37 OFFCURVE",
"242 109 CURVE SMOOTH",
"242 182 OFFCURVE",
"199 228 OFFCURVE",
"132 228 CURVE SMOOTH",
"65 228 OFFCURVE",
"20 181 OFFCURVE",
"20 109 CURVE SMOOTH",
"20 37 OFFCURVE",
"64 -10 OFFCURVE",
"132 -10 CURVE SMOOTH"
);
},
{
closed = 1;
nodes = (
"108 70 OFFCURVE",
"96 85 OFFCURVE",
"96 109 CURVE SMOOTH",
"96 133 OFFCURVE",
"108 148 OFFCURVE",
"127 148 CURVE SMOOTH",
"146 148 OFFCURVE",
"158 133 OFFCURVE",
"158 109 CURVE SMOOTH",
"158 85 OFFCURVE",
"146 70 OFFCURVE",
"127 70 CURVE SMOOTH"
);
}
);
userData = {
com.schriftgestaltung.Glyphs.glyph.rightMetricsKey = "boBaimai-thai";
};
width = 514;
},
{
anchors = (
{
name = bottom;
position = "{381, 0}";
},
{
name = top;
position = "{381, 555}";
}
);
layerId = "94F80E8F-7C96-497F-B870-569C37B7A2A5";
paths = (
{
closed = 1;
nodes = (
"381 0 LINE",
"381 555 LINE",
"304 555 LINE",
"304 243 LINE SMOOTH",
"304 159 OFFCURVE",
"304 117 OFFCURVE",
"305 74 CURVE",
"303 74 LINE",
"262 118 OFFCURVE",
"206 155 OFFCURVE",
"152 175 CURVE",
"175 151 LINE",
"175 224 LINE SMOOTH",
"175 276 OFFCURVE",
"179 299 OFFCURVE",
"198 346 CURVE SMOOTH",
"217 394 OFFCURVE",
"222 424 OFFCURVE",
"222 488 CURVE SMOOTH",
"222 555 LINE",
"184 555 LINE",
"178 506 OFFCURVE",
"164 473 OFFCURVE",
"138 447 CURVE",
"144 422 LINE",
"154 436 OFFCURVE",
"160 456 OFFCURVE",
"160 478 CURVE SMOOTH",
"160 530 OFFCURVE",
"136 562 OFFCURVE",
"95 562 CURVE SMOOTH",
"52 562 OFFCURVE",
"26 528 OFFCURVE",
"26 471 CURVE SMOOTH",
"26 416 OFFCURVE",
"53 382 OFFCURVE",
"97 382 CURVE SMOOTH",
"123 382 OFFCURVE",
"149 407 OFFCURVE",
"166 448 CURVE",
"168 447 LINE",
"163 409 OFFCURVE",
"157 394 OFFCURVE",
"136 358 CURVE SMOOTH",
"106 306 OFFCURVE",
"98 276 OFFCURVE",
"98 227 CURVE SMOOTH",
"98 215 LINE SMOOTH",
"98 192 OFFCURVE",
"99 179 OFFCURVE",
"102 155 CURVE",
"151 125 LINE",
"213 91 OFFCURVE",
"272 44 OFFCURVE",
"307 0 CURVE"
);
},
{
closed = 1;
nodes = (
"79 421 OFFCURVE",
"69 439 OFFCURVE",
"69 471 CURVE SMOOTH",
"69 503 OFFCURVE",
"79 521 OFFCURVE",
"97 521 CURVE SMOOTH",
"115 521 OFFCURVE",
"125 503 OFFCURVE",
"125 471 CURVE SMOOTH",
"125 439 OFFCURVE",
"115 421 OFFCURVE",
"97 421 CURVE SMOOTH"
);
},
{
closed = 1;
nodes = (
"151 -7 OFFCURVE",
"180 29 OFFCURVE",
"180 88 CURVE SMOOTH",
"180 147 OFFCURVE",
"151 184 OFFCURVE",
"105 184 CURVE SMOOTH",
"59 184 OFFCURVE",
"29 147 OFFCURVE",
"29 88 CURVE SMOOTH",
"29 28 OFFCURVE",
"57 -7 OFFCURVE",
"104 -7 CURVE SMOOTH"
);
},
{
closed = 1;
nodes = (
"84 38 OFFCURVE",
"74 56 OFFCURVE",
"74 88 CURVE SMOOTH",
"74 120 OFFCURVE",
"84 138 OFFCURVE",
"102 138 CURVE SMOOTH",
"120 138 OFFCURVE",
"130 120 OFFCURVE",
"130 88 CURVE SMOOTH",
"130 56 OFFCURVE",
"120 38 OFFCURVE",
"102 38 CURVE SMOOTH"
);
}
);
width = 437;
}
);
leftKerningGroup = "khoRakhang-thai";
rightMetricsKey = "boBaimai-thai";
unicode = 0E06;
},
{
glyphname = "khoRakhang_macronbelowcomb-thai";
lastChange = "2022-09-01 04:16:00 +0000";
layers = (
{
anchors = (
{
name = bottom;
position = "{502, -100}";
}
);
components = (
{
name = "khoRakhang-thai";
}
);
layerId = "90A34054-68E4-499D-AE50-276C7B026D8B";
paths = (
{
closed = 1;
nodes = (
"502 -100 LINE",
"502 -77 LINE",
"62 -77 LINE",
"62 -100 LINE"
);
}
);
width = 602;
},
{
anchors = (
{
name = bottom;
position = "{598, -219}";
}
);
components = (
{
name = "khoRakhang-thai";
}
);
layerId = "EB3A5D6C-8260-43A6-9EF2-63971FC08D48";
paths = (
{
closed = 1;
nodes = (
"598 -219 LINE",
"598 -77 LINE",
"44 -77 LINE",
"44 -219 LINE"
);
}
);
width = 672;
},
{
anchors = (
{
name = bottom;
position = "{541, -147}";
}
);
components = (
{
alignment = -1;
name = "khoRakhang-thai";
}
);
hints = (
{
horizontal = 1;
origin = "{0, 3}";
target = "{0, 2}";
type = Stem;
}
);
layerId = "9148514D-BEB8-4275-B264-8F51401A425F";
paths = (
{
closed = 1;
nodes = (
"541 -147 LINE",
"541 -76 LINE",
"55 -76 LINE",
"55 -147 LINE"
);
}
);
width = 630;
},
{
anchors = (
{
name = bottom;
position = "{326, -100}";
}
);
components = (
{
name = "khoRakhang-thai";
}
);
layerId = "54E3FB14-E6D2-4DF3-BA4A-5621168F9335";
paths = (
{
closed = 1;
nodes = (
"326 -100 LINE",
"326 -77 LINE",
"39 -77 LINE",
"39 -100 LINE"
);
}
);
width = 388;
},
{
anchors = (
{
name = bottom;
position = "{466, -219}";
}
);
components = (
{
name = "khoRakhang-thai";
}
);
layerId = "E703E12A-5DA7-48FA-B69F-BB282FBD8E56";
paths = (
{
closed = 1;
nodes = (
"466 -219 LINE",
"466 -77 LINE",
"31 -77 LINE",
"31 -219 LINE"
);
}
);
width = 514;
},
{
anchors = (
{
name = bottom;
position = "{381, -147}";
}
);
components = (
{
alignment = -1;
name = "khoRakhang-thai";
}
);
layerId = "94F80E8F-7C96-497F-B870-569C37B7A2A5";
paths = (
{
closed = 1;
nodes = (
"381 -147 LINE",
"381 -77 LINE",
"38 -77 LINE",
"38 -147 LINE"
);
}
);
width = 437;
}
);
leftKerningGroup = "khoRakhang-thai";
leftMetricsKey = "khoRakhang-thai";
rightMetricsKey = "boBaimai-thai";
script = thai;
category = Letter;
subCategory = Other;
},
{
glyphname = "ngoNgu-thai";
lastChange = "2022-09-01 04:16:00 +0000";
layers = (
{
anchors = (
{
name = bottom;
position = "{506, 0}";
},
{
name = top;
position = "{506, 563}";
}
);
layerId = "EB3A5D6C-8260-43A6-9EF2-63971FC08D48";
paths = (
{
closed = 1;
nodes = (
"353 0 LINE SMOOTH",
"443 0 OFFCURVE",
"506 68 OFFCURVE",
"506 164 CURVE SMOOTH",
"506 454 LINE SMOOTH",
"506 528 OFFCURVE",
"455 573 OFFCURVE",
"371 573 CURVE SMOOTH",
"287 573 OFFCURVE",
"233 527 OFFCURVE",
"233 454 CURVE SMOOTH",
"233 384 OFFCURVE",
"284 335 OFFCURVE",
"356 335 CURVE SMOOTH",
"420 335 OFFCURVE",
"459 371 OFFCURVE",
"459 431 CURVE",
"441 431 LINE",
"438 384 OFFCURVE",
"399 358 OFFCURVE",
"332 358 CURVE",
"322 326 OFFCURVE",
"320 311 OFFCURVE",
"320 287 CURVE SMOOTH",
"320 173 LINE SMOOTH",
"320 141 OFFCURVE",
"311 130 OFFCURVE",
"284 130 CURVE SMOOTH",
"223 130 LINE",
"279 101 LINE",
"195 409 LINE",
"9 409 LINE",
"127 0 LINE"
);
},
{
closed = 1;
nodes = (
"338 415 OFFCURVE",
"322 429 OFFCURVE",
"322 454 CURVE SMOOTH",
"322 479 OFFCURVE",
"338 493 OFFCURVE",
"364 493 CURVE SMOOTH",
"390 493 OFFCURVE",
"406 479 OFFCURVE",
"406 454 CURVE SMOOTH",
"406 429 OFFCURVE",
"390 415 OFFCURVE",
"364 415 CURVE SMOOTH"
);
}
);
width = 576;
},
{
anchors = (
{
name = bottom;
position = "{389, 0}";
},
{
name = top;
position = "{389, 550}";
}
);
layerId = "90A34054-68E4-499D-AE50-276C7B026D8B";
paths = (
{
closed = 1;
nodes = (
"275 0 LINE SMOOTH",
"353 0 OFFCURVE",
"389 36 OFFCURVE",
"389 115 CURVE SMOOTH",
"389 474 LINE SMOOTH",
"389 522 OFFCURVE",
"357 554 OFFCURVE",
"308 554 CURVE SMOOTH",
"259 554 OFFCURVE",
"227 522 OFFCURVE",
"227 474 CURVE SMOOTH",
"227 426 OFFCURVE",
"259 394 OFFCURVE",
"308 394 CURVE SMOOTH",
"352 394 OFFCURVE",
"377 423 OFFCURVE",
"377 474 CURVE",
"373 474 LINE",
"373 457 OFFCURVE",
"371 445 OFFCURVE",
"367 437 CURVE",
"365 424 OFFCURVE",
"364 410 OFFCURVE",
"364 383 CURVE SMOOTH",
"364 116 LINE SMOOTH",
"364 52 OFFCURVE",
"337 23 OFFCURVE",
"278 23 CURVE SMOOTH",
"200 23 LINE",
"215 12 LINE",
"66 409 LINE",
"39 409 LINE",
"193 0 LINE"
);
},
{
closed = 1;
nodes = (
"273 416 OFFCURVE",
"251 439 OFFCURVE",
"251 474 CURVE SMOOTH",
"251 509 OFFCURVE",
"273 532 OFFCURVE",
"308 532 CURVE SMOOTH",
"343 532 OFFCURVE",
"365 509 OFFCURVE",
"365 474 CURVE SMOOTH",
"365 439 OFFCURVE",
"343 416 OFFCURVE",
"308 416 CURVE SMOOTH"
);
}
);
width = 481;
},
{
anchors = (
{
name = bottom;
position = "{436, 0}";
},
{
name = top;
position = "{436, 555}";
}
);
hints = (
{
origin = "{0, 24}";
target = "{0, 3}";
type = Stem;
},
{
horizontal = 1;
origin = "{0, 7}";
target = "{1, 5}";
type = Stem;
},
{
horizontal = 1;
origin = "{0, 32}";
target = "{0, 27}";
type = Stem;
}
);
layerId = "9148514D-BEB8-4275-B264-8F51401A425F";
paths = (
{
closed = 1;
nodes = (
"306 0 LINE SMOOTH",
"389 0 OFFCURVE",
"436 49 OFFCURVE",
"436 135 CURVE SMOOTH",
"436 466 LINE SMOOTH",
"436 524 OFFCURVE",
"396 562 OFFCURVE",
"333 562 CURVE SMOOTH",
"270 562 OFFCURVE",
"229 524 OFFCURVE",
"229 466 CURVE SMOOTH",
"229 409 OFFCURVE",
"269 370 OFFCURVE",
"327 370 CURVE SMOOTH",
"379 370 OFFCURVE",
"410 403 OFFCURVE",
"410 457 CURVE",
"400 457 LINE",
"399 428 OFFCURVE",
"383 410 OFFCURVE",
"353 405 CURVE",
"348 383 OFFCURVE",
"346 366 OFFCURVE",
"346 344 CURVE SMOOTH",
"346 139 LINE SMOOTH",
"346 88 OFFCURVE",
"326 66 OFFCURVE",
"280 66 CURVE SMOOTH",
"209 66 LINE",
"239 48 LINE",
"116 409 LINE",
"27 409 LINE",
"166 0 LINE"
);
},
{
closed = 1;
nodes = (
"303 423 OFFCURVE",
"287 439 OFFCURVE",
"287 466 CURVE SMOOTH",
"287 493 OFFCURVE",
"303 509 OFFCURVE",
"331 509 CURVE SMOOTH",
"359 509 OFFCURVE",
"375 493 OFFCURVE",
"375 466 CURVE SMOOTH",
"375 439 OFFCURVE",
"359 423 OFFCURVE",
"331 423 CURVE SMOOTH"
);
}
);
width = 519;
},
{
anchors = (
{
name = bottom;
position = "{255, 0}";
},
{
name = top;
position = "{255, 550}";
}
);
layerId = "54E3FB14-E6D2-4DF3-BA4A-5621168F9335";
paths = (
{
closed = 1;
nodes = (
"180 0 LINE SMOOTH",
"234 0 OFFCURVE",
"255 33 OFFCURVE",
"255 115 CURVE SMOOTH",
"255 474 LINE SMOOTH",
"255 525 OFFCURVE",
"235 554 OFFCURVE",
"200 554 CURVE SMOOTH",
"165 554 OFFCURVE",
"145 525 OFFCURVE",
"145 474 CURVE SMOOTH",
"145 425 OFFCURVE",
"165 394 OFFCURVE",
"197 394 CURVE SMOOTH",
"226 394 OFFCURVE",
"242 422 OFFCURVE",
"242 474 CURVE",
"239 474 LINE",
"239 459 OFFCURVE",
"237 445 OFFCURVE",
"234 437 CURVE",
"231 421 OFFCURVE",
"230 403 OFFCURVE",
"230 383 CURVE SMOOTH",
"230 116 LINE SMOOTH",
"230 47 OFFCURVE",
"217 23 OFFCURVE",
"178 23 CURVE SMOOTH",
"129 23 LINE",
"141 12 LINE",
"49 409 LINE",
"23 409 LINE",
"119 0 LINE"
);
},
{
closed = 1;
nodes = (
"179 416 OFFCURVE",
"168 437 OFFCURVE",
"168 474 CURVE SMOOTH",
"168 511 OFFCURVE",
"179 532 OFFCURVE",
"199 532 CURVE SMOOTH",
"219 532 OFFCURVE",
"230 511 OFFCURVE",
"230 474 CURVE SMOOTH",
"230 437 OFFCURVE",
"219 416 OFFCURVE",
"199 416 CURVE SMOOTH"
);
}
);
width = 313;
},
{
anchors = (
{
name = bottom;
position = "{392, 0}";
},
{
name = top;
position = "{392, 563}";
}
);
layerId = "E703E12A-5DA7-48FA-B69F-BB282FBD8E56";
paths = (
{
closed = 1;
nodes = (
"243 0 LINE SMOOTH",
"336 0 OFFCURVE",
"392 58 OFFCURVE",
"392 154 CURVE SMOOTH",
"392 454 LINE SMOOTH",
"392 527 OFFCURVE",
"351 573 OFFCURVE",
"285 573 CURVE SMOOTH",
"219 573 OFFCURVE",
"176 526 OFFCURVE",
"176 454 CURVE SMOOTH",
"176 385 OFFCURVE",
"216 335 OFFCURVE",
"272 335 CURVE SMOOTH",
"322 335 OFFCURVE",
"353 372 OFFCURVE",
"353 431 CURVE",
"338 431 LINE",
"335 384 OFFCURVE",
"303 358 OFFCURVE",
"246 358 CURVE",
"238 329 OFFCURVE",
"236 311 OFFCURVE",
"236 287 CURVE SMOOTH",
"236 173 LINE SMOOTH",
"236 139 OFFCURVE",
"229 130 OFFCURVE",
"204 130 CURVE SMOOTH",
"170 130 LINE",
"216 101 LINE",
"160 409 LINE",
"4 409 LINE",
"89 0 LINE"
);
},
{
closed = 1;
nodes = (
"260 415 OFFCURVE",
"248 430 OFFCURVE",
"248 454 CURVE SMOOTH",
"248 478 OFFCURVE",
"260 493 OFFCURVE",
"279 493 CURVE SMOOTH",
"298 493 OFFCURVE",
"310 478 OFFCURVE",
"310 454 CURVE SMOOTH",
"310 430 OFFCURVE",
"298 415 OFFCURVE",
"279 415 CURVE SMOOTH"
);
}
);
width = 434;
},
{
anchors = (
{
name = bottom;
position = "{309, 0}";
},
{
name = top;
position = "{309, 555}";
}
);
layerId = "94F80E8F-7C96-497F-B870-569C37B7A2A5";
paths = (
{
closed = 1;
nodes = (
"217 0 LINE SMOOTH",
"276 0 OFFCURVE",
"309 48 OFFCURVE",
"309 134 CURVE SMOOTH",
"309 467 LINE SMOOTH",
"309 527 OFFCURVE",
"281 562 OFFCURVE",
"233 562 CURVE SMOOTH",
"186 562 OFFCURVE",
"157 526 OFFCURVE",
"157 467 CURVE SMOOTH",
"157 410 OFFCURVE",
"185 372 OFFCURVE",
"227 372 CURVE SMOOTH",
"264 372 OFFCURVE",
"286 404 OFFCURVE",
"286 458 CURVE",
"278 458 LINE",
"277 425 OFFCURVE",
"260 393 OFFCURVE",
"239 386 CURVE",
"234 375 OFFCURVE",
"232 366 OFFCURVE",
"232 346 CURVE SMOOTH",
"232 138 LINE SMOOTH",
"232 83 OFFCURVE",
"222 65 OFFCURVE",
"192 65 CURVE SMOOTH",
"145 65 LINE",
"171 47 LINE",
"93 409 LINE",
"16 409 LINE",
"107 0 LINE"
);
},
{
closed = 1;
nodes = (
"213 417 OFFCURVE",
"203 435 OFFCURVE",
"203 467 CURVE SMOOTH",
"203 499 OFFCURVE",
"213 517 OFFCURVE",
"231 517 CURVE SMOOTH",
"249 517 OFFCURVE",
"259 499 OFFCURVE",
"259 467 CURVE SMOOTH",
"259 435 OFFCURVE",
"249 417 OFFCURVE",
"231 417 CURVE SMOOTH"
);
}
);
width = 361;
}
);
leftKerningGroup = "ngoNgu-thai";
note = "\012uni0E07\012";
rightKerningGroup = "ngoNgu-thai";
unicode = 0E07;
},
{
glyphname = "ngoNgu_macronbelowcomb-thai";
lastChange = "2022-09-01 04:16:00 +0000";
layers = (
{
anchors = (
{
name = bottom;
position = "{389, -100}";
}
);
components = (
{
name = "ngoNgu-thai";
}
);
layerId = "90A34054-68E4-499D-AE50-276C7B026D8B";
paths = (
{
closed = 1;
nodes = (
"389 -100 LINE",
"389 -77 LINE",
"94 -77 LINE",
"94 -100 LINE"
);
}
);
width = 481;
},
{
anchors = (
{
name = bottom;
position = "{506, -219}";
}
);
components = (
{
name = "ngoNgu-thai";
}
);
layerId = "EB3A5D6C-8260-43A6-9EF2-63971FC08D48";
paths = (
{
closed = 1;
nodes = (
"506 -219 LINE",
"506 -77 LINE",
"66 -77 LINE",
"66 -219 LINE"
);
}
);
width = 576;
},
{
anchors = (
{
name = bottom;
position = "{436, -147}";
}
);
components = (
{
alignment = -1;
name = "ngoNgu-thai";
}
);
hints = (
{
horizontal = 1;
origin = "{0, 3}";
target = "{0, 2}";
type = Stem;
}
);
layerId = "9148514D-BEB8-4275-B264-8F51401A425F";
paths = (
{
closed = 1;
nodes = (
"436 -147 LINE",
"436 -76 LINE",
"83 -76 LINE",
"83 -147 LINE"
);
}
);
width = 519;
},
{
anchors = (
{
name = bottom;
position = "{255, -100}";
}
);
components = (
{
name = "ngoNgu-thai";
}
);
layerId = "54E3FB14-E6D2-4DF3-BA4A-5621168F9335";
paths = (
{
closed = 1;
nodes = (
"255 -100 LINE",
"255 -77 LINE",
"59 -77 LINE",
"59 -100 LINE"
);
}
);
width = 313;
},
{
anchors = (
{
name = bottom;
position = "{392, -219}";
}
);
components = (
{
name = "ngoNgu-thai";
}
);
layerId = "E703E12A-5DA7-48FA-B69F-BB282FBD8E56";
paths = (
{
closed = 1;
nodes = (
"392 -219 LINE",
"392 -77 LINE",
"47 -77 LINE",
"47 -219 LINE"
);
}
);
width = 434;
},
{
anchors = (
{
name = bottom;
position = "{309, -147}";
}
);
components = (
{
alignment = -1;
name = "ngoNgu-thai";
}
);
layerId = "94F80E8F-7C96-497F-B870-569C37B7A2A5";
paths = (
{
closed = 1;
nodes = (
"309 -147 LINE",
"309 -77 LINE",
"53 -77 LINE",
"53 -147 LINE"
);
}
);
width = 361;
}
);
leftKerningGroup = "ngoNgu-thai";
leftMetricsKey = "ngoNgu-thai";
rightKerningGroup = "ngoNgu-thai";
rightMetricsKey = "ngoNgu-thai";
script = thai;
category = Letter;
subCategory = Other;
},
{
glyphname = "choChan-thai";
lastChange = "2022-09-01 22:34:20 +0000";
layers = (
{
anchors = (
{
name = bottom;
position = "{527, 0}";
},
{
name = top;
position = "{527, 563}";
}
);
layerId = "EB3A5D6C-8260-43A6-9EF2-63971FC08D48";
paths = (
{
closed = 1;
nodes = (
"296 0 LINE SMOOTH",
"461 0 OFFCURVE",
"547 97 OFFCURVE",
"547 283 CURVE SMOOTH",
"547 471 OFFCURVE",
"439 578 OFFCURVE",
"251 578 CURVE SMOOTH",
"185 578 OFFCURVE",
"93 560 OFFCURVE",
"31 534 CURVE",
"31 392 LINE",
"102 425 OFFCURVE",
"158 440 OFFCURVE",
"213 440 CURVE SMOOTH",
"313 440 OFFCURVE",
"361 389 OFFCURVE",
"361 283 CURVE SMOOTH",
"361 157 OFFCURVE",
"346 123 OFFCURVE",
"289 123 CURVE SMOOTH",
"261 123 LINE",
"295 91 LINE",
"295 246 LINE SMOOTH",
"295 336 OFFCURVE",
"247 386 OFFCURVE",
"160 386 CURVE SMOOTH",
"83 386 OFFCURVE",
"31 343 OFFCURVE",
"31 280 CURVE SMOOTH",
"31 216 OFFCURVE",
"72 175 OFFCURVE",
"136 175 CURVE SMOOTH",
"203 175 OFFCURVE",
"231 196 OFFCURVE",
"249 259 CURVE",
"223 282 LINE",
"223 241 OFFCURVE",
"187 211 OFFCURVE",
"139 211 CURVE",
"132 192 OFFCURVE",
"129 166 OFFCURVE",
"129 120 CURVE SMOOTH",
"129 0 LINE"
);
},
{
closed = 1;
nodes = (
"128 242 OFFCURVE",
"113 256 OFFCURVE",
"113 279 CURVE SMOOTH",
"113 302 OFFCURVE",
"128 316 OFFCURVE",
"153 316 CURVE SMOOTH",
"178 316 OFFCURVE",
"193 302 OFFCURVE",
"193 279 CURVE SMOOTH",
"193 256 OFFCURVE",
"178 242 OFFCURVE",
"153 242 CURVE SMOOTH"
);
}
);
width = 591;
},
{
anchors = (
{
name = bottom;
position = "{427, 0}";
},
{
name = top;
position = "{427, 550}";
}
);
layerId = "90A34054-68E4-499D-AE50-276C7B026D8B";
paths = (
{
closed = 1;
nodes = (
"236 0 LINE SMOOTH",
"357 0 OFFCURVE",
"437 108 OFFCURVE",
"437 272 CURVE SMOOTH",
"437 457 OFFCURVE",
"352 558 OFFCURVE",
"195 558 CURVE SMOOTH",
"132 558 OFFCURVE",
"74 544 OFFCURVE",
"32 519 CURVE",
"32 493 LINE",
"80 521 OFFCURVE",
"136 535 OFFCURVE",
"194 535 CURVE SMOOTH",
"334 535 OFFCURVE",
"412 441 OFFCURVE",
"412 272 CURVE SMOOTH",
"412 126 OFFCURVE",
"340 22 OFFCURVE",
"239 22 CURVE SMOOTH",
"206 22 LINE",
"216 9 LINE",
"216 286 LINE SMOOTH",
"216 334 OFFCURVE",
"184 366 OFFCURVE",
"135 366 CURVE SMOOTH",
"86 366 OFFCURVE",
"54 334 OFFCURVE",
"54 286 CURVE SMOOTH",
"54 238 OFFCURVE",
"86 206 OFFCURVE",
"135 206 CURVE SMOOTH",
"179 206 OFFCURVE",
"205 235 OFFCURVE",
"205 286 CURVE",
"200 286 LINE",
"200 269 OFFCURVE",
"199 257 OFFCURVE",
"194 249 CURVE",
"192 236 OFFCURVE",
"191 222 OFFCURVE",
"191 195 CURVE SMOOTH",
"191 0 LINE"
);
},
{
closed = 1;
nodes = (
"100 228 OFFCURVE",
"78 251 OFFCURVE",
"78 286 CURVE SMOOTH",
"78 321 OFFCURVE",
"100 344 OFFCURVE",
"135 344 CURVE SMOOTH",
"170 344 OFFCURVE",
"192 321 OFFCURVE",
"192 286 CURVE SMOOTH",
"192 251 OFFCURVE",
"170 228 OFFCURVE",
"135 228 CURVE SMOOTH"
);
}
);
width = 500;
},
{
anchors = (
{
name = bottom;
position = "{465, 0}";
},
{
name = top;
position = "{465, 555}";
}
);
hints = (
{
origin = "{0, 16}";
target = "{0, 3}";
type = Stem;
},
{
horizontal = 1;
origin = "{0, 42}";
target = "{0, 19}";
type = Stem;
},
{
horizontal = 1;
origin = "{0, 6}";
target = "{0, 13}";
type = Stem;
},
{
origin = "{0, 42}";
target = "{0, 22}";
type = Stem;
}
);
layerId = "9148514D-BEB8-4275-B264-8F51401A425F";
paths = (
{
closed = 1;
nodes = (
"260 0 LINE SMOOTH",
"399 0 OFFCURVE",
"481 103 OFFCURVE",
"481 277 CURVE SMOOTH",
"481 462 OFFCURVE",
"384 566 OFFCURVE",
"212 566 CURVE SMOOTH",
"149 566 OFFCURVE",
"83 551 OFFCURVE",
"32 525 CURVE",
"32 452 LINE",
"92 483 OFFCURVE",
"147 498 OFFCURVE",
"202 498 CURVE SMOOTH",
"325 498 OFFCURVE",
"391 420 OFFCURVE",
"391 276 CURVE SMOOTH",
"391 141 OFFCURVE",
"343 63 OFFCURVE",
"259 63 CURVE SMOOTH",
"228 63 LINE",
"248 42 LINE",
"248 278 LINE SMOOTH",
"248 338 OFFCURVE",
"209 374 OFFCURVE",
"145 374 CURVE SMOOTH",
"85 374 OFFCURVE",
"45 338 OFFCURVE",
"45 284 CURVE SMOOTH",
"45 229 OFFCURVE",
"82 193 OFFCURVE",
"138 193 CURVE SMOOTH",
"188 193 OFFCURVE",
"222 226 OFFCURVE",
"222 275 CURVE",
"209 284 LINE",
"207 250 OFFCURVE",
"196 232 OFFCURVE",
"172 224 CURVE",
"168 206 OFFCURVE",
"166 191 OFFCURVE",
"166 165 CURVE SMOOTH",
"166 0 LINE"
);
},
{
closed = 1;
nodes = (
"114 240 OFFCURVE",
"98 256 OFFCURVE",
"98 284 CURVE SMOOTH",
"98 310 OFFCURVE",
"114 326 OFFCURVE",
"142 326 CURVE SMOOTH",
"170 326 OFFCURVE",
"186 310 OFFCURVE",
"186 283 CURVE SMOOTH",
"186 256 OFFCURVE",
"170 240 OFFCURVE",
"142 240 CURVE SMOOTH"
);
}
);
width = 537;
},
{
anchors = (
{
name = bottom;
position = "{277, 0}";
},
{
name = top;
position = "{277, 550}";
}
);
layerId = "54E3FB14-E6D2-4DF3-BA4A-5621168F9335";
paths = (
{
closed = 1;
nodes = (
"154 0 LINE SMOOTH",
"234 0 OFFCURVE",
"285 106 OFFCURVE",
"285 272 CURVE SMOOTH",
"285 475 OFFCURVE",
"239 558 OFFCURVE",
"127 558 CURVE SMOOTH",
"88 558 OFFCURVE",
"50 548 OFFCURVE",
"20 531 CURVE",
"20 503 LINE",
"53 524 OFFCURVE",
"89 535 OFFCURVE",
"125 535 CURVE SMOOTH",
"222 535 OFFCURVE",
"260 460 OFFCURVE",
"260 272 CURVE SMOOTH",
"260 125 OFFCURVE",
"217 22 OFFCURVE",
"155 22 CURVE SMOOTH",
"134 22 LINE",
"142 9 LINE",
"142 286 LINE SMOOTH",
"142 337 OFFCURVE",
"122 366 OFFCURVE",
"87 366 CURVE SMOOTH",
"52 366 OFFCURVE",
"32 337 OFFCURVE",
"32 286 CURVE SMOOTH",
"32 237 OFFCURVE",
"52 206 OFFCURVE",
"84 206 CURVE SMOOTH",
"113 206 OFFCURVE",
"130 234 OFFCURVE",
"130 286 CURVE",
"126 286 LINE",
"126 271 OFFCURVE",
"124 257 OFFCURVE",
"121 249 CURVE",
"118 234 OFFCURVE",
"117 217 OFFCURVE",
"117 195 CURVE SMOOTH",
"117 0 LINE"
);
},
{
closed = 1;
nodes = (
"66 228 OFFCURVE",
"55 249 OFFCURVE",
"55 286 CURVE SMOOTH",
"55 323 OFFCURVE",
"66 344 OFFCURVE",
"86 344 CURVE SMOOTH",
"106 344 OFFCURVE",
"117 323 OFFCURVE",
"117 286 CURVE SMOOTH",
"117 249 OFFCURVE",
"106 228 OFFCURVE",
"86 228 CURVE SMOOTH"
);
}
);
width = 324;
},
{
anchors = (
{
name = bottom;
position = "{404, 0}";
},
{
name = top;
position = "{404, 563}";
}
);
layerId = "E703E12A-5DA7-48FA-B69F-BB282FBD8E56";
paths = (
{
closed = 1;
nodes = (
"228 0 LINE SMOOTH",
"357 0 OFFCURVE",
"422 95 OFFCURVE",
"422 283 CURVE SMOOTH",
"422 471 OFFCURVE",
"339 578 OFFCURVE",
"195 578 CURVE SMOOTH",
"131 578 OFFCURVE",
"63 562 OFFCURVE",
"23 538 CURVE",
"23 398 LINE",
"72 427 OFFCURVE",
"113 440 OFFCURVE",
"153 440 CURVE SMOOTH",
"230 440 OFFCURVE",
"266 390 OFFCURVE",
"266 283 CURVE SMOOTH",
"266 149 OFFCURVE",
"257 123 OFFCURVE",
"212 123 CURVE SMOOTH",
"202 123 LINE",
"229 91 LINE",
"229 259 LINE SMOOTH",
"229 345 OFFCURVE",
"195 386 OFFCURVE",
"123 386 CURVE SMOOTH",
"63 386 OFFCURVE",
"21 343 OFFCURVE",
"21 280 CURVE SMOOTH",
"21 216 OFFCURVE",
"52 175 OFFCURVE",
"102 175 CURVE SMOOTH",
"154 175 OFFCURVE",
"175 195 OFFCURVE",
"192 259 CURVE",
"170 282 LINE",
"170 240 OFFCURVE",
"136 201 OFFCURVE",
"99 201 CURVE",
"93 183 OFFCURVE",
"91 163 OFFCURVE",
"91 120 CURVE SMOOTH",
"91 0 LINE"
);
},
{
closed = 1;
nodes = (
"99 242 OFFCURVE",
"87 256 OFFCURVE",
"87 279 CURVE SMOOTH",
"87 302 OFFCURVE",
"99 316 OFFCURVE",
"117 316 CURVE SMOOTH",
"135 316 OFFCURVE",
"147 302 OFFCURVE",
"147 279 CURVE SMOOTH",
"147 256 OFFCURVE",
"135 242 OFFCURVE",
"117 242 CURVE SMOOTH"
);
}
);
width = 443;
},
{
anchors = (
{
name = bottom;
position = "{327, 0}";
},
{
name = top;
position = "{327, 555}";
}
);
layerId = "94F80E8F-7C96-497F-B870-569C37B7A2A5";
paths = (
{
closed = 1;
nodes = (
"183 0 LINE SMOOTH",
"283 0 OFFCURVE",
"339 100 OFFCURVE",
"339 276 CURVE SMOOTH",
"339 472 OFFCURVE",
"279 566 OFFCURVE",
"154 566 CURVE SMOOTH",
"110 566 OFFCURVE",
"58 553 OFFCURVE",
"21 532 CURVE",
"21 460 LINE",
"64 487 OFFCURVE",
"102 499 OFFCURVE",
"140 499 CURVE SMOOTH",
"225 499 OFFCURVE",
"262 432 OFFCURVE",
"262 276 CURVE SMOOTH",
"262 137 OFFCURVE",
"234 62 OFFCURVE",
"181 62 CURVE SMOOTH",
"161 62 LINE",
"179 41 LINE",
"179 270 LINE SMOOTH",
"179 336 OFFCURVE",
"151 374 OFFCURVE",
"102 374 CURVE SMOOTH",
"57 374 OFFCURVE",
"28 339 OFFCURVE",
"28 284 CURVE SMOOTH",
"28 229 OFFCURVE",
"52 194 OFFCURVE",
"91 194 CURVE SMOOTH",
"129 194 OFFCURVE",
"148 218 OFFCURVE",
"154 275 CURVE",
"147 278 LINE",
"143 241 OFFCURVE",
"130 217 OFFCURVE",
"110 209 CURVE",
"108 199 OFFCURVE",
"107 188 OFFCURVE",
"107 165 CURVE SMOOTH",
"107 0 LINE"
);
},
{
closed = 1;
nodes = (
"80 233 OFFCURVE",
"70 251 OFFCURVE",
"70 283 CURVE SMOOTH",
"70 315 OFFCURVE",
"80 333 OFFCURVE",
"98 333 CURVE SMOOTH",
"116 333 OFFCURVE",
"126 315 OFFCURVE",
"126 283 CURVE SMOOTH",
"126 251 OFFCURVE",
"116 233 OFFCURVE",
"98 233 CURVE SMOOTH"
);
}
);
width = 371;
}
);
leftKerningGroup = "choChan-thai";
rightKerningGroup = "choChan-thai";
unicode = 0E08;
},
{
glyphname = "choChan_macronbelowcomb-thai";
lastChange = "2022-09-01 04:16:00 +0000";
layers = (
{
anchors = (
{
name = bottom;
position = "{437, -100}";
}
);
components = (
{
name = "choChan-thai";
}
);
layerId = "90A34054-68E4-499D-AE50-276C7B026D8B";
paths = (
{
closed = 1;
nodes = (
"437 -100 LINE",
"437 -77 LINE",
"90 -77 LINE",
"90 -100 LINE"
);
}
);
width = 500;
},
{
anchors = (
{
name = bottom;
position = "{520, -219}";
}
);
components = (
{
name = "choChan-thai";
}
);
layerId = "EB3A5D6C-8260-43A6-9EF2-63971FC08D48";
paths = (
{
closed = 1;
nodes = (
"520 -219 LINE",
"520 -77 LINE",
"46 -77 LINE",
"46 -219 LINE"
);
}
);
width = 591;
},
{
anchors = (
{
name = bottom;
position = "{471, -147}";
}
);
components = (
{
alignment = -1;
name = "choChan-thai";
}
);
hints = (
{
horizontal = 1;
origin = "{0, 3}";
target = "{0, 2}";
type = Stem;
}
);
layerId = "9148514D-BEB8-4275-B264-8F51401A425F";
paths = (
{
closed = 1;
nodes = (
"471 -147 LINE",
"471 -76 LINE",
"72 -76 LINE",
"72 -147 LINE"
);
}
);
width = 537;
},
{
anchors = (
{
name = bottom;
position = "{284, -100}";
}
);
components = (
{
name = "choChan-thai";
}
);
layerId = "54E3FB14-E6D2-4DF3-BA4A-5621168F9335";
paths = (
{
closed = 1;
nodes = (
"284 -100 LINE",
"284 -77 LINE",
"55 -77 LINE",
"55 -100 LINE"
);
}
);
width = 324;
},
{
anchors = (
{
name = bottom;
position = "{398, -219}";
}
);
components = (
{
name = "choChan-thai";
}
);
layerId = "E703E12A-5DA7-48FA-B69F-BB282FBD8E56";
paths = (
{
closed = 1;
nodes = (
"398 -219 LINE",
"398 -77 LINE",
"30 -77 LINE",
"30 -219 LINE"
);
}
);
width = 443;
},
{
anchors = (
{
name = bottom;
position = "{333, -147}";
}
);
components = (
{
alignment = -1;
name = "choChan-thai";
}
);
layerId = "94F80E8F-7C96-497F-B870-569C37B7A2A5";
paths = (
{
closed = 1;
nodes = (
"333 -147 LINE",
"333 -77 LINE",
"45 -77 LINE",
"45 -147 LINE"
);
}
);
width = 371;
}
);
leftKerningGroup = "choChan-thai";
leftMetricsKey = "choChan-thai";
rightKerningGroup = "choChan-thai";
rightMetricsKey = "choChan-thai";
script = thai;
category = Letter;
subCategory = Other;
},
{
glyphname = "choChing-thai";
lastChange = "2022-09-01 04:16:00 +0000";
layers = (
{
anchors = (
{
name = bottom;
position = "{594, 0}";
},
{
name = top;
position = "{584, 563}";
}
);
layerId = "EB3A5D6C-8260-43A6-9EF2-63971FC08D48";
paths = (
{
closed = 1;
nodes = (
"301 0 LINE",
"322 62 OFFCURVE",
"355 93 OFFCURVE",
"465 158 CURVE",
"483 174 LINE",
"574 222 OFFCURVE",
"594 245 OFFCURVE",
"594 301 CURVE SMOOTH",
"594 379 LINE SMOOTH",
"594 504 OFFCURVE",
"486 578 OFFCURVE",
"304 578 CURVE SMOOTH",
"216 578 OFFCURVE",
"115 560 OFFCURVE",
"49 534 CURVE",
"49 392 LINE",
"137 426 OFFCURVE",
"202 440 OFFCURVE",
"267 440 CURVE SMOOTH",
"367 440 OFFCURVE",
"408 415 OFFCURVE",
"408 355 CURVE SMOOTH",
"408 282 LINE SMOOTH",
"408 245 OFFCURVE",
"404 236 OFFCURVE",
"377 221 CURVE SMOOTH",
"343 202 OFFCURVE",
"324 184 OFFCURVE",
"309 158 CURVE",
"305 158 LINE",
"308 189 OFFCURVE",
"309 213 OFFCURVE",
"309 246 CURVE SMOOTH",
"309 260 LINE SMOOTH",
"309 334 OFFCURVE",
"258 379 OFFCURVE",
"174 379 CURVE SMOOTH",
"90 379 OFFCURVE",
"36 333 OFFCURVE",
"36 260 CURVE SMOOTH",
"36 190 OFFCURVE",
"87 141 OFFCURVE",
"159 141 CURVE SMOOTH",
"223 141 OFFCURVE",
"262 177 OFFCURVE",
"262 237 CURVE",
"244 237 LINE",
"241 190 OFFCURVE",
"202 164 OFFCURVE",
"135 164 CURVE",
"125 132 OFFCURVE",
"123 117 OFFCURVE",
"123 93 CURVE SMOOTH",
"123 0 LINE"
);
},
{
closed = 1;
nodes = (
"141 221 OFFCURVE",
"125 235 OFFCURVE",
"125 260 CURVE SMOOTH",
"125 285 OFFCURVE",
"141 299 OFFCURVE",
"167 299 CURVE SMOOTH",
"193 299 OFFCURVE",
"209 285 OFFCURVE",
"209 260 CURVE SMOOTH",
"209 235 OFFCURVE",
"193 221 OFFCURVE",
"167 221 CURVE SMOOTH"
);
},
{
closed = 1;
nodes = (
"577 -10 OFFCURVE",
"630 38 OFFCURVE",
"630 108 CURVE SMOOTH",
"630 178 OFFCURVE",
"577 226 OFFCURVE",
"500 226 CURVE SMOOTH",
"423 226 OFFCURVE",
"370 178 OFFCURVE",
"370 108 CURVE SMOOTH",
"370 38 OFFCURVE",
"423 -10 OFFCURVE",
"500 -10 CURVE SMOOTH"
);
},
{
closed = 1;
nodes = (
"474 70 OFFCURVE",
"458 84 OFFCURVE",
"458 109 CURVE SMOOTH",
"458 134 OFFCURVE",
"474 148 OFFCURVE",
"500 148 CURVE SMOOTH",
"526 148 OFFCURVE",
"542 134 OFFCURVE",
"542 109 CURVE SMOOTH",
"542 84 OFFCURVE",
"526 70 OFFCURVE",
"500 70 CURVE SMOOTH"
);
}
);
userData = {
com.schriftgestaltung.Glyphs.glyph.rightMetricsKey = "khoKhwai-thai";
};
width = 673;
},
{
anchors = (
{
name = bottom;
position = "{488, 0}";
},
{
name = top;
position = "{478, 550}";
}
);
layerId = "90A34054-68E4-499D-AE50-276C7B026D8B";
paths = (
{
closed = 1;
nodes = (
"199 0 LINE",
"242 41 OFFCURVE",
"300 77 OFFCURVE",
"401 126 CURVE",
"412 141 LINE",
"475 161 OFFCURVE",
"488 178 OFFCURVE",
"488 242 CURVE SMOOTH",
"488 372 LINE SMOOTH",
"488 495 OFFCURVE",
"417 558 OFFCURVE",
"279 558 CURVE SMOOTH",
"200 558 OFFCURVE",
"119 536 OFFCURVE",
"60 497 CURVE",
"60 469 LINE",
"125 512 OFFCURVE",
"201 535 OFFCURVE",
"277 535 CURVE SMOOTH",
"401 535 OFFCURVE",
"463 479 OFFCURVE",
"463 367 CURVE SMOOTH",
"463 242 LINE SMOOTH",
"463 185 OFFCURVE",
"450 169 OFFCURVE",
"378 138 CURVE SMOOTH",
"314 111 OFFCURVE",
"235 63 OFFCURVE",
"205 34 CURVE",
"202 34 LINE",
"202 87 OFFCURVE",
"202 133 OFFCURVE",
"202 193 CURVE SMOOTH",
"202 273 LINE SMOOTH",
"202 315 OFFCURVE",
"176 353 OFFCURVE",
"121 353 CURVE SMOOTH",
"72 353 OFFCURVE",
"40 321 OFFCURVE",
"40 273 CURVE SMOOTH",
"40 225 OFFCURVE",
"72 193 OFFCURVE",
"121 193 CURVE SMOOTH",
"172 193 OFFCURVE",
"190 231 OFFCURVE",
"190 273 CURVE",
"186 273 LINE",
"186 256 OFFCURVE",
"184 244 OFFCURVE",
"180 236 CURVE",
"177 218 OFFCURVE",
"177 200 OFFCURVE",
"177 182 CURVE SMOOTH",
"177 0 LINE"
);
},
{
closed = 1;
nodes = (
"87 215 OFFCURVE",
"64 239 OFFCURVE",
"64 273 CURVE SMOOTH",
"64 307 OFFCURVE",
"87 331 OFFCURVE",
"121 331 CURVE SMOOTH",
"155 331 OFFCURVE",
"178 307 OFFCURVE",
"178 273 CURVE SMOOTH",
"178 239 OFFCURVE",
"155 215 OFFCURVE",
"121 215 CURVE SMOOTH"
);
},
{
closed = 1;
nodes = (
"497 -5 OFFCURVE",
"531 28 OFFCURVE",
"531 76 CURVE SMOOTH",
"531 123 OFFCURVE",
"498 155 OFFCURVE",
"450 155 CURVE SMOOTH",
"399 155 OFFCURVE",
"363 123 OFFCURVE",
"363 76 CURVE SMOOTH",
"363 28 OFFCURVE",
"397 -5 OFFCURVE",
"447 -5 CURVE SMOOTH"
);
},
{
closed = 1;
nodes = (
"412 17 OFFCURVE",
"387 42 OFFCURVE",
"387 77 CURVE SMOOTH",
"387 112 OFFCURVE",
"412 136 OFFCURVE",
"447 136 CURVE SMOOTH",
"482 136 OFFCURVE",
"507 112 OFFCURVE",
"507 77 CURVE SMOOTH",
"507 42 OFFCURVE",
"482 17 OFFCURVE",
"447 17 CURVE SMOOTH"
);
}
);
width = 590;
},
{
anchors = (
{
name = bottom;
position = "{531, 0}";
},
{
name = top;
position = "{521, 555}";
}
);
hints = (
{
horizontal = 1;
origin = "{0, 53}";
target = up;
type = BottomGhost;
},
{
horizontal = 1;
origin = "{2, 11}";
target = "{3, 11}";
type = Stem;
},
{
origin = "{0, 53}";
target = "{0, 32}";
type = Stem;
},
{
origin = "{0, 22}";
target = "{0, 7}";
type = Stem;
},
{
horizontal = 1;
origin = "{0, 11}";
target = "{0, 18}";
type = Stem;
}
);
layerId = "9148514D-BEB8-4275-B264-8F51401A425F";
paths = (
{
closed = 1;
nodes = (
"240 0 LINE",
"276 49 OFFCURVE",
"323 84 OFFCURVE",
"427 139 CURVE",
"441 154 LINE",
"516 186 OFFCURVE",
"531 205 OFFCURVE",
"531 266 CURVE SMOOTH",
"531 375 LINE SMOOTH",
"531 498 OFFCURVE",
"445 566 OFFCURVE",
"289 566 CURVE SMOOTH",
"204 566 OFFCURVE",
"116 546 OFFCURVE",
"56 512 CURVE",
"56 438 LINE",
"131 478 OFFCURVE",
"202 497 OFFCURVE",
"273 497 CURVE SMOOTH",
"387 497 OFFCURVE",
"441 453 OFFCURVE",
"441 362 CURVE SMOOTH",
"441 258 LINE SMOOTH",
"441 209 OFFCURVE",
"433 197 OFFCURVE",
"378 172 CURVE SMOOTH",
"329 150 OFFCURVE",
"270 110 OFFCURVE",
"247 84 CURVE",
"244 84 LINE",
"245 112 OFFCURVE",
"245 126 OFFCURVE",
"245 224 CURVE SMOOTH",
"245 278 LINE SMOOTH",
"245 336 OFFCURVE",
"205 373 OFFCURVE",
"142 373 CURVE SMOOTH",
"79 373 OFFCURVE",
"38 336 OFFCURVE",
"38 278 CURVE SMOOTH",
"38 221 OFFCURVE",
"78 182 OFFCURVE",
"136 182 CURVE SMOOTH",
"188 182 OFFCURVE",
"219 214 OFFCURVE",
"219 268 CURVE",
"209 268 LINE",
"208 240 OFFCURVE",
"193 222 OFFCURVE",
"165 217 CURVE",
"160 195 OFFCURVE",
"158 178 OFFCURVE",
"158 156 CURVE SMOOTH",
"158 0 LINE"
);
},
{
closed = 1;
nodes = (
"112 234 OFFCURVE",
"96 250 OFFCURVE",
"96 278 CURVE SMOOTH",
"96 304 OFFCURVE",
"112 320 OFFCURVE",
"140 320 CURVE SMOOTH",
"168 320 OFFCURVE",
"184 304 OFFCURVE",
"184 277 CURVE SMOOTH",
"184 250 OFFCURVE",
"168 234 OFFCURVE",
"140 234 CURVE SMOOTH"
);
},
{
closed = 1;
nodes = (
"531 -7 OFFCURVE",
"571 31 OFFCURVE",
"571 89 CURVE SMOOTH",
"571 147 OFFCURVE",
"532 184 OFFCURVE",
"470 184 CURVE SMOOTH",
"407 184 OFFCURVE",
"367 147 OFFCURVE",
"367 89 CURVE SMOOTH",
"367 31 OFFCURVE",
"406 -7 OFFCURVE",
"468 -7 CURVE SMOOTH"
);
},
{
closed = 1;
nodes = (
"441 46 OFFCURVE",
"425 62 OFFCURVE",
"425 89 CURVE SMOOTH",
"425 116 OFFCURVE",
"441 132 OFFCURVE",
"469 132 CURVE SMOOTH",
"497 132 OFFCURVE",
"513 116 OFFCURVE",
"513 89 CURVE SMOOTH",
"513 62 OFFCURVE",
"497 46 OFFCURVE",
"469 46 CURVE SMOOTH"
);
}
);
width = 624;
},
{
anchors = (
{
name = bottom;
position = "{318, 0}";
},
{
name = top;
position = "{312, 550}";
}
);
layerId = "54E3FB14-E6D2-4DF3-BA4A-5621168F9335";
paths = (
{
closed = 1;
nodes = (
"133 0 LINE",
"159 38 OFFCURVE",
"193 70 OFFCURVE",
"260 121 CURVE",
"267 136 LINE",
"309 156 OFFCURVE",
"318 174 OFFCURVE",
"318 237 CURVE SMOOTH",
"318 402 LINE SMOOTH",
"318 506 OFFCURVE",
"272 558 OFFCURVE",
"180 558 CURVE SMOOTH",
"125 558 OFFCURVE",
"75 541 OFFCURVE",
"38 510 CURVE",
"38 479 LINE",
"82 517 OFFCURVE",
"128 535 OFFCURVE",
"178 535 CURVE SMOOTH",
"255 535 OFFCURVE",
"293 490 OFFCURVE",
"293 397 CURVE SMOOTH",
"293 237 LINE SMOOTH",
"293 178 OFFCURVE",
"285 162 OFFCURVE",
"240 132 CURVE SMOOTH",
"203 107 OFFCURVE",
"158 66 OFFCURVE",
"137 38 CURVE",
"135 38 LINE",
"135 96 OFFCURVE",
"135 154 OFFCURVE",
"135 214 CURVE SMOOTH",
"135 286 LINE SMOOTH",
"135 337 OFFCURVE",
"115 366 OFFCURVE",
"80 366 CURVE SMOOTH",
"45 366 OFFCURVE",
"25 337 OFFCURVE",
"25 286 CURVE SMOOTH",
"25 235 OFFCURVE",
"46 206 OFFCURVE",
"77 206 CURVE SMOOTH",
"107 206 OFFCURVE",
"122 235 OFFCURVE",
"122 286 CURVE",
"119 286 LINE",
"119 271 OFFCURVE",
"117 257 OFFCURVE",
"114 249 CURVE",
"111 231 OFFCURVE",
"110 213 OFFCURVE",
"110 195 CURVE SMOOTH",
"110 0 LINE"
);
},
{
closed = 1;
nodes = (
"59 228 OFFCURVE",
"48 249 OFFCURVE",
"48 286 CURVE SMOOTH",
"48 323 OFFCURVE",
"59 344 OFFCURVE",
"79 344 CURVE SMOOTH",
"99 344 OFFCURVE",
"110 323 OFFCURVE",
"110 286 CURVE SMOOTH",
"110 249 OFFCURVE",
"99 228 OFFCURVE",
"79 228 CURVE SMOOTH"
);
},
{
closed = 1;
nodes = (
"323 -5 OFFCURVE",
"343 24 OFFCURVE",
"343 75 CURVE SMOOTH",
"343 126 OFFCURVE",
"324 155 OFFCURVE",
"291 155 CURVE SMOOTH",
"258 155 OFFCURVE",
"235 126 OFFCURVE",
"235 75 CURVE SMOOTH",
"235 24 OFFCURVE",
"254 -5 OFFCURVE",
"289 -5 CURVE SMOOTH"
);
},
{
closed = 1;
nodes = (
"269 17 OFFCURVE",
"258 38 OFFCURVE",
"258 75 CURVE SMOOTH",
"258 112 OFFCURVE",
"269 133 OFFCURVE",
"289 133 CURVE SMOOTH",
"309 133 OFFCURVE",
"320 112 OFFCURVE",
"320 75 CURVE SMOOTH",
"320 38 OFFCURVE",
"309 17 OFFCURVE",
"289 17 CURVE SMOOTH"
);
}
);
width = 382;
},
{
anchors = (
{
name = bottom;
position = "{457, 0}";
},
{
name = top;
position = "{451, 563}";
}
);
layerId = "E703E12A-5DA7-48FA-B69F-BB282FBD8E56";
paths = (
{
closed = 1;
nodes = (
"237 0 LINE",
"250 64 OFFCURVE",
"274 95 OFFCURVE",
"356 158 CURVE",
"370 174 LINE",
"441 222 OFFCURVE",
"457 246 OFFCURVE",
"457 301 CURVE SMOOTH",
"457 379 LINE SMOOTH",
"457 503 OFFCURVE",
"372 578 OFFCURVE",
"231 578 CURVE SMOOTH",
"162 578 OFFCURVE",
"83 561 OFFCURVE",
"36 536 CURVE",
"36 392 LINE",
"97 425 OFFCURVE",
"150 440 OFFCURVE",
"203 440 CURVE SMOOTH",
"272 440 OFFCURVE",
"301 415 OFFCURVE",
"301 355 CURVE SMOOTH",
"301 282 LINE SMOOTH",
"301 249 OFFCURVE",
"298 241 OFFCURVE",
"278 217 CURVE SMOOTH",
"259 194 OFFCURVE",
"247 175 OFFCURVE",
"243 158 CURVE",
"240 158 LINE",
"242 197 OFFCURVE",
"243 214 OFFCURVE",
"243 246 CURVE SMOOTH",
"243 268 LINE SMOOTH",
"243 339 OFFCURVE",
"205 379 OFFCURVE",
"137 379 CURVE SMOOTH",
"70 379 OFFCURVE",
"27 332 OFFCURVE",
"27 260 CURVE SMOOTH",
"27 191 OFFCURVE",
"67 141 OFFCURVE",
"124 141 CURVE SMOOTH",
"173 141 OFFCURVE",
"204 178 OFFCURVE",
"204 237 CURVE",
"189 237 LINE",
"187 191 OFFCURVE",
"153 164 OFFCURVE",
"96 164 CURVE",
"89 132 OFFCURVE",
"87 117 OFFCURVE",
"87 93 CURVE SMOOTH",
"87 0 LINE"
);
},
{
closed = 1;
nodes = (
"111 221 OFFCURVE",
"99 236 OFFCURVE",
"99 260 CURVE SMOOTH",
"99 284 OFFCURVE",
"111 299 OFFCURVE",
"130 299 CURVE SMOOTH",
"149 299 OFFCURVE",
"161 284 OFFCURVE",
"161 260 CURVE SMOOTH",
"161 236 OFFCURVE",
"149 221 OFFCURVE",
"130 221 CURVE SMOOTH"
);
},
{
closed = 1;
nodes = (
"441 -10 OFFCURVE",
"483 38 OFFCURVE",
"483 108 CURVE SMOOTH",
"483 178 OFFCURVE",
"441 226 OFFCURVE",
"381 226 CURVE SMOOTH",
"321 226 OFFCURVE",
"279 178 OFFCURVE",
"279 108 CURVE SMOOTH",
"279 38 OFFCURVE",
"321 -10 OFFCURVE",
"381 -10 CURVE SMOOTH"
);
},
{
closed = 1;
nodes = (
"362 68 OFFCURVE",
"350 83 OFFCURVE",
"350 107 CURVE SMOOTH",
"350 131 OFFCURVE",
"362 146 OFFCURVE",
"381 146 CURVE SMOOTH",
"400 146 OFFCURVE",
"412 131 OFFCURVE",
"412 107 CURVE SMOOTH",
"412 83 OFFCURVE",
"400 68 OFFCURVE",
"381 68 CURVE SMOOTH"
);
}
);
userData = {
com.schriftgestaltung.Glyphs.glyph.rightMetricsKey = "khoKhwai-thai";
};
width = 508;
},
{
anchors = (
{
name = bottom;
position = "{373, 0}";
},
{
name = top;
position = "{367, 555}";
}
);
layerId = "94F80E8F-7C96-497F-B870-569C37B7A2A5";
paths = (
{
closed = 1;
nodes = (
"174 0 LINE",
"196 48 OFFCURVE",
"225 80 OFFCURVE",
"298 136 CURVE",
"308 151 LINE",
"360 182 OFFCURVE",
"373 203 OFFCURVE",
"373 262 CURVE SMOOTH",
"373 393 LINE SMOOTH",
"373 505 OFFCURVE",
"312 566 OFFCURVE",
"200 566 CURVE SMOOTH",
"140 566 OFFCURVE",
"79 548 OFFCURVE",
"37 519 CURVE",
"37 446 LINE",
"95 483 OFFCURVE",
"139 499 OFFCURVE",
"187 499 CURVE SMOOTH",
"262 499 OFFCURVE",
"296 462 OFFCURVE",
"296 380 CURVE SMOOTH",
"296 255 LINE SMOOTH",
"296 205 OFFCURVE",
"290 191 OFFCURVE",
"257 167 CURVE SMOOTH",
"225 144 OFFCURVE",
"194 112 OFFCURVE",
"179 85 CURVE",
"176 85 LINE",
"178 122 OFFCURVE",
"178 154 OFFCURVE",
"178 227 CURVE SMOOTH",
"178 276 LINE SMOOTH",
"178 335 OFFCURVE",
"149 371 OFFCURVE",
"102 371 CURVE SMOOTH",
"55 371 OFFCURVE",
"26 335 OFFCURVE",
"26 276 CURVE SMOOTH",
"26 218 OFFCURVE",
"54 180 OFFCURVE",
"96 180 CURVE SMOOTH",
"133 180 OFFCURVE",
"154 212 OFFCURVE",
"154 267 CURVE",
"147 267 LINE",
"146 235 OFFCURVE",
"125 198 OFFCURVE",
"107 196 CURVE",
"102 185 OFFCURVE",
"101 175 OFFCURVE",
"101 155 CURVE SMOOTH",
"101 0 LINE"
);
},
{
closed = 1;
nodes = (
"81 225 OFFCURVE",
"71 243 OFFCURVE",
"71 275 CURVE SMOOTH",
"71 307 OFFCURVE",
"81 325 OFFCURVE",
"99 325 CURVE SMOOTH",
"117 325 OFFCURVE",
"127 307 OFFCURVE",
"127 275 CURVE SMOOTH",
"127 243 OFFCURVE",
"117 225 OFFCURVE",
"99 225 CURVE SMOOTH"
);
},
{
closed = 1;
nodes = (
"370 -7 OFFCURVE",
"398 30 OFFCURVE",
"398 88 CURVE SMOOTH",
"398 146 OFFCURVE",
"370 183 OFFCURVE",
"326 183 CURVE SMOOTH",
"282 183 OFFCURVE",
"252 145 OFFCURVE",
"252 88 CURVE SMOOTH",
"252 30 OFFCURVE",
"280 -7 OFFCURVE",
"325 -7 CURVE SMOOTH"
);
},
{
closed = 1;
nodes = (
"307 38 OFFCURVE",
"297 56 OFFCURVE",
"297 88 CURVE SMOOTH",
"297 120 OFFCURVE",
"307 138 OFFCURVE",
"325 138 CURVE SMOOTH",
"343 138 OFFCURVE",
"353 120 OFFCURVE",
"353 88 CURVE SMOOTH",
"353 56 OFFCURVE",
"343 38 OFFCURVE",
"325 38 CURVE SMOOTH"
);
}
);
width = 432;
}
);
leftKerningGroup = "boBaimai-thai";
unicode = 0E09;
},
{
glyphname = "choChang-thai";
lastChange = "2022-09-01 04:16:00 +0000";
layers = (
{
anchors = (
{
name = bottom;
position = "{554, 0}";
},
{
name = top;
position = "{574, 563}";
}
);
layerId = "EB3A5D6C-8260-43A6-9EF2-63971FC08D48";
paths = (
{
closed = 1;
nodes = (
"424 0 LINE SMOOTH",
"508 0 OFFCURVE",
"554 46 OFFCURVE",
"554 130 CURVE SMOOTH",
"554 271 LINE SMOOTH",
"554 324 OFFCURVE",
"528 356 OFFCURVE",
"468 373 CURVE",
"468 377 LINE",
"541 394 OFFCURVE",
"574 445 OFFCURVE",
"574 537 CURVE SMOOTH",
"574 563 LINE",
"402 563 LINE",
"402 537 LINE SMOOTH",
"402 469 OFFCURVE",
"382 438 OFFCURVE",
"335 430 CURVE",
"335 332 LINE",
"359 328 OFFCURVE",
"372 309 OFFCURVE",
"372 279 CURVE SMOOTH",
"372 165 LINE SMOOTH",
"372 146 OFFCURVE",
"361 135 OFFCURVE",
"342 135 CURVE SMOOTH",
"275 135 LINE",
"275 242 LINE SMOOTH",
"275 301 OFFCURVE",
"278 331 OFFCURVE",
"288 363 CURVE SMOOTH",
"299 398 OFFCURVE",
"303 423 OFFCURVE",
"303 451 CURVE SMOOTH",
"303 526 OFFCURVE",
"250 571 OFFCURVE",
"163 571 CURVE SMOOTH",
"74 571 OFFCURVE",
"19 527 OFFCURVE",
"19 455 CURVE SMOOTH",
"19 389 OFFCURVE",
"63 348 OFFCURVE",
"134 348 CURVE SMOOTH",
"186 348 OFFCURVE",
"223 381 OFFCURVE",
"223 426 CURVE",
"172 399 LINE",
"188 381 OFFCURVE",
"184 363 OFFCURVE",
"159 346 CURVE SMOOTH",
"106 311 OFFCURVE",
"93 287 OFFCURVE",
"93 225 CURVE SMOOTH",
"93 128 LINE",
"53 103 LINE",
"53 0 LINE"
);
},
{
closed = 1;
nodes = (
"124 415 OFFCURVE",
"108 429 OFFCURVE",
"108 454 CURVE SMOOTH",
"108 479 OFFCURVE",
"124 493 OFFCURVE",
"150 493 CURVE SMOOTH",
"176 493 OFFCURVE",
"192 479 OFFCURVE",
"192 454 CURVE SMOOTH",
"192 429 OFFCURVE",
"176 415 OFFCURVE",
"150 415 CURVE SMOOTH"
);
}
);
userData = {
com.schriftgestaltung.Glyphs.glyph.leftMetricsKey = "khoKhai-thai";
};
width = 613;
},
{
anchors = (
{
name = bottom;
position = "{424, 0}";
},
{
name = top;
position = "{434, 550}";
}
);
layerId = "90A34054-68E4-499D-AE50-276C7B026D8B";
paths = (
{
closed = 1;
nodes = (
"343 0 LINE SMOOTH",
"398 0 OFFCURVE",
"424 26 OFFCURVE",
"424 82 CURVE SMOOTH",
"424 274 LINE SMOOTH",
"424 334 OFFCURVE",
"398 369 OFFCURVE",
"344 381 CURVE",
"344 383 LINE",
"404 400 OFFCURVE",
"434 449 OFFCURVE",
"434 529 CURVE SMOOTH",
"434 550 LINE",
"409 550 LINE",
"409 529 LINE SMOOTH",
"409 440 OFFCURVE",
"370 395 OFFCURVE",
"291 392 CURVE",
"291 372 LINE",
"364 370 OFFCURVE",
"399 339 OFFCURVE",
"399 273 CURVE SMOOTH",
"399 85 LINE SMOOTH",
"399 41 OFFCURVE",
"381 23 OFFCURVE",
"338 23 CURVE SMOOTH",
"144 23 LINE",
"144 212 LINE SMOOTH",
"144 266 OFFCURVE",
"152 298 OFFCURVE",
"173 331 CURVE SMOOTH",
"209 387 OFFCURVE",
"220 419 OFFCURVE",
"220 465 CURVE SMOOTH",
"220 520 OFFCURVE",
"188 554 OFFCURVE",
"137 554 CURVE SMOOTH",
"87 554 OFFCURVE",
"54 522 OFFCURVE",
"54 474 CURVE SMOOTH",
"54 427 OFFCURVE",
"86 395 OFFCURVE",
"135 395 CURVE SMOOTH",
"179 395 OFFCURVE",
"206 425 OFFCURVE",
"206 474 CURVE",
"197 442 LINE",
"199 421 OFFCURVE",
"186 391 OFFCURVE",
"155 346 CURVE SMOOTH",
"127 305 OFFCURVE",
"119 275 OFFCURVE",
"119 212 CURVE SMOOTH",
"119 23 LINE",
"67 18 LINE",
"67 0 LINE"
);
},
{
closed = 1;
nodes = (
"101 416 OFFCURVE",
"78 439 OFFCURVE",
"78 474 CURVE SMOOTH",
"78 509 OFFCURVE",
"101 532 OFFCURVE",
"136 532 CURVE SMOOTH",
"171 532 OFFCURVE",
"194 509 OFFCURVE",
"194 474 CURVE SMOOTH",
"194 439 OFFCURVE",
"171 416 OFFCURVE",
"136 416 CURVE SMOOTH"
);
}
);
width = 520;
},
{
anchors = (
{
name = bottom;
position = "{474, 0}";
},
{
name = top;
position = "{489, 555}";
}
);
hints = (
{
origin = "{0, 53}";
target = "{0, 26}";
type = Stem;
},
{
origin = "{0, 22}";
target = "{0, 3}";
type = Stem;
},
{
horizontal = 1;
origin = "{0, 55}";
target = "{0, 26}";
type = Stem;
},
{
horizontal = 1;
origin = "{0, 36}";
target = "{1, 5}";
type = Stem;
},
{
horizontal = 1;
origin = "{0, 13}";
target = down;
type = TopGhost;
}
);
layerId = "9148514D-BEB8-4275-B264-8F51401A425F";
paths = (
{
closed = 1;
nodes = (
"374 0 LINE SMOOTH",
"442 0 OFFCURVE",
"474 36 OFFCURVE",
"474 111 CURVE SMOOTH",
"474 275 LINE SMOOTH",
"474 331 OFFCURVE",
"447 364 OFFCURVE",
"392 378 CURVE",
"392 381 LINE",
"457 398 OFFCURVE",
"489 447 OFFCURVE",
"489 532 CURVE SMOOTH",
"489 555 LINE",
"404 555 LINE",
"404 532 LINE SMOOTH",
"404 452 OFFCURVE",
"371 412 OFFCURVE",
"301 407 CURVE",
"301 356 LINE",
"359 350 OFFCURVE",
"384 329 OFFCURVE",
"384 285 CURVE SMOOTH",
"384 117 LINE SMOOTH",
"384 83 OFFCURVE",
"369 68 OFFCURVE",
"336 68 CURVE SMOOTH",
"196 68 LINE",
"196 224 LINE SMOOTH",
"196 280 OFFCURVE",
"203 313 OFFCURVE",
"227 361 CURVE SMOOTH",
"247 401 OFFCURVE",
"254 427 OFFCURVE",
"254 456 CURVE SMOOTH",
"254 524 OFFCURVE",
"215 561 OFFCURVE",
"145 561 CURVE SMOOTH",
"80 561 OFFCURVE",
"40 524 OFFCURVE",
"40 466 CURVE SMOOTH",
"40 411 OFFCURVE",
"77 376 OFFCURVE",
"135 376 CURVE SMOOTH",
"183 376 OFFCURVE",
"212 408 OFFCURVE",
"212 455 CURVE",
"187 425 LINE",
"187 408 OFFCURVE",
"174 382 OFFCURVE",
"147 346 CURVE SMOOTH",
"113 300 OFFCURVE",
"106 281 OFFCURVE",
"106 237 CURVE SMOOTH",
"106 65 LINE",
"59 52 LINE",
"59 0 LINE"
);
},
{
closed = 1;
nodes = (
"114 422 OFFCURVE",
"98 438 OFFCURVE",
"98 465 CURVE SMOOTH",
"98 492 OFFCURVE",
"114 508 OFFCURVE",
"142 508 CURVE SMOOTH",
"170 508 OFFCURVE",
"186 492 OFFCURVE",
"186 465 CURVE SMOOTH",
"186 438 OFFCURVE",
"170 422 OFFCURVE",
"142 422 CURVE SMOOTH"
);
}
);
width = 556;
},
{
anchors = (
{
name = bottom;
position = "{279, 0}";
},
{
name = top;
position = "{286, 550}";
}
);
layerId = "54E3FB14-E6D2-4DF3-BA4A-5621168F9335";
paths = (
{
closed = 1;
nodes = (
"215 0 LINE SMOOTH",
"260 0 OFFCURVE",
"279 22 OFFCURVE",
"279 72 CURVE SMOOTH",
"279 274 LINE SMOOTH",
"279 334 OFFCURVE",
"262 369 OFFCURVE",
"227 381 CURVE",
"227 383 LINE",
"266 401 OFFCURVE",
"286 449 OFFCURVE",
"286 529 CURVE SMOOTH",
"286 550 LINE",
"261 550 LINE",
"261 529 LINE SMOOTH",
"261 441 OFFCURVE",
"237 395 OFFCURVE",
"188 392 CURVE",
"188 372 LINE",
"233 370 OFFCURVE",
"254 338 OFFCURVE",
"254 273 CURVE SMOOTH",
"254 75 LINE SMOOTH",
"254 35 OFFCURVE",
"244 23 OFFCURVE",
"211 23 CURVE SMOOTH",
"100 23 LINE",
"100 212 LINE SMOOTH",
"100 269 OFFCURVE",
"104 297 OFFCURVE",
"118 331 CURVE SMOOTH",
"139 384 OFFCURVE",
"146 416 OFFCURVE",
"146 465 CURVE SMOOTH",
"146 524 OFFCURVE",
"127 554 OFFCURVE",
"89 554 CURVE SMOOTH",
"53 554 OFFCURVE",
"33 525 OFFCURVE",
"33 474 CURVE SMOOTH",
"33 424 OFFCURVE",
"53 395 OFFCURVE",
"87 395 CURVE SMOOTH",
"115 395 OFFCURVE",
"133 425 OFFCURVE",
"133 474 CURVE",
"129 474 LINE",
"131 434 OFFCURVE",
"123 400 OFFCURVE",
"99 346 CURVE SMOOTH",
"80 304 OFFCURVE",
"75 277 OFFCURVE",
"75 212 CURVE SMOOTH",
"75 23 LINE",
"42 18 LINE",
"42 0 LINE"
);
},
{
closed = 1;
nodes = (
"67 416 OFFCURVE",
"56 437 OFFCURVE",
"56 474 CURVE SMOOTH",
"56 511 OFFCURVE",
"67 532 OFFCURVE",
"87 532 CURVE SMOOTH",
"107 532 OFFCURVE",
"118 511 OFFCURVE",
"118 474 CURVE SMOOTH",
"118 437 OFFCURVE",
"107 416 OFFCURVE",
"87 416 CURVE SMOOTH"
);
}
);
width = 338;
},
{
anchors = (
{
name = bottom;
position = "{430, 0}";
},
{
name = top;
position = "{445, 563}";
}
);
layerId = "E703E12A-5DA7-48FA-B69F-BB282FBD8E56";
paths = (
{
closed = 1;
nodes = (
"317 0 LINE SMOOTH",
"392 0 OFFCURVE",
"430 44 OFFCURVE",
"430 130 CURVE SMOOTH",
"430 271 LINE SMOOTH",
"430 324 OFFCURVE",
"410 356 OFFCURVE",
"364 373 CURVE",
"364 377 LINE",
"420 394 OFFCURVE",
"445 444 OFFCURVE",
"445 537 CURVE SMOOTH",
"445 563 LINE",
"302 563 LINE",
"302 537 LINE SMOOTH",
"302 470 OFFCURVE",
"289 438 OFFCURVE",
"257 430 CURVE",
"257 332 LINE",
"269 328 OFFCURVE",
"277 306 OFFCURVE",
"277 279 CURVE SMOOTH",
"277 165 LINE SMOOTH",
"277 145 OFFCURVE",
"268 135 OFFCURVE",
"248 135 CURVE SMOOTH",
"220 135 LINE",
"220 242 LINE SMOOTH",
"220 306 OFFCURVE",
"221 329 OFFCURVE",
"227 363 CURVE SMOOTH",
"233 398 OFFCURVE",
"236 427 OFFCURVE",
"236 451 CURVE SMOOTH",
"236 525 OFFCURVE",
"194 571 OFFCURVE",
"126 571 CURVE SMOOTH",
"55 571 OFFCURVE",
"11 527 OFFCURVE",
"11 455 CURVE SMOOTH",
"11 389 OFFCURVE",
"45 348 OFFCURVE",
"101 348 CURVE SMOOTH",
"141 348 OFFCURVE",
"167 379 OFFCURVE",
"167 426 CURVE",
"127 399 LINE",
"142 379 OFFCURVE",
"140 362 OFFCURVE",
"121 346 CURVE SMOOTH",
"79 311 OFFCURVE",
"68 287 OFFCURVE",
"68 225 CURVE SMOOTH",
"68 128 LINE",
"39 103 LINE",
"39 0 LINE"
);
},
{
closed = 1;
nodes = (
"95 415 OFFCURVE",
"83 430 OFFCURVE",
"83 454 CURVE SMOOTH",
"83 478 OFFCURVE",
"95 493 OFFCURVE",
"114 493 CURVE SMOOTH",
"133 493 OFFCURVE",
"145 478 OFFCURVE",
"145 454 CURVE SMOOTH",
"145 430 OFFCURVE",
"133 415 OFFCURVE",
"114 415 CURVE SMOOTH"
);
}
);
userData = {
com.schriftgestaltung.Glyphs.glyph.leftMetricsKey = "khoKhai-thai";
};
width = 469;
},
{
anchors = (
{
name = bottom;
position = "{337, 0}";
},
{
name = top;
position = "{348, 555}";
}
);
layerId = "94F80E8F-7C96-497F-B870-569C37B7A2A5";
paths = (
{
closed = 1;
nodes = (
"258 0 LINE SMOOTH",
"311 0 OFFCURVE",
"337 31 OFFCURVE",
"337 95 CURVE SMOOTH",
"337 273 LINE SMOOTH",
"337 330 OFFCURVE",
"318 364 OFFCURVE",
"278 378 CURVE",
"278 381 LINE",
"325 398 OFFCURVE",
"348 449 OFFCURVE",
"348 532 CURVE SMOOTH",
"348 555 LINE",
"274 555 LINE",
"274 532 LINE SMOOTH",
"274 452 OFFCURVE",
"254 412 OFFCURVE",
"212 407 CURVE",
"212 356 LINE",
"244 354 OFFCURVE",
"260 327 OFFCURVE",
"260 275 CURVE SMOOTH",
"260 108 LINE SMOOTH",
"260 77 OFFCURVE",
"251 65 OFFCURVE",
"227 65 CURVE SMOOTH",
"147 65 LINE",
"147 225 LINE SMOOTH",
"147 284 OFFCURVE",
"150 312 OFFCURVE",
"161 345 CURVE SMOOTH",
"176 392 OFFCURVE",
"181 419 OFFCURVE",
"181 460 CURVE SMOOTH",
"181 524 OFFCURVE",
"153 562 OFFCURVE",
"104 562 CURVE SMOOTH",
"54 562 OFFCURVE",
"24 527 OFFCURVE",
"24 468 CURVE SMOOTH",
"24 411 OFFCURVE",
"50 377 OFFCURVE",
"93 377 CURVE SMOOTH",
"126 377 OFFCURVE",
"147 408 OFFCURVE",
"147 456 CURVE",
"137 456 LINE",
"138 414 OFFCURVE",
"132 396 OFFCURVE",
"102 347 CURVE SMOOTH",
"76 304 OFFCURVE",
"70 281 OFFCURVE",
"70 218 CURVE SMOOTH",
"70 64 LINE",
"40 51 LINE",
"40 0 LINE"
);
},
{
closed = 1;
nodes = (
"79 418 OFFCURVE",
"69 436 OFFCURVE",
"69 468 CURVE SMOOTH",
"69 500 OFFCURVE",
"79 518 OFFCURVE",
"97 518 CURVE SMOOTH",
"115 518 OFFCURVE",
"125 500 OFFCURVE",
"125 468 CURVE SMOOTH",
"125 436 OFFCURVE",
"115 418 OFFCURVE",
"97 418 CURVE SMOOTH"
);
}
);
width = 389;
}
);
leftKerningGroup = "khoKhai-thai";
leftMetricsKey = "khoKhai-thai";
unicode = 0E0A;
},
{
glyphname = "soSo-thai";
lastChange = "2022-09-01 04:16:00 +0000";
layers = (
{
anchors = (
{
name = bottom;
position = "{570, 0}";
},
{
name = top;
position = "{590, 563}";
}
);
layerId = "EB3A5D6C-8260-43A6-9EF2-63971FC08D48";
paths = (
{
closed = 1;
nodes = (
"440 0 LINE SMOOTH",
"524 0 OFFCURVE",
"570 46 OFFCURVE",
"570 130 CURVE SMOOTH",
"570 256 LINE SMOOTH",
"570 315 OFFCURVE",
"540 356 OFFCURVE",
"484 373 CURVE",
"484 377 LINE",
"557 394 OFFCURVE",
"590 445 OFFCURVE",
"590 537 CURVE SMOOTH",
"590 563 LINE",
"418 563 LINE",
"418 537 LINE SMOOTH",
"418 472 OFFCURVE",
"400 438 OFFCURVE",
"361 430 CURVE",
"361 332 LINE",
"381 328 OFFCURVE",
"388 315 OFFCURVE",
"388 279 CURVE SMOOTH",
"388 165 LINE SMOOTH",
"388 146 OFFCURVE",
"377 135 OFFCURVE",
"358 135 CURVE SMOOTH",
"283 135 LINE",
"283 218 LINE SMOOTH",
"283 262 OFFCURVE",
"288 290 OFFCURVE",
"305 332 CURVE SMOOTH",
"324 379 OFFCURVE",
"332 421 OFFCURVE",
"332 470 CURVE SMOOTH",
"332 563 LINE",
"248 563 LINE",
"242 511 OFFCURVE",
"229 470 OFFCURVE",
"212 443 CURVE",
"214 427 LINE",
"225 440 OFFCURVE",
"232 458 OFFCURVE",
"232 475 CURVE SMOOTH",
"232 533 OFFCURVE",
"187 573 OFFCURVE",
"122 573 CURVE SMOOTH",
"49 573 OFFCURVE",
"4 532 OFFCURVE",
"4 465 CURVE SMOOTH",
"4 400 OFFCURVE",
"52 357 OFFCURVE",
"123 357 CURVE SMOOTH",
"152 357 OFFCURVE",
"182 370 OFFCURVE",
"202 391 CURVE",
"205 389 LINE",
"198 377 OFFCURVE",
"188 369 OFFCURVE",
"160 347 CURVE SMOOTH",
"120 316 OFFCURVE",
"101 272 OFFCURVE",
"101 211 CURVE SMOOTH",
"101 128 LINE",
"51 103 LINE",
"51 0 LINE"
);
},
{
closed = 1;
nodes = (
"98 426 OFFCURVE",
"82 440 OFFCURVE",
"82 465 CURVE SMOOTH",
"82 490 OFFCURVE",
"98 504 OFFCURVE",
"124 504 CURVE SMOOTH",
"150 504 OFFCURVE",
"166 490 OFFCURVE",
"166 465 CURVE SMOOTH",
"166 440 OFFCURVE",
"150 426 OFFCURVE",
"124 426 CURVE SMOOTH"
);
}
);
userData = {
com.schriftgestaltung.Glyphs.glyph.rightMetricsKey = "choChang-thai";
};
width = 629;
},
{
anchors = (
{
name = bottom;
position = "{437, 0}";
},
{
name = top;
position = "{447, 550}";
}
);
layerId = "90A34054-68E4-499D-AE50-276C7B026D8B";
paths = (
{
closed = 1;
nodes = (
"356 0 LINE SMOOTH",
"411 0 OFFCURVE",
"437 26 OFFCURVE",
"437 82 CURVE SMOOTH",
"437 274 LINE SMOOTH",
"437 334 OFFCURVE",
"411 369 OFFCURVE",
"357 381 CURVE",
"357 383 LINE",
"417 400 OFFCURVE",
"447 449 OFFCURVE",
"447 529 CURVE SMOOTH",
"447 550 LINE",
"422 550 LINE",
"422 529 LINE SMOOTH",
"422 444 OFFCURVE",
"386 395 OFFCURVE",
"322 392 CURVE",
"322 372 LINE",
"382 370 OFFCURVE",
"412 337 OFFCURVE",
"412 273 CURVE SMOOTH",
"412 85 LINE SMOOTH",
"412 41 OFFCURVE",
"394 23 OFFCURVE",
"351 23 CURVE SMOOTH",
"157 23 LINE",
"157 202 LINE SMOOTH",
"157 272 OFFCURVE",
"164 289 OFFCURVE",
"215 349 CURVE SMOOTH",
"255 396 OFFCURVE",
"267 435 OFFCURVE",
"267 514 CURVE SMOOTH",
"267 550 LINE",
"248 550 LINE",
"238 492 OFFCURVE",
"192 430 OFFCURVE",
"157 427 CURVE",
"157 417 LINE",
"176 431 OFFCURVE",
"188 454 OFFCURVE",
"188 478 CURVE SMOOTH",
"188 523 OFFCURVE",
"155 554 OFFCURVE",
"108 554 CURVE SMOOTH",
"59 554 OFFCURVE",
"27 522 OFFCURVE",
"27 474 CURVE SMOOTH",
"27 427 OFFCURVE",
"61 396 OFFCURVE",
"114 396 CURVE SMOOTH",
"172 396 OFFCURVE",
"226 436 OFFCURVE",
"246 493 CURVE",
"248 493 LINE",
"244 431 OFFCURVE",
"235 408 OFFCURVE",
"198 364 CURVE SMOOTH",
"141 297 OFFCURVE",
"132 275 OFFCURVE",
"132 202 CURVE SMOOTH",
"132 23 LINE",
"80 18 LINE",
"80 0 LINE"
);
},
{
closed = 1;
nodes = (
"73 416 OFFCURVE",
"51 439 OFFCURVE",
"51 474 CURVE SMOOTH",
"51 509 OFFCURVE",
"73 532 OFFCURVE",
"108 532 CURVE SMOOTH",
"143 532 OFFCURVE",
"165 509 OFFCURVE",
"165 474 CURVE SMOOTH",
"165 439 OFFCURVE",
"143 416 OFFCURVE",
"108 416 CURVE SMOOTH"
);
}
);
width = 533;
},
{
anchors = (
{
name = bottom;
position = "{492, 0}";
},
{
name = top;
position = "{507, 555}";
}
);
hints = (
{
origin = "{0, 62}";
target = "{0, 26}";
type = Stem;
},
{
origin = "{0, 22}";
target = "{0, 3}";
type = Stem;
},
{
horizontal = 1;
origin = "{0, 64}";
target = "{0, 26}";
type = Stem;
},
{
horizontal = 1;
origin = "{0, 45}";
target = "{1, 5}";
type = Stem;
},
{
horizontal = 1;
origin = "{0, 13}";
target = down;
type = TopGhost;
}
);
layerId = "9148514D-BEB8-4275-B264-8F51401A425F";
paths = (
{
closed = 1;
nodes = (
"392 0 LINE SMOOTH",
"460 0 OFFCURVE",
"492 36 OFFCURVE",
"492 111 CURVE SMOOTH",
"492 275 LINE SMOOTH",
"492 331 OFFCURVE",
"465 364 OFFCURVE",
"410 378 CURVE",
"410 381 LINE",
"475 398 OFFCURVE",
"507 447 OFFCURVE",
"507 532 CURVE SMOOTH",
"507 555 LINE",
"422 555 LINE",
"422 532 LINE SMOOTH",
"422 456 OFFCURVE",
"393 412 OFFCURVE",
"338 407 CURVE",
"338 356 LINE",
"381 350 OFFCURVE",
"402 327 OFFCURVE",
"402 285 CURVE SMOOTH",
"402 117 LINE SMOOTH",
"402 83 OFFCURVE",
"387 68 OFFCURVE",
"354 68 CURVE SMOOTH",
"206 68 LINE",
"206 217 LINE SMOOTH",
"206 259 OFFCURVE",
"215 282 OFFCURVE",
"254 337 CURVE SMOOTH",
"283 378 OFFCURVE",
"293 419 OFFCURVE",
"293 496 CURVE SMOOTH",
"293 555 LINE",
"244 555 LINE",
"237 509 OFFCURVE",
"207 456 OFFCURVE",
"175 433 CURVE",
"180 421 LINE",
"196 434 OFFCURVE",
"206 455 OFFCURVE",
"206 477 CURVE SMOOTH",
"206 527 OFFCURVE",
"168 562 OFFCURVE",
"114 562 CURVE SMOOTH",
"55 562 OFFCURVE",
"18 526 OFFCURVE",
"18 470 CURVE SMOOTH",
"18 415 OFFCURVE",
"57 380 OFFCURVE",
"118 380 CURVE SMOOTH",
"163 380 OFFCURVE",
"207 409 OFFCURVE",
"228 452 CURVE",
"231 451 LINE",
"225 413 OFFCURVE",
"217 397 OFFCURVE",
"183 357 CURVE SMOOTH",
"130 294 OFFCURVE",
"118 267 OFFCURVE",
"118 217 CURVE SMOOTH",
"118 65 LINE",
"67 52 LINE",
"67 0 LINE"
);
},
{
closed = 1;
nodes = (
"86 427 OFFCURVE",
"70 443 OFFCURVE",
"70 470 CURVE SMOOTH",
"70 497 OFFCURVE",
"86 513 OFFCURVE",
"114 513 CURVE SMOOTH",
"142 513 OFFCURVE",
"158 497 OFFCURVE",
"158 470 CURVE SMOOTH",
"158 443 OFFCURVE",
"142 427 OFFCURVE",
"114 427 CURVE SMOOTH"
);
}
);
width = 574;
},
{
anchors = (
{
name = bottom;
position = "{287, 0}";
},
{
name = top;
position = "{294, 550}";
}
);
layerId = "54E3FB14-E6D2-4DF3-BA4A-5621168F9335";
paths = (
{
closed = 1;
nodes = (
"223 0 LINE SMOOTH",
"268 0 OFFCURVE",
"287 22 OFFCURVE",
"287 72 CURVE SMOOTH",
"287 274 LINE SMOOTH",
"287 334 OFFCURVE",
"270 369 OFFCURVE",
"235 381 CURVE",
"235 383 LINE",
"274 401 OFFCURVE",
"294 449 OFFCURVE",
"294 529 CURVE SMOOTH",
"294 550 LINE",
"269 550 LINE",
"269 529 LINE SMOOTH",
"269 441 OFFCURVE",
"245 395 OFFCURVE",
"196 392 CURVE",
"196 372 LINE",
"241 370 OFFCURVE",
"262 338 OFFCURVE",
"262 273 CURVE SMOOTH",
"262 75 LINE SMOOTH",
"262 35 OFFCURVE",
"252 23 OFFCURVE",
"219 23 CURVE SMOOTH",
"107 23 LINE",
"107 202 LINE SMOOTH",
"107 265 OFFCURVE",
"114 294 OFFCURVE",
"143 351 CURVE SMOOTH",
"170 404 OFFCURVE",
"174 425 OFFCURVE",
"174 498 CURVE SMOOTH",
"174 550 LINE",
"156 550 LINE",
"150 496 OFFCURVE",
"126 441 OFFCURVE",
"103 427 CURVE",
"104 417 LINE",
"116 432 OFFCURVE",
"122 453 OFFCURVE",
"122 478 CURVE SMOOTH",
"122 527 OFFCURVE",
"104 554 OFFCURVE",
"70 554 CURVE SMOOTH",
"36 554 OFFCURVE",
"16 525 OFFCURVE",
"16 474 CURVE SMOOTH",
"16 424 OFFCURVE",
"37 396 OFFCURVE",
"73 396 CURVE SMOOTH",
"107 396 OFFCURVE",
"141 432 OFFCURVE",
"155 483 CURVE",
"156 483 LINE",
"153 428 OFFCURVE",
"148 409 OFFCURVE",
"124 363 CURVE SMOOTH",
"91 299 OFFCURVE",
"83 268 OFFCURVE",
"83 202 CURVE SMOOTH",
"83 23 LINE",
"49 18 LINE",
"49 0 LINE"
);
},
{
closed = 1;
nodes = (
"50 416 OFFCURVE",
"39 437 OFFCURVE",
"39 474 CURVE SMOOTH",
"39 511 OFFCURVE",
"50 532 OFFCURVE",
"70 532 CURVE SMOOTH",
"90 532 OFFCURVE",
"101 511 OFFCURVE",
"101 474 CURVE SMOOTH",
"101 437 OFFCURVE",
"90 416 OFFCURVE",
"70 416 CURVE SMOOTH"
);
}
);
width = 346;
},
{
anchors = (
{
name = bottom;
position = "{442, 0}";
},
{
name = top;
position = "{458, 563}";
}
);
layerId = "E703E12A-5DA7-48FA-B69F-BB282FBD8E56";
paths = (
{
closed = 1;
nodes = (
"330 0 LINE SMOOTH",
"404 0 OFFCURVE",
"442 44 OFFCURVE",
"442 130 CURVE SMOOTH",
"442 256 LINE SMOOTH",
"442 315 OFFCURVE",
"419 356 OFFCURVE",
"377 373 CURVE",
"377 377 LINE",
"432 394 OFFCURVE",
"458 445 OFFCURVE",
"458 537 CURVE SMOOTH",
"458 563 LINE",
"314 563 LINE",
"314 537 LINE SMOOTH",
"314 472 OFFCURVE",
"302 438 OFFCURVE",
"276 430 CURVE",
"276 332 LINE",
"286 329 OFFCURVE",
"290 314 OFFCURVE",
"290 279 CURVE SMOOTH",
"290 165 LINE SMOOTH",
"290 145 OFFCURVE",
"281 135 OFFCURVE",
"261 135 CURVE SMOOTH",
"227 135 LINE",
"227 218 LINE SMOOTH",
"227 269 OFFCURVE",
"230 292 OFFCURVE",
"239 332 CURVE SMOOTH",
"252 388 OFFCURVE",
"257 428 OFFCURVE",
"257 470 CURVE SMOOTH",
"257 563 LINE",
"188 563 LINE",
"183 502 OFFCURVE",
"176 466 OFFCURVE",
"167 443 CURVE",
"168 427 LINE",
"176 441 OFFCURVE",
"180 458 OFFCURVE",
"180 475 CURVE SMOOTH",
"180 533 OFFCURVE",
"144 573 OFFCURVE",
"92 573 CURVE SMOOTH",
"37 573 OFFCURVE",
"2 531 OFFCURVE",
"2 466 CURVE SMOOTH",
"2 402 OFFCURVE",
"37 357 OFFCURVE",
"87 357 CURVE SMOOTH",
"111 357 OFFCURVE",
"132 369 OFFCURVE",
"148 391 CURVE",
"151 389 LINE",
"147 380 OFFCURVE",
"129 358 OFFCURVE",
"118 347 CURVE SMOOTH",
"88 316 OFFCURVE",
"74 273 OFFCURVE",
"74 211 CURVE SMOOTH",
"74 128 LINE",
"37 103 LINE",
"37 0 LINE"
);
},
{
closed = 1;
nodes = (
"77 426 OFFCURVE",
"65 441 OFFCURVE",
"65 465 CURVE SMOOTH",
"65 489 OFFCURVE",
"77 504 OFFCURVE",
"96 504 CURVE SMOOTH",
"115 504 OFFCURVE",
"127 489 OFFCURVE",
"127 465 CURVE SMOOTH",
"127 441 OFFCURVE",
"115 426 OFFCURVE",
"96 426 CURVE SMOOTH"
);
}
);
userData = {
com.schriftgestaltung.Glyphs.glyph.rightMetricsKey = "choChang-thai";
};
width = 482;
},
{
anchors = (
{
name = bottom;
position = "{347, 0}";
},
{
name = top;
position = "{357, 555}";
}
);
layerId = "94F80E8F-7C96-497F-B870-569C37B7A2A5";
paths = (
{
closed = 1;
nodes = (
"268 0 LINE SMOOTH",
"321 0 OFFCURVE",
"347 31 OFFCURVE",
"347 95 CURVE SMOOTH",
"347 267 LINE SMOOTH",
"347 325 OFFCURVE",
"327 363 OFFCURVE",
"288 378 CURVE",
"288 381 LINE",
"334 398 OFFCURVE",
"357 448 OFFCURVE",
"357 532 CURVE SMOOTH",
"357 555 LINE",
"283 555 LINE",
"283 532 LINE SMOOTH",
"283 453 OFFCURVE",
"264 412 OFFCURVE",
"224 407 CURVE",
"224 356 LINE",
"256 353 OFFCURVE",
"270 328 OFFCURVE",
"270 275 CURVE SMOOTH",
"270 108 LINE SMOOTH",
"270 77 OFFCURVE",
"260 65 OFFCURVE",
"236 65 CURVE SMOOTH",
"155 65 LINE",
"155 209 LINE SMOOTH",
"155 267 OFFCURVE",
"160 295 OFFCURVE",
"178 337 CURVE SMOOTH",
"202 394 OFFCURVE",
"207 422 OFFCURVE",
"207 488 CURVE SMOOTH",
"207 555 LINE",
"169 555 LINE",
"163 505 OFFCURVE",
"149 473 OFFCURVE",
"123 447 CURVE",
"129 422 LINE",
"139 436 OFFCURVE",
"145 456 OFFCURVE",
"145 478 CURVE SMOOTH",
"145 531 OFFCURVE",
"120 562 OFFCURVE",
"79 562 CURVE SMOOTH",
"36 562 OFFCURVE",
"10 528 OFFCURVE",
"10 471 CURVE SMOOTH",
"10 416 OFFCURVE",
"37 382 OFFCURVE",
"82 382 CURVE SMOOTH",
"108 382 OFFCURVE",
"135 408 OFFCURVE",
"152 448 CURVE",
"154 447 LINE",
"149 408 OFFCURVE",
"143 393 OFFCURVE",
"121 358 CURVE SMOOTH",
"88 305 OFFCURVE",
"78 271 OFFCURVE",
"78 207 CURVE SMOOTH",
"78 64 LINE",
"43 51 LINE",
"43 0 LINE"
);
},
{
closed = 1;
nodes = (
"63 421 OFFCURVE",
"53 439 OFFCURVE",
"53 471 CURVE SMOOTH",
"53 503 OFFCURVE",
"63 521 OFFCURVE",
"81 521 CURVE SMOOTH",
"99 521 OFFCURVE",
"109 503 OFFCURVE",
"109 471 CURVE SMOOTH",
"109 439 OFFCURVE",
"99 421 OFFCURVE",
"81 421 CURVE SMOOTH"
);
}
);
width = 398;
}
);
leftKerningGroup = "khoKhai-thai";
leftMetricsKey = "khoKhuat-thai";
note = "\012uni0E0B\012";
rightMetricsKey = "choChang-thai";
unicode = 0E0B;
},
{
glyphname = "soSo_macronbelowcomb-thai";
lastChange = "2022-09-01 04:16:00 +0000";
layers = (
{
anchors = (
{
name = bottom;
position = "{447, -100}";
}
);
components = (
{
name = "soSo-thai";
}
);
layerId = "90A34054-68E4-499D-AE50-276C7B026D8B";
paths = (
{
closed = 1;
nodes = (
"447 -100 LINE",
"447 -77 LINE",
"80 -77 LINE",
"80 -100 LINE"
);
}
);
width = 533;
},
{
anchors = (
{
name = bottom;
position = "{570, -219}";
}
);
components = (
{
name = "soSo-thai";
}
);
layerId = "EB3A5D6C-8260-43A6-9EF2-63971FC08D48";
paths = (
{
closed = 1;
nodes = (
"570 -219 LINE",
"570 -77 LINE",
"51 -77 LINE",
"51 -219 LINE"
);
}
);
width = 629;
},
{
anchors = (
{
name = bottom;
position = "{497, -147}";
}
);
components = (
{
alignment = -1;
name = "soSo-thai";
}
);
hints = (
{
horizontal = 1;
origin = "{0, 3}";
target = "{0, 2}";
type = Stem;
}
);
layerId = "9148514D-BEB8-4275-B264-8F51401A425F";
paths = (
{
closed = 1;
nodes = (
"497 -147 LINE",
"497 -76 LINE",
"67 -76 LINE",
"67 -147 LINE"
);
}
);
width = 574;
},
{
anchors = (
{
name = bottom;
position = "{287, -100}";
}
);
components = (
{
name = "soSo-thai";
}
);
layerId = "54E3FB14-E6D2-4DF3-BA4A-5621168F9335";
paths = (
{
closed = 1;
nodes = (
"287 -100 LINE",
"287 -77 LINE",
"49 -77 LINE",
"49 -100 LINE"
);
}
);
width = 346;
},
{
anchors = (
{
name = bottom;
position = "{442, -219}";
}
);
components = (
{
name = "soSo-thai";
}
);
layerId = "E703E12A-5DA7-48FA-B69F-BB282FBD8E56";
paths = (
{
closed = 1;
nodes = (
"442 -219 LINE",
"442 -77 LINE",
"37 -77 LINE",
"37 -219 LINE"
);
}
);
width = 482;
},
{
anchors = (
{
name = bottom;
position = "{347, -147}";
}
);
components = (
{
alignment = -1;
name = "soSo-thai";
}
);
layerId = "94F80E8F-7C96-497F-B870-569C37B7A2A5";
paths = (
{
closed = 1;
nodes = (
"347 -147 LINE",
"347 -77 LINE",
"43 -77 LINE",
"43 -147 LINE"
);
}
);
width = 398;
}
);
leftKerningGroup = "khoKhai-thai";
leftMetricsKey = "khoKhuat-thai";
rightMetricsKey = "choChang-thai";
script = thai;
category = Letter;
subCategory = Other;
},
{
glyphname = "choChoe-thai";
lastChange = "2022-10-16 09:21:37 +0000";
layers = (
{
anchors = (
{
name = bottom;
position = "{877, 0}";
},
{
name = top;
position = "{877, 563}";
}
);
layerId = "EB3A5D6C-8260-43A6-9EF2-63971FC08D48";
paths = (
{
closed = 1;
nodes = (
"268 -10 OFFCURVE",
"319 36 OFFCURVE",
"319 107 CURVE SMOOTH",
"319 171 OFFCURVE",
"277 211 OFFCURVE",
"209 211 CURVE SMOOTH",
"138 211 OFFCURVE",
"109 190 OFFCURVE",
"90 123 CURVE",
"117 99 LINE",
"117 140 OFFCURVE",
"167 173 OFFCURVE",
"229 173 CURVE",
"229 180 OFFCURVE",
"229 186 OFFCURVE",
"229 193 CURVE SMOOTH",
"229 199 LINE SMOOTH",
"229 233 OFFCURVE",
"261 256 OFFCURVE",
"307 256 CURVE",
"317 334 LINE",
"134 415 LINE",
"207 334 LINE",
"207 358 LINE SMOOTH",
"207 405 OFFCURVE",
"237 438 OFFCURVE",
"298 438 CURVE SMOOTH",
"362 438 OFFCURVE",
"391 403 OFFCURVE",
"391 329 CURVE SMOOTH",
"391 281 LINE SMOOTH",
"391 254 OFFCURVE",
"393 218 OFFCURVE",
"402 194 CURVE",
"516 146 LINE",
"590 101 OFFCURVE",
"647 56 OFFCURVE",
"696 0 CURVE",
"877 0 LINE",
"877 563 LINE",
"691 563 LINE",
"691 254 LINE SMOOTH",
"691 225 OFFCURVE",
"692 191 OFFCURVE",
"696 146 CURVE",
"692 146 LINE",
"642 193 OFFCURVE",
"585 221 OFFCURVE",
"526 233 CURVE",
"577 197 LINE",
"577 334 LINE SMOOTH",
"577 492 OFFCURVE",
"503 578 OFFCURVE",
"302 578 CURVE SMOOTH",
"133 578 OFFCURVE",
"31 489 OFFCURVE",
"31 360 CURVE SMOOTH",
"31 344 LINE",
"153 300 LINE",
"153 296 LINE",
"84 283 OFFCURVE",
"43 228 OFFCURVE",
"43 145 CURVE SMOOTH",
"43 138 LINE SMOOTH",
"43 34 OFFCURVE",
"107 -10 OFFCURVE",
"191 -10 CURVE SMOOTH"
);
},
{
closed = 1;
nodes = (
"165 63 OFFCURVE",
"149 77 OFFCURVE",
"149 102 CURVE SMOOTH",
"149 127 OFFCURVE",
"165 141 OFFCURVE",
"191 141 CURVE SMOOTH",
"217 141 OFFCURVE",
"233 127 OFFCURVE",
"233 102 CURVE SMOOTH",
"233 77 OFFCURVE",
"217 63 OFFCURVE",
"191 63 CURVE SMOOTH"
);
},
{
closed = 1;
nodes = (
"559 -10 OFFCURVE",
"611 34 OFFCURVE",
"611 109 CURVE SMOOTH",
"611 184 OFFCURVE",
"559 228 OFFCURVE",
"483 228 CURVE SMOOTH",
"401 228 OFFCURVE",
"346 184 OFFCURVE",
"346 109 CURVE SMOOTH",
"346 34 OFFCURVE",
"401 -10 OFFCURVE",
"483 -10 CURVE SMOOTH"
);
},
{
closed = 1;
nodes = (
"450 70 OFFCURVE",
"434 84 OFFCURVE",
"434 109 CURVE SMOOTH",
"434 134 OFFCURVE",
"450 148 OFFCURVE",
"476 148 CURVE SMOOTH",
"502 148 OFFCURVE",
"518 134 OFFCURVE",
"518 109 CURVE SMOOTH",
"518 84 OFFCURVE",
"502 70 OFFCURVE",
"476 70 CURVE SMOOTH"
);
}
);
userData = {
com.schriftgestaltung.Glyphs.glyph.leftMetricsKey = "thoThung-thai";
com.schriftgestaltung.Glyphs.glyph.rightMetricsKey = "boBaimai-thai";
};
width = 951;
},
{
anchors = (
{
name = bottom;
position = "{723, 0}";
},
{
name = top;
position = "{723, 550}";
}
);
layerId = "90A34054-68E4-499D-AE50-276C7B026D8B";
paths = (
{
closed = 1;
nodes = (
"226 -5 OFFCURVE",
"259 27 OFFCURVE",
"259 75 CURVE SMOOTH",
"259 123 OFFCURVE",
"227 155 OFFCURVE",
"179 155 CURVE SMOOTH",
"134 155 OFFCURVE",
"107 126 OFFCURVE",
"107 76 CURVE",
"113 76 LINE",
"113 89 OFFCURVE",
"114 102 OFFCURVE",
"119 112 CURVE",
"122 128 OFFCURVE",
"122 146 OFFCURVE",
"122 166 CURVE SMOOTH",
"122 204 LINE SMOOTH",
"122 278 OFFCURVE",
"148 308 OFFCURVE",
"228 325 CURVE",
"231 346 LINE",
"83 392 LINE",
"94 377 LINE",
"94 384 LINE SMOOTH",
"94 474 OFFCURVE",
"167 535 OFFCURVE",
"275 535 CURVE SMOOTH",
"384 535 OFFCURVE",
"442 481 OFFCURVE",
"442 377 CURVE SMOOTH",
"442 204 LINE SMOOTH",
"442 177 OFFCURVE",
"442 151 OFFCURVE",
"442 130 CURVE",
"467 112 LINE",
"543 94 OFFCURVE",
"635 48 OFFCURVE",
"698 0 CURVE",
"723 0 LINE",
"723 550 LINE",
"698 550 LINE",
"698 236 LINE SMOOTH",
"698 166 OFFCURVE",
"698 95 OFFCURVE",
"699 28 CURVE",
"696 28 LINE",
"627 74 OFFCURVE",
"542 116 OFFCURVE",
"456 137 CURVE",
"467 121 LINE",
"467 382 LINE SMOOTH",
"467 496 OFFCURVE",
"395 558 OFFCURVE",
"275 558 CURVE SMOOTH",
"146 558 OFFCURVE",
"69 482 OFFCURVE",
"69 384 CURVE SMOOTH",
"69 373 LINE",
"196 338 LINE",
"196 335 LINE",
"130 316 OFFCURVE",
"97 283 OFFCURVE",
"97 204 CURVE SMOOTH",
"97 79 LINE SMOOTH",
"97 28 OFFCURVE",
"129 -5 OFFCURVE",
"178 -5 CURVE SMOOTH"
);
},
{
closed = 1;
nodes = (
"143 17 OFFCURVE",
"121 40 OFFCURVE",
"121 75 CURVE SMOOTH",
"121 110 OFFCURVE",
"143 133 OFFCURVE",
"178 133 CURVE SMOOTH",
"213 133 OFFCURVE",
"235 110 OFFCURVE",
"235 75 CURVE SMOOTH",
"235 40 OFFCURVE",
"213 17 OFFCURVE",
"178 17 CURVE SMOOTH"
);
},
{
closed = 1;
nodes = (
"448 -5 OFFCURVE",
"480 28 OFFCURVE",
"480 76 CURVE SMOOTH",
"480 122 OFFCURVE",
"448 155 OFFCURVE",
"399 155 CURVE SMOOTH",
"350 155 OFFCURVE",
"318 122 OFFCURVE",
"318 76 CURVE SMOOTH",
"318 28 OFFCURVE",
"350 -5 OFFCURVE",
"399 -5 CURVE SMOOTH"
);
},
{
closed = 1;
nodes = (
"364 17 OFFCURVE",
"342 41 OFFCURVE",
"342 76 CURVE SMOOTH",
"342 109 OFFCURVE",
"364 133 OFFCURVE",
"399 133 CURVE SMOOTH",
"433 133 OFFCURVE",
"456 109 OFFCURVE",
"456 76 CURVE SMOOTH",
"456 41 OFFCURVE",
"433 17 OFFCURVE",
"399 17 CURVE SMOOTH"
);
}
);
width = 823;
},
{
anchors = (
{
name = bottom;
position = "{785, 0}";
},
{
name = top;
position = "{785, 555}";
}
);
hints = (
{
horizontal = 1;
origin = "{0, 66}";
target = "{1, 11}";
type = Stem;
},
{
origin = "{0, 62}";
target = "{0, 16}";
type = Stem;
},
{
origin = "{0, 30}";
target = "{0, 50}";
type = Stem;
},
{
origin = "{0, 41}";
target = "{0, 38}";
type = Stem;
},
{
horizontal = 1;
origin = "{0, 53}";
target = "{0, 26}";
type = Stem;
},
{
horizontal = 1;
origin = "{0, 37}";
target = up;
type = BottomGhost;
}
);
layerId = "9148514D-BEB8-4275-B264-8F51401A425F";
paths = (
{
closed = 1;
nodes = (
"246 -7 OFFCURVE",
"285 31 OFFCURVE",
"285 88 CURVE SMOOTH",
"285 143 OFFCURVE",
"248 178 OFFCURVE",
"192 178 CURVE SMOOTH",
"138 178 OFFCURVE",
"111 153 OFFCURVE",
"103 94 CURVE",
"116 85 LINE",
"116 109 OFFCURVE",
"135 129 OFFCURVE",
"165 137 CURVE",
"166 146 OFFCURVE",
"167 156 OFFCURVE",
"167 175 CURVE SMOOTH",
"167 201 LINE SMOOTH",
"167 259 OFFCURVE",
"194 287 OFFCURVE",
"260 297 CURVE",
"266 351 LINE",
"96 411 LINE",
"132 360 LINE",
"132 374 LINE SMOOTH",
"132 448 OFFCURVE",
"193 498 OFFCURVE",
"284 498 CURVE SMOOTH",
"375 498 OFFCURVE",
"421 450 OFFCURVE",
"421 358 CURVE SMOOTH",
"421 235 LINE SMOOTH",
"421 201 OFFCURVE",
"423 174 OFFCURVE",
"426 156 CURVE",
"487 126 LINE",
"564 96 OFFCURVE",
"641 50 OFFCURVE",
"697 0 CURVE",
"785 0 LINE",
"785 555 LINE",
"695 555 LINE",
"695 243 LINE SMOOTH",
"695 190 OFFCURVE",
"696 134 OFFCURVE",
"698 76 CURVE",
"694 76 LINE",
"632 123 OFFCURVE",
"557 158 OFFCURVE",
"484 176 CURVE",
"511 152 LINE",
"511 363 LINE SMOOTH",
"511 497 OFFCURVE",
"434 566 OFFCURVE",
"285 566 CURVE SMOOTH",
"141 566 OFFCURVE",
"46 490 OFFCURVE",
"46 374 CURVE SMOOTH",
"46 361 LINE",
"179 323 LINE",
"179 319 LINE",
"109 302 OFFCURVE",
"77 258 OFFCURVE",
"77 180 CURVE SMOOTH",
"77 103 LINE SMOOTH",
"77 34 OFFCURVE",
"118 -7 OFFCURVE",
"185 -7 CURVE SMOOTH"
);
},
{
closed = 1;
nodes = (
"155 43 OFFCURVE",
"139 59 OFFCURVE",
"139 86 CURVE SMOOTH",
"139 113 OFFCURVE",
"155 129 OFFCURVE",
"183 129 CURVE SMOOTH",
"211 129 OFFCURVE",
"227 113 OFFCURVE",
"227 86 CURVE SMOOTH",
"227 59 OFFCURVE",
"211 43 OFFCURVE",
"183 43 CURVE SMOOTH"
);
},
{
closed = 1;
nodes = (
"502 -7 OFFCURVE",
"541 31 OFFCURVE",
"541 88 CURVE SMOOTH",
"541 146 OFFCURVE",
"502 183 OFFCURVE",
"441 183 CURVE SMOOTH",
"379 183 OFFCURVE",
"337 145 OFFCURVE",
"337 88 CURVE SMOOTH",
"337 31 OFFCURVE",
"379 -7 OFFCURVE",
"441 -7 CURVE SMOOTH"
);
},
{
closed = 1;
nodes = (
"411 43 OFFCURVE",
"395 59 OFFCURVE",
"395 86 CURVE SMOOTH",
"395 113 OFFCURVE",
"411 129 OFFCURVE",
"439 129 CURVE SMOOTH",
"467 129 OFFCURVE",
"483 113 OFFCURVE",
"483 86 CURVE SMOOTH",
"483 59 OFFCURVE",
"467 43 OFFCURVE",
"439 43 CURVE SMOOTH"
);
}
);
width = 874;
},
{
anchors = (
{
name = bottom;
position = "{472, 0}";
},
{
name = top;
position = "{472, 550}";
}
);
layerId = "54E3FB14-E6D2-4DF3-BA4A-5621168F9335";
paths = (
{
closed = 1;
nodes = (
"146 -5 OFFCURVE",
"166 24 OFFCURVE",
"166 75 CURVE SMOOTH",
"166 126 OFFCURVE",
"146 155 OFFCURVE",
"112 155 CURVE SMOOTH",
"84 155 OFFCURVE",
"69 127 OFFCURVE",
"69 75 CURVE",
"72 75 LINE",
"72 90 OFFCURVE",
"74 104 OFFCURVE",
"78 115 CURVE",
"80 128 OFFCURVE",
"81 148 OFFCURVE",
"81 166 CURVE SMOOTH",
"81 204 LINE SMOOTH",
"81 277 OFFCURVE",
"98 308 OFFCURVE",
"147 325 CURVE",
"149 346 LINE",
"52 392 LINE",
"62 377 LINE",
"62 384 LINE SMOOTH",
"62 481 OFFCURVE",
"104 535 OFFCURVE",
"178 535 CURVE SMOOTH",
"246 535 OFFCURVE",
"281 481 OFFCURVE",
"281 377 CURVE SMOOTH",
"281 204 LINE SMOOTH",
"281 155 OFFCURVE",
"281 144 OFFCURVE",
"282 130 CURVE",
"302 117 LINE",
"350 91 OFFCURVE",
"410 43 OFFCURVE",
"448 0 CURVE",
"472 0 LINE",
"472 550 LINE",
"447 550 LINE",
"447 236 LINE SMOOTH",
"447 166 OFFCURVE",
"447 95 OFFCURVE",
"447 33 CURVE",
"445 32 LINE",
"410 68 OFFCURVE",
"355 112 OFFCURVE",
"298 142 CURVE",
"306 129 LINE",
"306 382 LINE SMOOTH",
"306 495 OFFCURVE",
"260 558 OFFCURVE",
"178 558 CURVE SMOOTH",
"89 558 OFFCURVE",
"38 495 OFFCURVE",
"38 384 CURVE SMOOTH",
"38 373 LINE",
"119 338 LINE",
"119 335 LINE",
"78 316 OFFCURVE",
"56 283 OFFCURVE",
"56 204 CURVE SMOOTH",
"56 79 LINE SMOOTH",
"56 25 OFFCURVE",
"76 -5 OFFCURVE",
"111 -5 CURVE SMOOTH"
);
},
{
closed = 1;
nodes = (
"92 17 OFFCURVE",
"81 38 OFFCURVE",
"81 75 CURVE SMOOTH",
"81 112 OFFCURVE",
"92 133 OFFCURVE",
"112 133 CURVE SMOOTH",
"132 133 OFFCURVE",
"143 112 OFFCURVE",
"143 75 CURVE SMOOTH",
"143 38 OFFCURVE",
"132 17 OFFCURVE",
"112 17 CURVE SMOOTH"
);
},
{
closed = 1;
nodes = (
"296 -5 OFFCURVE",
"316 24 OFFCURVE",
"316 75 CURVE SMOOTH",
"316 126 OFFCURVE",
"296 155 OFFCURVE",
"262 155 CURVE SMOOTH",
"228 155 OFFCURVE",
"208 126 OFFCURVE",
"208 75 CURVE SMOOTH",
"208 24 OFFCURVE",
"228 -5 OFFCURVE",
"262 -5 CURVE SMOOTH"
);
},
{
closed = 1;
nodes = (
"242 17 OFFCURVE",
"231 38 OFFCURVE",
"231 75 CURVE SMOOTH",
"231 112 OFFCURVE",
"242 133 OFFCURVE",
"262 133 CURVE SMOOTH",
"282 133 OFFCURVE",
"293 112 OFFCURVE",
"293 75 CURVE SMOOTH",
"293 38 OFFCURVE",
"282 17 OFFCURVE",
"262 17 CURVE SMOOTH"
);
}
);
width = 534;
},
{
anchors = (
{
name = bottom;
position = "{683, 0}";
},
{
name = top;
position = "{683, 563}";
}
);
layerId = "E703E12A-5DA7-48FA-B69F-BB282FBD8E56";
paths = (
{
closed = 1;
nodes = (
"214 -10 OFFCURVE",
"254 36 OFFCURVE",
"254 107 CURVE SMOOTH",
"254 172 OFFCURVE",
"222 211 OFFCURVE",
"169 211 CURVE SMOOTH",
"114 211 OFFCURVE",
"91 189 OFFCURVE",
"75 123 CURVE",
"97 99 LINE",
"97 140 OFFCURVE",
"139 173 OFFCURVE",
"192 173 CURVE",
"192 180 OFFCURVE",
"192 186 OFFCURVE",
"192 193 CURVE SMOOTH",
"192 199 LINE SMOOTH",
"192 232 OFFCURVE",
"216 256 OFFCURVE",
"248 256 CURVE",
"256 334 LINE",
"116 415 LINE",
"177 334 LINE",
"177 358 LINE SMOOTH",
"177 404 OFFCURVE",
"202 438 OFFCURVE",
"242 438 CURVE SMOOTH",
"286 438 OFFCURVE",
"299 410 OFFCURVE",
"299 347 CURVE SMOOTH",
"299 251 LINE SMOOTH",
"299 226 OFFCURVE",
"299 205 OFFCURVE",
"307 181 CURVE",
"401 146 LINE",
"457 101 OFFCURVE",
"497 54 OFFCURVE",
"531 0 CURVE",
"683 0 LINE",
"683 563 LINE",
"527 563 LINE",
"527 254 LINE SMOOTH",
"527 218 OFFCURVE",
"528 187 OFFCURVE",
"531 146 CURVE",
"528 146 LINE",
"492 193 OFFCURVE",
"453 220 OFFCURVE",
"411 233 CURVE",
"453 197 LINE",
"453 352 LINE SMOOTH",
"453 493 OFFCURVE",
"405 578 OFFCURVE",
"257 578 CURVE SMOOTH",
"106 578 OFFCURVE",
"30 489 OFFCURVE",
"30 360 CURVE SMOOTH",
"30 344 LINE",
"120 300 LINE",
"120 296 LINE",
"71 284 OFFCURVE",
"36 233 OFFCURVE",
"36 145 CURVE SMOOTH",
"36 138 LINE SMOOTH",
"36 34 OFFCURVE",
"88 -10 OFFCURVE",
"154 -10 CURVE SMOOTH"
);
},
{
closed = 1;
nodes = (
"133 63 OFFCURVE",
"121 77 OFFCURVE",
"121 102 CURVE SMOOTH",
"121 127 OFFCURVE",
"133 141 OFFCURVE",
"152 141 CURVE SMOOTH",
"171 141 OFFCURVE",
"183 127 OFFCURVE",
"183 102 CURVE SMOOTH",
"183 77 OFFCURVE",
"171 63 OFFCURVE",
"152 63 CURVE SMOOTH"
);
},
{
closed = 1;
nodes = (
"443 -10 OFFCURVE",
"480 34 OFFCURVE",
"480 109 CURVE SMOOTH",
"480 184 OFFCURVE",
"443 228 OFFCURVE",
"379 228 CURVE SMOOTH",
"310 228 OFFCURVE",
"269 184 OFFCURVE",
"269 109 CURVE SMOOTH",
"269 34 OFFCURVE",
"310 -10 OFFCURVE",
"379 -10 CURVE SMOOTH"
);
},
{
closed = 1;
nodes = (
"354 63 OFFCURVE",
"342 77 OFFCURVE",
"342 102 CURVE SMOOTH",
"342 127 OFFCURVE",
"354 141 OFFCURVE",
"373 141 CURVE SMOOTH",
"392 141 OFFCURVE",
"404 127 OFFCURVE",
"404 102 CURVE SMOOTH",
"404 77 OFFCURVE",
"392 63 OFFCURVE",
"373 63 CURVE SMOOTH"
);
}
);
userData = {
com.schriftgestaltung.Glyphs.glyph.leftMetricsKey = "thoThung-thai";
com.schriftgestaltung.Glyphs.glyph.rightMetricsKey = "boBaimai-thai";
};
width = 731;
},
{
anchors = (
{
name = bottom;
position = "{555, 0}";
},
{
name = top;
position = "{555, 555}";
}
);
layerId = "94F80E8F-7C96-497F-B870-569C37B7A2A5";
paths = (
{
closed = 1;
nodes = (
"175 -7 OFFCURVE",
"202 29 OFFCURVE",
"202 87 CURVE SMOOTH",
"202 144 OFFCURVE",
"177 179 OFFCURVE",
"136 179 CURVE SMOOTH",
"98 179 OFFCURVE",
"77 150 OFFCURVE",
"74 94 CURVE",
"83 84 LINE",
"83 122 OFFCURVE",
"103 160 OFFCURVE",
"123 160 CURVE",
"125 165 OFFCURVE",
"126 174 OFFCURVE",
"126 186 CURVE SMOOTH",
"126 201 LINE SMOOTH",
"126 259 OFFCURVE",
"144 288 OFFCURVE",
"187 298 CURVE",
"191 341 LINE",
"77 401 LINE",
"107 360 LINE",
"107 374 LINE SMOOTH",
"107 453 OFFCURVE",
"141 499 OFFCURVE",
"200 499 CURVE SMOOTH",
"257 499 OFFCURVE",
"287 451 OFFCURVE",
"287 358 CURVE SMOOTH",
"287 234 LINE SMOOTH",
"287 202 OFFCURVE",
"289 174 OFFCURVE",
"292 155 CURVE",
"341 129 LINE",
"383 107 OFFCURVE",
"435 59 OFFCURVE",
"481 0 CURVE",
"555 0 LINE",
"555 555 LINE",
"478 555 LINE",
"478 243 LINE SMOOTH",
"478 139 OFFCURVE",
"478 111 OFFCURVE",
"479 78 CURVE",
"477 77 LINE",
"436 122 OFFCURVE",
"389 157 OFFCURVE",
"343 178 CURVE",
"364 156 LINE",
"364 363 LINE SMOOTH",
"364 498 OFFCURVE",
"310 566 OFFCURVE",
"202 566 CURVE SMOOTH",
"98 566 OFFCURVE",
"35 494 OFFCURVE",
"35 375 CURVE SMOOTH",
"35 362 LINE",
"119 323 LINE",
"119 320 LINE",
"72 302 OFFCURVE",
"49 257 OFFCURVE",
"49 180 CURVE SMOOTH",
"49 102 LINE SMOOTH",
"49 33 OFFCURVE",
"79 -7 OFFCURVE",
"130 -7 CURVE SMOOTH"
);
},
{
closed = 1;
nodes = (
"111 37 OFFCURVE",
"101 55 OFFCURVE",
"101 87 CURVE SMOOTH",
"101 119 OFFCURVE",
"111 137 OFFCURVE",
"129 137 CURVE SMOOTH",
"147 137 OFFCURVE",
"157 119 OFFCURVE",
"157 87 CURVE SMOOTH",
"157 55 OFFCURVE",
"147 37 OFFCURVE",
"129 37 CURVE SMOOTH"
);
},
{
closed = 1;
nodes = (
"353 -7 OFFCURVE",
"381 29 OFFCURVE",
"381 88 CURVE SMOOTH",
"381 147 OFFCURVE",
"353 184 OFFCURVE",
"308 184 CURVE SMOOTH",
"261 184 OFFCURVE",
"233 148 OFFCURVE",
"233 88 CURVE SMOOTH",
"233 29 OFFCURVE",
"261 -7 OFFCURVE",
"308 -7 CURVE SMOOTH"
);
},
{
closed = 1;
nodes = (
"289 38 OFFCURVE",
"279 56 OFFCURVE",
"279 88 CURVE SMOOTH",
"279 120 OFFCURVE",
"289 138 OFFCURVE",
"307 138 CURVE SMOOTH",
"325 138 OFFCURVE",
"335 120 OFFCURVE",
"335 88 CURVE SMOOTH",
"335 56 OFFCURVE",
"325 38 OFFCURVE",
"307 38 CURVE SMOOTH"
);
}
);
width = 611;
}
);
leftKerningGroup = "thoThung-thai";
leftMetricsKey = "thoThung-thai";
rightMetricsKey = "boBaimai-thai";
unicode = 0E0C;
},
{
glyphname = "choChoe_macronbelowcomb-thai";
lastChange = "2022-09-01 04:16:00 +0000";
layers = (
{
anchors = (
{
name = bottom;
position = "{723, -100}";
}
);
components = (
{
name = "choChoe-thai";
}
);
layerId = "90A34054-68E4-499D-AE50-276C7B026D8B";
paths = (
{
closed = 1;
nodes = (
"723 -100 LINE",
"723 -77 LINE",
"97 -77 LINE",
"97 -100 LINE"
);
}
);
width = 823;
},
{
anchors = (
{
name = bottom;
position = "{877, -219}";
}
);
components = (
{
name = "choChoe-thai";
}
);
layerId = "EB3A5D6C-8260-43A6-9EF2-63971FC08D48";
paths = (
{
closed = 1;
nodes = (
"877 -219 LINE",
"877 -77 LINE",
"43 -77 LINE",
"43 -219 LINE"
);
}
);
width = 951;
},
{
anchors = (
{
name = bottom;
position = "{785, -147}";
}
);
components = (
{
alignment = -1;
name = "choChoe-thai";
}
);
hints = (
{
horizontal = 1;
origin = "{0, 3}";
target = "{0, 2}";
type = Stem;
}
);
layerId = "9148514D-BEB8-4275-B264-8F51401A425F";
paths = (
{
closed = 1;
nodes = (
"785 -147 LINE",
"785 -76 LINE",
"77 -76 LINE",
"77 -147 LINE"
);
}
);
width = 874;
},
{
anchors = (
{
name = bottom;
position = "{472, -100}";
}
);
components = (
{
name = "choChoe-thai";
}
);
layerId = "54E3FB14-E6D2-4DF3-BA4A-5621168F9335";
paths = (
{
closed = 1;
nodes = (
"472 -100 LINE",
"472 -77 LINE",
"56 -77 LINE",
"56 -100 LINE"
);
}
);
width = 534;
},
{
anchors = (
{
name = bottom;
position = "{683, -219}";
}
);
components = (
{
name = "choChoe-thai";
}
);
layerId = "E703E12A-5DA7-48FA-B69F-BB282FBD8E56";
paths = (
{
closed = 1;
nodes = (
"683 -219 LINE",
"683 -77 LINE",
"36 -77 LINE",
"36 -219 LINE"
);
}
);
width = 731;
},
{
anchors = (
{
name = bottom;
position = "{555, -147}";
}
);
components = (
{
alignment = -1;
name = "choChoe-thai";
}
);
layerId = "94F80E8F-7C96-497F-B870-569C37B7A2A5";
paths = (
{
closed = 1;
nodes = (
"555 -147 LINE",
"555 -77 LINE",
"48 -77 LINE",
"48 -147 LINE"
);
}
);
width = 611;
}
);
leftKerningGroup = "thoThung-thai";
leftMetricsKey = "thoThung-thai";
rightMetricsKey = "boBaimai-thai";
script = thai;
category = Letter;
subCategory = Other;
},
{
glyphname = "yoYing-thai";
lastChange = "2022-09-01 04:16:00 +0000";
layers = (
{
anchors = (
{
name = bottom;
position = "{843, -279}";
}
);
components = (
{
name = "yoYing-thai.less";
}
);
layerId = "EB3A5D6C-8260-43A6-9EF2-63971FC08D48";
paths = (
{
closed = 1;
nodes = (
"651 -279 OFFCURVE",
"796 -237 OFFCURVE",
"843 -195 CURVE",
"843 -43 LINE",
"841 -43 LINE",
"777 -105 OFFCURVE",
"661 -167 OFFCURVE",
"611 -167 CURVE SMOOTH",
"598 -167 OFFCURVE",
"588 -166 OFFCURVE",
"576 -162 CURVE",
"595 -208 LINE",
"629 -192 OFFCURVE",
"645 -169 OFFCURVE",
"645 -133 CURVE SMOOTH",
"645 -70 OFFCURVE",
"596 -31 OFFCURVE",
"517 -31 CURVE SMOOTH",
"440 -31 OFFCURVE",
"388 -79 OFFCURVE",
"388 -150 CURVE SMOOTH",
"388 -185 OFFCURVE",
"403 -219 OFFCURVE",
"429 -241 CURVE SMOOTH",
"457 -265 OFFCURVE",
"503 -279 OFFCURVE",
"554 -279 CURVE SMOOTH"
);
},
{
closed = 1;
nodes = (
"491 -188 OFFCURVE",
"475 -174 OFFCURVE",
"475 -149 CURVE SMOOTH",
"475 -124 OFFCURVE",
"491 -110 OFFCURVE",
"517 -110 CURVE SMOOTH",
"543 -110 OFFCURVE",
"559 -124 OFFCURVE",
"559 -149 CURVE SMOOTH",
"559 -174 OFFCURVE",
"543 -188 OFFCURVE",
"517 -188 CURVE SMOOTH"
);
}
);
userData = {
com.schriftgestaltung.Glyphs.glyph.leftMetricsKey = "thoThung-thai";
com.schriftgestaltung.Glyphs.glyph.rightMetricsKey = "noNu-thai";
};
width = 938;
},
{
anchors = (
{
name = bottom;
position = "{727, -215}";
}
);
components = (
{
name = "yoYing-thai.less";
}
);
layerId = "90A34054-68E4-499D-AE50-276C7B026D8B";
paths = (
{
closed = 1;
nodes = (
"595 -215 OFFCURVE",
"677 -176 OFFCURVE",
"727 -114 CURVE",
"727 -75 LINE",
"725 -75 LINE",
"672 -153 OFFCURVE",
"594 -196 OFFCURVE",
"509 -196 CURVE SMOOTH",
"490 -196 OFFCURVE",
"473 -193 OFFCURVE",
"465 -188 CURVE",
"465 -195 LINE",
"515 -199 OFFCURVE",
"548 -171 OFFCURVE",
"548 -126 CURVE SMOOTH",
"548 -80 OFFCURVE",
"517 -49 OFFCURVE",
"470 -49 CURVE SMOOTH",
"423 -49 OFFCURVE",
"392 -80 OFFCURVE",
"392 -126 CURVE SMOOTH",
"392 -153 OFFCURVE",
"404 -175 OFFCURVE",
"426 -191 CURVE SMOOTH",
"448 -207 OFFCURVE",
"478 -215 OFFCURVE",
"515 -215 CURVE SMOOTH"
);
},
{
closed = 1;
nodes = (
"436 -182 OFFCURVE",
"415 -160 OFFCURVE",
"415 -126 CURVE SMOOTH",
"415 -92 OFFCURVE",
"436 -70 OFFCURVE",
"470 -70 CURVE SMOOTH",
"504 -70 OFFCURVE",
"525 -92 OFFCURVE",
"525 -126 CURVE SMOOTH",
"525 -160 OFFCURVE",
"504 -182 OFFCURVE",
"470 -182 CURVE SMOOTH"
);
}
);
width = 833;
},
{
anchors = (
{
name = bottom;
position = "{775, -241}";
}
);
components = (
{
alignment = -1;
name = "yoYing-thai.less";
}
);
hints = (
{
horizontal = 1;
origin = "{0, 26}";
target = "{0, 7}";
type = Stem;
},
{
horizontal = 1;
origin = "{1, 5}";
target = "{0, 17}";
type = Stem;
}
);
layerId = "9148514D-BEB8-4275-B264-8F51401A425F";
paths = (
{
closed = 1;
nodes = (
"619 -241 OFFCURVE",
"721 -203 OFFCURVE",
"775 -153 CURVE",
"775 -64 LINE",
"773 -64 LINE",
"688 -144 OFFCURVE",
"595 -191 OFFCURVE",
"519 -191 CURVE SMOOTH",
"505 -191 OFFCURVE",
"496 -190 OFFCURVE",
"486 -187 CURVE",
"508 -206 LINE",
"560 -198 OFFCURVE",
"587 -171 OFFCURVE",
"587 -129 CURVE SMOOTH",
"587 -76 OFFCURVE",
"549 -42 OFFCURVE",
"489 -42 CURVE SMOOTH",
"430 -42 OFFCURVE",
"390 -80 OFFCURVE",
"390 -136 CURVE SMOOTH",
"390 -166 OFFCURVE",
"403 -192 OFFCURVE",
"427 -211 CURVE SMOOTH",
"453 -231 OFFCURVE",
"489 -241 OFFCURVE",
"531 -241 CURVE SMOOTH"
);
},
{
closed = 1;
nodes = (
"461 -178 OFFCURVE",
"445 -162 OFFCURVE",
"445 -135 CURVE SMOOTH",
"445 -108 OFFCURVE",
"461 -92 OFFCURVE",
"489 -92 CURVE SMOOTH",
"517 -92 OFFCURVE",
"533 -108 OFFCURVE",
"533 -135 CURVE SMOOTH",
"533 -162 OFFCURVE",
"517 -178 OFFCURVE",
"489 -178 CURVE SMOOTH"
);
}
);
width = 875;
},
{
anchors = (
{
name = bottom;
position = "{472, -205}";
}
);
components = (
{
name = "yoYing-thai.less";
}
);
layerId = "54E3FB14-E6D2-4DF3-BA4A-5621168F9335";
paths = (
{
closed = 1;
nodes = (
"383 -205 OFFCURVE",
"442 -171 OFFCURVE",
"472 -127 CURVE",
"472 -86 LINE",
"470 -86 LINE",
"435 -147 OFFCURVE",
"380 -186 OFFCURVE",
"331 -186 CURVE SMOOTH",
"318 -186 OFFCURVE",
"307 -183 OFFCURVE",
"301 -178 CURVE",
"303 -185 LINE",
"337 -190 OFFCURVE",
"357 -165 OFFCURVE",
"357 -116 CURVE SMOOTH",
"357 -67 OFFCURVE",
"338 -39 OFFCURVE",
"304 -39 CURVE SMOOTH",
"270 -39 OFFCURVE",
"250 -67 OFFCURVE",
"250 -116 CURVE SMOOTH",
"250 -144 OFFCURVE",
"257 -166 OFFCURVE",
"270 -179 CURVE SMOOTH",
"287 -196 OFFCURVE",
"310 -205 OFFCURVE",
"336 -205 CURVE SMOOTH"
);
},
{
closed = 1;
nodes = (
"284 -173 OFFCURVE",
"273 -152 OFFCURVE",
"273 -116 CURVE SMOOTH",
"273 -80 OFFCURVE",
"284 -59 OFFCURVE",
"304 -59 CURVE SMOOTH",
"324 -59 OFFCURVE",
"335 -80 OFFCURVE",
"335 -116 CURVE SMOOTH",
"335 -152 OFFCURVE",
"324 -173 OFFCURVE",
"304 -173 CURVE SMOOTH"
);
}
);
width = 534;
},
{
anchors = (
{
name = bottom;
position = "{649, -279}";
}
);
components = (
{
name = "yoYing-thai.less";
}
);
layerId = "E703E12A-5DA7-48FA-B69F-BB282FBD8E56";
paths = (
{
closed = 1;
nodes = (
"505 -279 OFFCURVE",
"615 -236 OFFCURVE",
"649 -195 CURVE",
"649 -43 LINE",
"646 -43 LINE",
"608 -99 OFFCURVE",
"516 -167 OFFCURVE",
"479 -167 CURVE SMOOTH",
"465 -167 OFFCURVE",
"459 -166 OFFCURVE",
"453 -164 CURVE",
"467 -208 LINE",
"489 -192 OFFCURVE",
"499 -167 OFFCURVE",
"499 -133 CURVE SMOOTH",
"499 -70 OFFCURVE",
"460 -31 OFFCURVE",
"398 -31 CURVE SMOOTH",
"337 -31 OFFCURVE",
"296 -79 OFFCURVE",
"296 -150 CURVE SMOOTH",
"296 -190 OFFCURVE",
"310 -224 OFFCURVE",
"335 -246 CURVE SMOOTH",
"360 -268 OFFCURVE",
"393 -279 OFFCURVE",
"434 -279 CURVE SMOOTH"
);
},
{
closed = 1;
nodes = (
"379 -188 OFFCURVE",
"367 -173 OFFCURVE",
"367 -149 CURVE SMOOTH",
"367 -125 OFFCURVE",
"379 -110 OFFCURVE",
"398 -110 CURVE SMOOTH",
"417 -110 OFFCURVE",
"429 -125 OFFCURVE",
"429 -149 CURVE SMOOTH",
"429 -173 OFFCURVE",
"417 -188 OFFCURVE",
"398 -188 CURVE SMOOTH"
);
}
);
userData = {
com.schriftgestaltung.Glyphs.glyph.leftMetricsKey = "thoThung-thai";
com.schriftgestaltung.Glyphs.glyph.rightMetricsKey = "noNu-thai";
};
width = 719;
},
{
anchors = (
{
name = bottom;
position = "{540, -234}";
}
);
components = (
{
alignment = -1;
name = "yoYing-thai.less";
}
);
layerId = "94F80E8F-7C96-497F-B870-569C37B7A2A5";
paths = (
{
closed = 1;
nodes = (
"426 -234 OFFCURVE",
"508 -196 OFFCURVE",
"540 -154 CURVE",
"540 -69 LINE",
"538 -69 LINE",
"503 -127 OFFCURVE",
"432 -179 OFFCURVE",
"387 -179 CURVE SMOOTH",
"383 -179 OFFCURVE",
"380 -179 OFFCURVE",
"376 -179 CURVE",
"379 -186 LINE",
"400 -182 OFFCURVE",
"411 -159 OFFCURVE",
"411 -123 CURVE SMOOTH",
"411 -69 OFFCURVE",
"385 -36 OFFCURVE",
"339 -36 CURVE SMOOTH",
"294 -36 OFFCURVE",
"267 -72 OFFCURVE",
"267 -129 CURVE SMOOTH",
"267 -158 OFFCURVE",
"274 -184 OFFCURVE",
"291 -203 CURVE SMOOTH",
"308 -223 OFFCURVE",
"335 -234 OFFCURVE",
"368 -234 CURVE SMOOTH"
);
},
{
closed = 1;
nodes = (
"321 -179 OFFCURVE",
"311 -161 OFFCURVE",
"311 -129 CURVE SMOOTH",
"311 -97 OFFCURVE",
"321 -79 OFFCURVE",
"339 -79 CURVE SMOOTH",
"357 -79 OFFCURVE",
"367 -97 OFFCURVE",
"367 -129 CURVE SMOOTH",
"367 -161 OFFCURVE",
"357 -179 OFFCURVE",
"339 -179 CURVE SMOOTH"
);
}
);
width = 606;
}
);
leftKerningGroup = "thoThung-thai";
leftMetricsKey = "thoThung-thai";
rightMetricsKey = "boBaimai-thai";
unicode = 0E0D;
},
{
glyphname = "yoYing_macronbelowcomb-thai";
lastChange = "2022-09-01 04:16:00 +0000";
layers = (
{
anchors = (
{
name = bottom;
position = "{733, -100}";
}
);
components = (
{
name = "yoYing-thai.less";
}
);
layerId = "90A34054-68E4-499D-AE50-276C7B026D8B";
paths = (
{
closed = 1;
nodes = (
"733 -100 LINE",
"733 -77 LINE",
"97 -77 LINE",
"97 -100 LINE"
);
}
);
width = 833;
},
{
anchors = (
{
name = bottom;
position = "{864, -219}";
}
);
components = (
{
name = "yoYing-thai.less";
}
);
layerId = "EB3A5D6C-8260-43A6-9EF2-63971FC08D48";
paths = (
{
closed = 1;
nodes = (
"864 -219 LINE",
"864 -77 LINE",
"47 -77 LINE",
"47 -219 LINE"
);
}
);
width = 938;
},
{
anchors = (
{
name = bottom;
position = "{786, -147}";
}
);
components = (
{
alignment = -1;
name = "yoYing-thai.less";
}
);
hints = (
{
horizontal = 1;
origin = "{0, 3}";
target = "{0, 2}";
type = Stem;
}
);
layerId = "9148514D-BEB8-4275-B264-8F51401A425F";
paths = (
{
closed = 1;
nodes = (
"786 -147 LINE",
"786 -76 LINE",
"77 -76 LINE",
"77 -147 LINE"
);
}
);
width = 875;
},
{
anchors = (
{
name = bottom;
position = "{472, -100}";
}
);
components = (
{
name = "yoYing-thai.less";
}
);
layerId = "54E3FB14-E6D2-4DF3-BA4A-5621168F9335";
paths = (
{
closed = 1;
nodes = (
"472 -100 LINE",
"472 -77 LINE",
"56 -77 LINE",
"56 -100 LINE"
);
}
);
width = 534;
},
{
anchors = (
{
name = bottom;
position = "{671, -219}";
}
);
components = (
{
name = "yoYing-thai.less";
}
);
layerId = "E703E12A-5DA7-48FA-B69F-BB282FBD8E56";
paths = (
{
closed = 1;
nodes = (
"671 -219 LINE",
"671 -77 LINE",
"44 -77 LINE",
"44 -219 LINE"
);
}
);
width = 719;
},
{
anchors = (
{
name = bottom;
position = "{550, -147}";
}
);
components = (
{
alignment = -1;
name = "yoYing-thai.less";
}
);
layerId = "94F80E8F-7C96-497F-B870-569C37B7A2A5";
paths = (
{
closed = 1;
nodes = (
"550 -147 LINE",
"550 -77 LINE",
"49 -77 LINE",
"49 -147 LINE"
);
}
);
width = 606;
}
);
leftKerningGroup = "thoThung-thai";
leftMetricsKey = "thoThung-thai";
rightMetricsKey = "boBaimai-thai";
script = thai;
category = Letter;
subCategory = Other;
},
{
glyphname = "yoYing-thai.less";
lastChange = "2022-09-01 04:16:00 +0000";
layers = (
{
anchors = (
{
name = bottom;
position = "{864, 0}";
},
{
name = top;
position = "{864, 563}";
}
);
layerId = "EB3A5D6C-8260-43A6-9EF2-63971FC08D48";
paths = (
{
closed = 1;
nodes = (
"272 -10 OFFCURVE",
"323 36 OFFCURVE",
"323 107 CURVE SMOOTH",
"323 171 OFFCURVE",
"281 211 OFFCURVE",
"213 211 CURVE SMOOTH",
"142 211 OFFCURVE",
"113 190 OFFCURVE",
"94 123 CURVE",
"121 99 LINE",
"121 140 OFFCURVE",
"171 173 OFFCURVE",
"233 173 CURVE",
"233 178 OFFCURVE",
"233 184 OFFCURVE",
"233 189 CURVE SMOOTH",
"233 197 LINE SMOOTH",
"233 233 OFFCURVE",
"263 256 OFFCURVE",
"307 256 CURVE",
"317 334 LINE",
"134 415 LINE",
"207 334 LINE",
"207 358 LINE SMOOTH",
"207 405 OFFCURVE",
"237 438 OFFCURVE",
"298 438 CURVE SMOOTH",
"359 438 OFFCURVE",
"391 403 OFFCURVE",
"391 329 CURVE SMOOTH",
"391 128 LINE",
"357 103 LINE",
"357 0 LINE",
"734 0 LINE SMOOTH",
"818 0 OFFCURVE",
"864 46 OFFCURVE",
"864 130 CURVE SMOOTH",
"864 563 LINE",
"678 563 LINE",
"678 160 LINE SMOOTH",
"678 141 OFFCURVE",
"667 130 OFFCURVE",
"648 130 CURVE SMOOTH",
"577 130 LINE",
"577 334 LINE SMOOTH",
"577 492 OFFCURVE",
"500 578 OFFCURVE",
"302 578 CURVE SMOOTH",
"133 578 OFFCURVE",
"31 489 OFFCURVE",
"31 360 CURVE SMOOTH",
"31 344 LINE",
"153 300 LINE",
"153 296 LINE",
"86 283 OFFCURVE",
"47 228 OFFCURVE",
"47 145 CURVE SMOOTH",
"47 138 LINE SMOOTH",
"47 34 OFFCURVE",
"111 -10 OFFCURVE",
"195 -10 CURVE SMOOTH"
);
},
{
closed = 1;
nodes = (
"169 63 OFFCURVE",
"153 77 OFFCURVE",
"153 102 CURVE SMOOTH",
"153 127 OFFCURVE",
"169 141 OFFCURVE",
"195 141 CURVE SMOOTH",
"221 141 OFFCURVE",
"237 127 OFFCURVE",
"237 102 CURVE SMOOTH",
"237 77 OFFCURVE",
"221 63 OFFCURVE",
"195 63 CURVE SMOOTH"
);
}
);
userData = {
com.schriftgestaltung.Glyphs.glyph.leftMetricsKey = "thoThung-thai";
com.schriftgestaltung.Glyphs.glyph.rightMetricsKey = "boBaimai-thai";
};
width = 938;
},
{
anchors = (
{
name = bottom;
position = "{733, 0}";
},
{
name = top;
position = "{733, 550}";
}
);
layerId = "90A34054-68E4-499D-AE50-276C7B026D8B";
paths = (
{
closed = 1;
nodes = (
"226 -5 OFFCURVE",
"259 27 OFFCURVE",
"259 75 CURVE SMOOTH",
"259 123 OFFCURVE",
"227 155 OFFCURVE",
"179 155 CURVE SMOOTH",
"134 155 OFFCURVE",
"107 126 OFFCURVE",
"107 76 CURVE",
"113 76 LINE",
"113 89 OFFCURVE",
"114 102 OFFCURVE",
"119 112 CURVE",
"122 128 OFFCURVE",
"122 146 OFFCURVE",
"122 166 CURVE SMOOTH",
"122 204 LINE SMOOTH",
"122 278 OFFCURVE",
"148 308 OFFCURVE",
"228 325 CURVE",
"231 346 LINE",
"83 392 LINE",
"94 377 LINE",
"94 384 LINE SMOOTH",
"94 474 OFFCURVE",
"167 535 OFFCURVE",
"275 535 CURVE SMOOTH",
"384 535 OFFCURVE",
"442 481 OFFCURVE",
"442 377 CURVE SMOOTH",
"442 23 LINE",
"380 18 LINE",
"380 0 LINE",
"652 0 LINE SMOOTH",
"707 0 OFFCURVE",
"733 26 OFFCURVE",
"733 82 CURVE SMOOTH",
"733 550 LINE",
"708 550 LINE",
"708 85 LINE SMOOTH",
"708 41 OFFCURVE",
"690 23 OFFCURVE",
"647 23 CURVE SMOOTH",
"467 23 LINE",
"467 382 LINE SMOOTH",
"467 494 OFFCURVE",
"397 558 OFFCURVE",
"275 558 CURVE SMOOTH",
"153 558 OFFCURVE",
"69 487 OFFCURVE",
"69 384 CURVE SMOOTH",
"69 373 LINE",
"196 338 LINE",
"196 335 LINE",
"125 315 OFFCURVE",
"97 278 OFFCURVE",
"97 204 CURVE SMOOTH",
"97 79 LINE SMOOTH",
"97 28 OFFCURVE",
"129 -5 OFFCURVE",
"178 -5 CURVE SMOOTH"
);
},
{
closed = 1;
nodes = (
"143 17 OFFCURVE",
"121 40 OFFCURVE",
"121 75 CURVE SMOOTH",
"121 110 OFFCURVE",
"143 133 OFFCURVE",
"178 133 CURVE SMOOTH",
"213 133 OFFCURVE",
"235 110 OFFCURVE",
"235 75 CURVE SMOOTH",
"235 40 OFFCURVE",
"213 17 OFFCURVE",
"178 17 CURVE SMOOTH"
);
}
);
width = 833;
},
{
anchors = (
{
name = bottom;
position = "{786, 0}";
},
{
name = top;
position = "{786, 555}";
}
);
hints = (
{
horizontal = 1;
origin = "{0, 32}";
target = "{0, 43}";
type = Stem;
},
{
horizontal = 1;
origin = "{0, 47}";
target = "{0, 26}";
type = Stem;
},
{
horizontal = 1;
origin = "{0, 60}";
target = "{1, 11}";
type = Stem;
},
{
horizontal = 1;
origin = "{0, 38}";
target = down;
type = TopGhost;
},
{
origin = "{0, 30}";
target = "{0, 43}";
type = Stem;
},
{
origin = "{0, 39}";
target = "{0, 36}";
type = Stem;
},
{
origin = "{0, 57}";
target = "{0, 15}";
type = Stem;
}
);
layerId = "9148514D-BEB8-4275-B264-8F51401A425F";
paths = (
{
closed = 1;
nodes = (
"244 -7 OFFCURVE",
"284 30 OFFCURVE",
"284 88 CURVE SMOOTH",
"284 144 OFFCURVE",
"244 183 OFFCURVE",
"186 183 CURVE SMOOTH",
"134 183 OFFCURVE",
"103 150 OFFCURVE",
"103 96 CURVE",
"113 96 LINE",
"114 125 OFFCURVE",
"130 143 OFFCURVE",
"160 148 CURVE",
"165 167 OFFCURVE",
"167 182 OFFCURVE",
"167 194 CURVE SMOOTH",
"167 201 LINE SMOOTH",
"167 259 OFFCURVE",
"194 287 OFFCURVE",
"260 297 CURVE",
"266 351 LINE",
"96 411 LINE",
"132 360 LINE",
"132 374 LINE SMOOTH",
"132 448 OFFCURVE",
"193 498 OFFCURVE",
"284 498 CURVE SMOOTH",
"374 498 OFFCURVE",
"421 449 OFFCURVE",
"421 358 CURVE SMOOTH",
"421 65 LINE",
"371 52 LINE",
"371 0 LINE",
"685 0 LINE SMOOTH",
"752 0 OFFCURVE",
"786 34 OFFCURVE",
"786 101 CURVE SMOOTH",
"786 555 LINE",
"696 555 LINE",
"696 115 LINE SMOOTH",
"696 81 OFFCURVE",
"681 66 OFFCURVE",
"647 66 CURVE SMOOTH",
"511 66 LINE",
"511 358 LINE SMOOTH",
"511 495 OFFCURVE",
"434 566 OFFCURVE",
"285 566 CURVE SMOOTH",
"141 566 OFFCURVE",
"46 490 OFFCURVE",
"46 374 CURVE SMOOTH",
"46 361 LINE",
"179 323 LINE",
"179 319 LINE",
"109 302 OFFCURVE",
"77 258 OFFCURVE",
"77 180 CURVE SMOOTH",
"77 101 LINE SMOOTH",
"77 33 OFFCURVE",
"116 -7 OFFCURVE",
"182 -7 CURVE SMOOTH"
);
},
{
closed = 1;
nodes = (
"154 44 OFFCURVE",
"138 60 OFFCURVE",
"138 87 CURVE SMOOTH",
"138 114 OFFCURVE",
"154 130 OFFCURVE",
"182 130 CURVE SMOOTH",
"210 130 OFFCURVE",
"226 114 OFFCURVE",
"226 87 CURVE SMOOTH",
"226 60 OFFCURVE",
"210 44 OFFCURVE",
"182 44 CURVE SMOOTH"
);
}
);
width = 875;
},
{
anchors = (
{
name = bottom;
position = "{472, 0}";
},
{
name = top;
position = "{472, 550}";
}
);
layerId = "54E3FB14-E6D2-4DF3-BA4A-5621168F9335";
paths = (
{
closed = 1;
nodes = (
"146 -5 OFFCURVE",
"166 24 OFFCURVE",
"166 75 CURVE SMOOTH",
"166 126 OFFCURVE",
"146 155 OFFCURVE",
"112 155 CURVE SMOOTH",
"84 155 OFFCURVE",
"69 127 OFFCURVE",
"69 75 CURVE",
"72 75 LINE",
"72 90 OFFCURVE",
"74 104 OFFCURVE",
"78 115 CURVE",
"80 129 OFFCURVE",
"81 150 OFFCURVE",
"81 166 CURVE SMOOTH",
"81 204 LINE SMOOTH",
"81 277 OFFCURVE",
"98 308 OFFCURVE",
"147 325 CURVE",
"149 346 LINE",
"52 392 LINE",
"62 377 LINE",
"62 384 LINE SMOOTH",
"62 481 OFFCURVE",
"102 535 OFFCURVE",
"173 535 CURVE SMOOTH",
"240 535 OFFCURVE",
"276 483 OFFCURVE",
"276 387 CURVE SMOOTH",
"276 23 LINE",
"238 18 LINE",
"238 0 LINE",
"408 0 LINE SMOOTH",
"453 0 OFFCURVE",
"472 22 OFFCURVE",
"472 72 CURVE SMOOTH",
"472 550 LINE",
"447 550 LINE",
"447 75 LINE SMOOTH",
"447 35 OFFCURVE",
"437 23 OFFCURVE",
"404 23 CURVE SMOOTH",
"301 23 LINE",
"301 391 LINE SMOOTH",
"301 498 OFFCURVE",
"255 558 OFFCURVE",
"172 558 CURVE SMOOTH",
"86 558 OFFCURVE",
"38 495 OFFCURVE",
"38 384 CURVE SMOOTH",
"38 373 LINE",
"119 338 LINE",
"119 335 LINE",
"74 314 OFFCURVE",
"56 277 OFFCURVE",
"56 204 CURVE SMOOTH",
"56 79 LINE SMOOTH",
"56 25 OFFCURVE",
"76 -5 OFFCURVE",
"111 -5 CURVE SMOOTH"
);
},
{
closed = 1;
nodes = (
"92 17 OFFCURVE",
"81 38 OFFCURVE",
"81 75 CURVE SMOOTH",
"81 112 OFFCURVE",
"92 133 OFFCURVE",
"112 133 CURVE SMOOTH",
"132 133 OFFCURVE",
"143 112 OFFCURVE",
"143 75 CURVE SMOOTH",
"143 38 OFFCURVE",
"132 17 OFFCURVE",
"112 17 CURVE SMOOTH"
);
}
);
width = 534;
},
{
anchors = (
{
name = bottom;
position = "{671, 0}";
},
{
name = top;
position = "{671, 563}";
}
);
layerId = "E703E12A-5DA7-48FA-B69F-BB282FBD8E56";
paths = (
{
closed = 1;
nodes = (
"218 -10 OFFCURVE",
"258 36 OFFCURVE",
"258 107 CURVE SMOOTH",
"258 171 OFFCURVE",
"226 211 OFFCURVE",
"174 211 CURVE SMOOTH",
"119 211 OFFCURVE",
"96 190 OFFCURVE",
"78 123 CURVE",
"101 99 LINE",
"101 139 OFFCURVE",
"145 173 OFFCURVE",
"197 173 CURVE",
"196 177 OFFCURVE",
"195 181 OFFCURVE",
"195 189 CURVE SMOOTH",
"195 197 LINE SMOOTH",
"195 232 OFFCURVE",
"218 256 OFFCURVE",
"248 256 CURVE",
"256 334 LINE",
"116 415 LINE",
"177 334 LINE",
"177 358 LINE SMOOTH",
"177 409 OFFCURVE",
"198 438 OFFCURVE",
"235 438 CURVE SMOOTH",
"277 438 OFFCURVE",
"297 402 OFFCURVE",
"297 329 CURVE SMOOTH",
"297 128 LINE",
"275 103 LINE",
"275 0 LINE",
"568 0 LINE SMOOTH",
"634 0 OFFCURVE",
"671 46 OFFCURVE",
"671 130 CURVE SMOOTH",
"671 563 LINE",
"515 563 LINE",
"515 160 LINE SMOOTH",
"515 142 OFFCURVE",
"508 130 OFFCURVE",
"496 130 CURVE SMOOTH",
"453 130 LINE",
"453 334 LINE SMOOTH",
"453 502 OFFCURVE",
"386 578 OFFCURVE",
"239 578 CURVE SMOOTH",
"112 578 OFFCURVE",
"30 492 OFFCURVE",
"30 360 CURVE SMOOTH",
"30 344 LINE",
"120 300 LINE",
"120 296 LINE",
"69 283 OFFCURVE",
"39 228 OFFCURVE",
"39 145 CURVE SMOOTH",
"39 138 LINE SMOOTH",
"39 45 OFFCURVE",
"83 -10 OFFCURVE",
"158 -10 CURVE SMOOTH"
);
},
{
closed = 1;
nodes = (
"139 63 OFFCURVE",
"127 78 OFFCURVE",
"127 102 CURVE SMOOTH",
"127 126 OFFCURVE",
"139 141 OFFCURVE",
"158 141 CURVE SMOOTH",
"177 141 OFFCURVE",
"189 126 OFFCURVE",
"189 102 CURVE SMOOTH",
"189 78 OFFCURVE",
"177 63 OFFCURVE",
"158 63 CURVE SMOOTH"
);
}
);
userData = {
com.schriftgestaltung.Glyphs.glyph.leftMetricsKey = "thoThung-thai";
com.schriftgestaltung.Glyphs.glyph.rightMetricsKey = "boBaimai-thai";
};
width = 719;
},
{
anchors = (
{
name = bottom;
position = "{550, 0}";
},
{
name = top;
position = "{550, 555}";
}
);
layerId = "94F80E8F-7C96-497F-B870-569C37B7A2A5";
paths = (
{
closed = 1;
nodes = (
"175 -7 OFFCURVE",
"202 29 OFFCURVE",
"202 87 CURVE SMOOTH",
"202 144 OFFCURVE",
"177 179 OFFCURVE",
"136 179 CURVE SMOOTH",
"98 179 OFFCURVE",
"77 150 OFFCURVE",
"74 94 CURVE",
"83 84 LINE",
"83 122 OFFCURVE",
"103 160 OFFCURVE",
"123 160 CURVE",
"125 165 OFFCURVE",
"126 174 OFFCURVE",
"126 186 CURVE SMOOTH",
"126 201 LINE SMOOTH",
"126 258 OFFCURVE",
"145 288 OFFCURVE",
"187 298 CURVE",
"191 341 LINE",
"77 401 LINE",
"107 360 LINE",
"107 374 LINE SMOOTH",
"107 453 OFFCURVE",
"140 499 OFFCURVE",
"197 499 CURVE SMOOTH",
"254 499 OFFCURVE",
"284 452 OFFCURVE",
"284 364 CURVE SMOOTH",
"284 64 LINE",
"253 51 LINE",
"253 0 LINE",
"471 0 LINE SMOOTH",
"524 0 OFFCURVE",
"550 31 OFFCURVE",
"550 95 CURVE SMOOTH",
"550 555 LINE",
"473 555 LINE",
"473 108 LINE SMOOTH",
"473 77 OFFCURVE",
"463 65 OFFCURVE",
"439 65 CURVE SMOOTH",
"361 65 LINE",
"361 369 LINE SMOOTH",
"361 500 OFFCURVE",
"307 566 OFFCURVE",
"198 566 CURVE SMOOTH",
"96 566 OFFCURVE",
"35 494 OFFCURVE",
"35 375 CURVE SMOOTH",
"35 362 LINE",
"119 323 LINE",
"119 320 LINE",
"72 302 OFFCURVE",
"49 256 OFFCURVE",
"49 180 CURVE SMOOTH",
"49 102 LINE SMOOTH",
"49 33 OFFCURVE",
"79 -7 OFFCURVE",
"130 -7 CURVE SMOOTH"
);
},
{
closed = 1;
nodes = (
"111 37 OFFCURVE",
"101 55 OFFCURVE",
"101 87 CURVE SMOOTH",
"101 119 OFFCURVE",
"111 137 OFFCURVE",
"129 137 CURVE SMOOTH",
"147 137 OFFCURVE",
"157 119 OFFCURVE",
"157 87 CURVE SMOOTH",
"157 55 OFFCURVE",
"147 37 OFFCURVE",
"129 37 CURVE SMOOTH"
);
}
);
width = 606;
}
);
leftKerningGroup = "thoThung-thai";
leftMetricsKey = "thoThung-thai";
rightMetricsKey = "boBaimai-thai";
},
{
glyphname = "doChada-thai";
lastChange = "2022-10-15 12:38:20 +0000";
layers = (
{
anchors = (
{
name = bottom;
position = "{606, -240}";
},
{
name = top;
position = "{596, 563}";
}
);
layerId = "EB3A5D6C-8260-43A6-9EF2-63971FC08D48";
paths = (
{
closed = 1;
nodes = (
"289 -250 OFFCURVE",
"348 -196 OFFCURVE",
"348 -126 CURVE",
"268 -94 LINE",
"268 -137 OFFCURVE",
"243 -172 OFFCURVE",
"212 -172 CURVE SMOOTH",
"190 -172 OFFCURVE",
"173 -157 OFFCURVE",
"173 -136 CURVE SMOOTH",
"173 -112 OFFCURVE",
"192 -96 OFFCURVE",
"220 -96 CURVE SMOOTH",
"250 -96 OFFCURVE",
"291 -114 OFFCURVE",
"339 -148 CURVE SMOOTH",
"377 -175 OFFCURVE",
"406 -203 OFFCURVE",
"439 -240 CURVE",
"606 -240 LINE",
"606 334 LINE SMOOTH",
"606 501 OFFCURVE",
"518 578 OFFCURVE",
"326 578 CURVE SMOOTH",
"157 578 OFFCURVE",
"50 493 OFFCURVE",
"50 360 CURVE SMOOTH",
"50 344 LINE",
"178 310 LINE",
"178 306 LINE",
"139 292 OFFCURVE",
"119 272 OFFCURVE",
"119 248 CURVE SMOOTH",
"119 245 LINE SMOOTH",
"119 235 OFFCURVE",
"123 219 OFFCURVE",
"129 202 CURVE",
"164 210 OFFCURVE",
"202 189 OFFCURVE",
"214 154 CURVE",
"231 154 LINE",
"228 201 OFFCURVE",
"188 231 OFFCURVE",
"129 231 CURVE SMOOTH",
"63 231 OFFCURVE",
"17 187 OFFCURVE",
"17 124 CURVE SMOOTH",
"17 56 OFFCURVE",
"68 12 OFFCURVE",
"148 12 CURVE SMOOTH",
"236 12 OFFCURVE",
"290 64 OFFCURVE",
"290 149 CURVE SMOOTH",
"290 223 LINE SMOOTH",
"290 251 OFFCURVE",
"301 263 OFFCURVE",
"332 266 CURVE",
"342 344 LINE",
"153 415 LINE",
"225 334 LINE",
"225 358 LINE SMOOTH",
"225 408 OFFCURVE",
"261 438 OFFCURVE",
"322 438 CURVE SMOOTH",
"388 438 OFFCURVE",
"420 402 OFFCURVE",
"420 329 CURVE SMOOTH",
"420 26 LINE SMOOTH",
"420 -42 OFFCURVE",
"422 -69 OFFCURVE",
"431 -107 CURVE",
"427 -107 LINE",
"400 -78 OFFCURVE",
"368 -59 OFFCURVE",
"332 -52 CURVE",
"292 -27 OFFCURVE",
"253 -15 OFFCURVE",
"215 -15 CURVE SMOOTH",
"136 -15 OFFCURVE",
"82 -65 OFFCURVE",
"82 -139 CURVE SMOOTH",
"82 -204 OFFCURVE",
"136 -250 OFFCURVE",
"211 -250 CURVE SMOOTH"
);
},
{
closed = 1;
nodes = (
"114 85 OFFCURVE",
"98 99 OFFCURVE",
"98 124 CURVE SMOOTH",
"98 149 OFFCURVE",
"114 163 OFFCURVE",
"140 163 CURVE SMOOTH",
"166 163 OFFCURVE",
"182 149 OFFCURVE",
"182 124 CURVE SMOOTH",
"182 99 OFFCURVE",
"166 85 OFFCURVE",
"140 85 CURVE SMOOTH"
);
},
{
closed = 1;
nodes = (
"368 -50 OFFCURVE",
"371 -28 OFFCURVE",
"372 10 CURVE",
"273 10 LINE",
"273 -15 OFFCURVE",
"271 -43 OFFCURVE",
"268 -70 CURVE",
"358 -93 LINE"
);
}
);
userData = {
com.schriftgestaltung.Glyphs.glyph.leftMetricsKey = "phoSamphao-thai";
com.schriftgestaltung.Glyphs.glyph.rightMetricsKey = "khoKhwai-thai";
};
width = 678;
},
{
anchors = (
{
name = bottom;
position = "{496, -232}";
},
{
name = top;
position = "{486, 550}";
}
);
layerId = "90A34054-68E4-499D-AE50-276C7B026D8B";
paths = (
{
closed = 1;
nodes = (
"264 -237 OFFCURVE",
"307 -189 OFFCURVE",
"321 -103 CURVE",
"297 -95 LINE",
"290 -170 OFFCURVE",
"254 -215 OFFCURVE",
"201 -215 CURVE SMOOTH",
"161 -215 OFFCURVE",
"133 -189 OFFCURVE",
"133 -152 CURVE SMOOTH",
"133 -111 OFFCURVE",
"165 -85 OFFCURVE",
"215 -85 CURVE SMOOTH",
"245 -85 OFFCURVE",
"273 -92 OFFCURVE",
"309 -109 CURVE SMOOTH",
"371 -138 OFFCURVE",
"428 -181 OFFCURVE",
"471 -232 CURVE",
"496 -232 LINE",
"496 382 LINE SMOOTH",
"496 496 OFFCURVE",
"425 558 OFFCURVE",
"297 558 CURVE SMOOTH",
"166 558 OFFCURVE",
"84 491 OFFCURVE",
"84 384 CURVE SMOOTH",
"84 373 LINE",
"223 335 LINE",
"223 332 LINE",
"173 315 OFFCURVE",
"154 281 OFFCURVE",
"154 206 CURVE SMOOTH",
"154 159 LINE SMOOTH",
"154 144 OFFCURVE",
"156 130 OFFCURVE",
"159 118 CURVE",
"164 112 OFFCURVE",
"166 104 OFFCURVE",
"167 96 CURVE",
"172 96 LINE",
"168 131 OFFCURVE",
"138 156 OFFCURVE",
"99 156 CURVE SMOOTH",
"53 156 OFFCURVE",
"21 124 OFFCURVE",
"21 78 CURVE SMOOTH",
"21 32 OFFCURVE",
"54 0 OFFCURVE",
"100 0 CURVE SMOOTH",
"148 0 OFFCURVE",
"179 33 OFFCURVE",
"179 82 CURVE SMOOTH",
"179 206 LINE SMOOTH",
"179 283 OFFCURVE",
"194 307 OFFCURVE",
"255 323 CURVE",
"258 344 LINE",
"98 392 LINE",
"109 377 LINE",
"109 384 LINE SMOOTH",
"109 478 OFFCURVE",
"179 535 OFFCURVE",
"297 535 CURVE SMOOTH",
"412 535 OFFCURVE",
"471 482 OFFCURVE",
"471 377 CURVE SMOOTH",
"471 -14 LINE SMOOTH",
"471 -82 OFFCURVE",
"471 -112 OFFCURVE",
"473 -196 CURVE",
"470 -196 LINE",
"421 -149 OFFCURVE",
"366 -110 OFFCURVE",
"314 -87 CURVE",
"279 -70 OFFCURVE",
"248 -63 OFFCURVE",
"212 -63 CURVE SMOOTH",
"151 -63 OFFCURVE",
"109 -99 OFFCURVE",
"109 -152 CURVE SMOOTH",
"109 -202 OFFCURVE",
"147 -237 OFFCURVE",
"201 -237 CURVE SMOOTH"
);
},
{
closed = 1;
nodes = (
"66 22 OFFCURVE",
"45 44 OFFCURVE",
"45 78 CURVE SMOOTH",
"45 112 OFFCURVE",
"66 134 OFFCURVE",
"100 134 CURVE SMOOTH",
"134 134 OFFCURVE",
"155 112 OFFCURVE",
"155 78 CURVE SMOOTH",
"155 44 OFFCURVE",
"134 22 OFFCURVE",
"100 22 CURVE SMOOTH"
);
},
{
closed = 1;
nodes = (
"327 -53 OFFCURVE",
"328 -26 OFFCURVE",
"328 0 CURVE",
"303 0 LINE",
"303 -44 OFFCURVE",
"302 -67 OFFCURVE",
"299 -87 CURVE",
"323 -96 LINE"
);
}
);
width = 591;
},
{
anchors = (
{
name = bottom;
position = "{543, -235}";
},
{
name = top;
position = "{533, 555}";
}
);
hints = (
{
horizontal = 1;
origin = "{0, 83}";
target = "{0, 6}";
type = Stem;
},
{
horizontal = 1;
origin = "{0, 23}";
target = "{0, 63}";
type = Stem;
},
{
origin = "{0, 67}";
target = "{0, 19}";
type = Stem;
},
{
origin = "{0, 33}";
target = "{0, 52}";
type = Stem;
}
);
layerId = "9148514D-BEB8-4275-B264-8F51401A425F";
paths = (
{
closed = 1;
nodes = (
"278 -242 OFFCURVE",
"328 -191 OFFCURVE",
"336 -112 CURVE",
"278 -94 LINE",
"275 -151 OFFCURVE",
"247 -188 OFFCURVE",
"208 -188 CURVE SMOOTH",
"180 -188 OFFCURVE",
"160 -170 OFFCURVE",
"160 -146 CURVE SMOOTH",
"160 -114 OFFCURVE",
"181 -97 OFFCURVE",
"220 -97 CURVE SMOOTH",
"247 -97 OFFCURVE",
"279 -105 OFFCURVE",
"309 -118 CURVE SMOOTH",
"353 -138 OFFCURVE",
"407 -180 OFFCURVE",
"460 -235 CURVE",
"543 -235 LINE",
"543 363 LINE SMOOTH",
"543 498 OFFCURVE",
"466 566 OFFCURVE",
"312 566 CURVE SMOOTH",
"164 566 OFFCURVE",
"70 492 OFFCURVE",
"70 374 CURVE SMOOTH",
"70 361 LINE",
"206 321 LINE",
"206 317 LINE",
"154 301 OFFCURVE",
"136 274 OFFCURVE",
"136 215 CURVE SMOOTH",
"136 201 LINE SMOOTH",
"136 189 OFFCURVE",
"138 174 OFFCURVE",
"143 155 CURVE",
"170 151 OFFCURVE",
"189 134 OFFCURVE",
"190 113 CURVE",
"200 113 LINE",
"200 159 OFFCURVE",
"167 190 OFFCURVE",
"118 190 CURVE SMOOTH",
"62 190 OFFCURVE",
"22 151 OFFCURVE",
"22 95 CURVE SMOOTH",
"22 37 OFFCURVE",
"61 0 OFFCURVE",
"121 0 CURVE SMOOTH",
"189 0 OFFCURVE",
"226 39 OFFCURVE",
"226 108 CURVE SMOOTH",
"226 213 LINE SMOOTH",
"226 264 OFFCURVE",
"240 284 OFFCURVE",
"287 296 CURVE",
"293 350 LINE",
"120 411 LINE",
"156 360 LINE",
"156 374 LINE SMOOTH",
"156 451 OFFCURVE",
"214 498 OFFCURVE",
"310 498 CURVE SMOOTH",
"404 498 OFFCURVE",
"453 451 OFFCURVE",
"453 358 CURVE SMOOTH",
"453 2 LINE SMOOTH",
"453 -70 OFFCURVE",
"455 -123 OFFCURVE",
"458 -160 CURVE",
"455 -160 LINE",
"414 -119 OFFCURVE",
"369 -88 OFFCURVE",
"324 -70 CURVE",
"288 -52 OFFCURVE",
"253 -43 OFFCURVE",
"215 -43 CURVE SMOOTH",
"146 -43 OFFCURVE",
"99 -85 OFFCURVE",
"99 -146 CURVE SMOOTH",
"99 -201 OFFCURVE",
"145 -242 OFFCURVE",
"207 -242 CURVE SMOOTH"
);
},
{
closed = 1;
nodes = (
"94 51 OFFCURVE",
"78 67 OFFCURVE",
"78 94 CURVE SMOOTH",
"78 121 OFFCURVE",
"94 137 OFFCURVE",
"122 137 CURVE SMOOTH",
"150 137 OFFCURVE",
"166 121 OFFCURVE",
"166 94 CURVE SMOOTH",
"166 67 OFFCURVE",
"150 51 OFFCURVE",
"122 51 CURVE SMOOTH"
);
},
{
closed = 1;
nodes = (
"346 -61 OFFCURVE",
"348 -32 OFFCURVE",
"348 0 CURVE",
"283 0 LINE",
"283 -30 OFFCURVE",
"282 -57 OFFCURVE",
"279 -80 CURVE",
"340 -94 LINE"
);
}
);
width = 629;
},
{
anchors = (
{
name = bottom;
position = "{323, -232}";
},
{
name = top;
position = "{317, 550}";
}
);
layerId = "54E3FB14-E6D2-4DF3-BA4A-5621168F9335";
paths = (
{
closed = 1;
nodes = (
"174 -237 OFFCURVE",
"201 -190 OFFCURVE",
"207 -103 CURVE",
"187 -95 LINE",
"183 -169 OFFCURVE",
"162 -216 OFFCURVE",
"133 -216 CURVE SMOOTH",
"109 -216 OFFCURVE",
"91 -189 OFFCURVE",
"91 -152 CURVE SMOOTH",
"91 -111 OFFCURVE",
"109 -85 OFFCURVE",
"138 -85 CURVE SMOOTH",
"157 -85 OFFCURVE",
"175 -92 OFFCURVE",
"197 -109 CURVE SMOOTH",
"235 -138 OFFCURVE",
"272 -185 OFFCURVE",
"296 -232 CURVE",
"323 -232 LINE",
"323 391 LINE SMOOTH",
"323 497 OFFCURVE",
"274 558 OFFCURVE",
"189 558 CURVE SMOOTH",
"100 558 OFFCURVE",
"50 495 OFFCURVE",
"50 384 CURVE SMOOTH",
"50 373 LINE",
"138 335 LINE",
"138 332 LINE",
"107 315 OFFCURVE",
"95 280 OFFCURVE",
"95 206 CURVE SMOOTH",
"95 159 LINE SMOOTH",
"95 144 OFFCURVE",
"96 129 OFFCURVE",
"99 118 CURVE",
"104 110 OFFCURVE",
"106 103 OFFCURVE",
"106 96 CURVE",
"109 96 LINE",
"107 134 OFFCURVE",
"91 156 OFFCURVE",
"65 156 CURVE SMOOTH",
"32 156 OFFCURVE",
"13 128 OFFCURVE",
"13 78 CURVE SMOOTH",
"13 28 OFFCURVE",
"32 0 OFFCURVE",
"66 0 CURVE SMOOTH",
"100 0 OFFCURVE",
"120 30 OFFCURVE",
"120 82 CURVE SMOOTH",
"120 206 LINE SMOOTH",
"120 283 OFFCURVE",
"129 307 OFFCURVE",
"165 323 CURVE",
"168 344 LINE",
"64 392 LINE",
"75 377 LINE",
"75 384 LINE SMOOTH",
"75 481 OFFCURVE",
"116 535 OFFCURVE",
"189 535 CURVE SMOOTH",
"260 535 OFFCURVE",
"298 483 OFFCURVE",
"298 387 CURVE SMOOTH",
"298 -14 LINE SMOOTH",
"298 -68 OFFCURVE",
"299 -149 OFFCURVE",
"300 -194 CURVE",
"298 -194 LINE",
"269 -149 OFFCURVE",
"236 -112 OFFCURVE",
"201 -86 CURVE",
"176 -70 OFFCURVE",
"157 -63 OFFCURVE",
"136 -63 CURVE SMOOTH",
"96 -63 OFFCURVE",
"68 -99 OFFCURVE",
"68 -152 CURVE SMOOTH",
"68 -201 OFFCURVE",
"95 -237 OFFCURVE",
"131 -237 CURVE SMOOTH"
);
},
{
closed = 1;
nodes = (
"47 22 OFFCURVE",
"36 42 OFFCURVE",
"36 78 CURVE SMOOTH",
"36 114 OFFCURVE",
"47 134 OFFCURVE",
"65 134 CURVE SMOOTH",
"85 134 OFFCURVE",
"96 114 OFFCURVE",
"96 78 CURVE SMOOTH",
"96 42 OFFCURVE",
"85 22 OFFCURVE",
"65 22 CURVE SMOOTH"
);
},
{
closed = 1;
nodes = (
"211 -72 OFFCURVE",
"212 -36 OFFCURVE",
"212 0 CURVE",
"191 0 LINE",
"191 -30 OFFCURVE",
"190 -61 OFFCURVE",
"188 -87 CURVE",
"208 -96 LINE"
);
}
);
width = 383;
},
{
anchors = (
{
name = bottom;
position = "{465, -240}";
},
{
name = top;
position = "{459, 563}";
}
);
layerId = "E703E12A-5DA7-48FA-B69F-BB282FBD8E56";
paths = (
{
closed = 1;
nodes = (
"219 -250 OFFCURVE",
"264 -196 OFFCURVE",
"263 -126 CURVE",
"199 -94 LINE",
"201 -136 OFFCURVE",
"183 -172 OFFCURVE",
"160 -172 CURVE SMOOTH",
"144 -172 OFFCURVE",
"132 -157 OFFCURVE",
"132 -136 CURVE SMOOTH",
"132 -113 OFFCURVE",
"146 -96 OFFCURVE",
"165 -96 CURVE SMOOTH",
"188 -96 OFFCURVE",
"226 -117 OFFCURVE",
"259 -148 CURVE SMOOTH",
"281 -168 OFFCURVE",
"302 -197 OFFCURVE",
"326 -240 CURVE",
"465 -240 LINE",
"465 334 LINE SMOOTH",
"465 503 OFFCURVE",
"398 578 OFFCURVE",
"247 578 CURVE SMOOTH",
"117 578 OFFCURVE",
"34 493 OFFCURVE",
"34 360 CURVE SMOOTH",
"34 344 LINE",
"129 310 LINE",
"129 306 LINE",
"99 292 OFFCURVE",
"86 274 OFFCURVE",
"86 248 CURVE SMOOTH",
"86 245 LINE SMOOTH",
"86 237 OFFCURVE",
"89 222 OFFCURVE",
"94 202 CURVE",
"122 210 OFFCURVE",
"154 189 OFFCURVE",
"165 154 CURVE",
"179 154 LINE",
"176 199 OFFCURVE",
"143 231 OFFCURVE",
"99 231 CURVE SMOOTH",
"48 231 OFFCURVE",
"12 187 OFFCURVE",
"12 124 CURVE SMOOTH",
"12 56 OFFCURVE",
"53 12 OFFCURVE",
"116 12 CURVE SMOOTH",
"185 12 OFFCURVE",
"229 66 OFFCURVE",
"229 149 CURVE SMOOTH",
"229 223 LINE SMOOTH",
"229 250 OFFCURVE",
"237 262 OFFCURVE",
"257 266 CURVE",
"265 344 LINE",
"121 415 LINE",
"182 334 LINE",
"182 360 LINE SMOOTH",
"182 410 OFFCURVE",
"204 438 OFFCURVE",
"244 438 CURVE SMOOTH",
"288 438 OFFCURVE",
"309 404 OFFCURVE",
"309 331 CURVE SMOOTH",
"309 26 LINE SMOOTH",
"309 -41 OFFCURVE",
"311 -70 OFFCURVE",
"319 -107 CURVE",
"316 -107 LINE",
"295 -77 OFFCURVE",
"273 -59 OFFCURVE",
"250 -52 CURVE",
"221 -28 OFFCURVE",
"190 -15 OFFCURVE",
"161 -15 CURVE SMOOTH",
"101 -15 OFFCURVE",
"59 -66 OFFCURVE",
"59 -139 CURVE SMOOTH",
"59 -203 OFFCURVE",
"101 -250 OFFCURVE",
"159 -250 CURVE SMOOTH"
);
},
{
closed = 1;
nodes = (
"89 85 OFFCURVE",
"77 100 OFFCURVE",
"77 124 CURVE SMOOTH",
"77 148 OFFCURVE",
"89 163 OFFCURVE",
"108 163 CURVE SMOOTH",
"127 163 OFFCURVE",
"139 148 OFFCURVE",
"139 124 CURVE SMOOTH",
"139 100 OFFCURVE",
"127 85 OFFCURVE",
"108 85 CURVE SMOOTH"
);
},
{
closed = 1;
nodes = (
"279 -54 OFFCURVE",
"282 -29 OFFCURVE",
"283 10 CURVE",
"203 10 LINE",
"203 -14 OFFCURVE",
"201 -48 OFFCURVE",
"199 -70 CURVE",
"272 -93 LINE"
);
}
);
userData = {
com.schriftgestaltung.Glyphs.glyph.leftMetricsKey = "phoSamphao-thai";
com.schriftgestaltung.Glyphs.glyph.rightMetricsKey = "khoKhwai-thai";
};
width = 511;
},
{
anchors = (
{
name = bottom;
position = "{382, -235}";
},
{
name = top;
position = "{376, 555}";
}
);
layerId = "94F80E8F-7C96-497F-B870-569C37B7A2A5";
paths = (
{
closed = 1;
nodes = (
"196 -242 OFFCURVE",
"229 -193 OFFCURVE",
"232 -112 CURVE",
"195 -91 LINE",
"193 -156 OFFCURVE",
"173 -199 OFFCURVE",
"146 -199 CURVE SMOOTH",
"126 -199 OFFCURVE",
"110 -176 OFFCURVE",
"110 -146 CURVE SMOOTH",
"110 -112 OFFCURVE",
"127 -89 OFFCURVE",
"151 -89 CURVE SMOOTH",
"171 -89 OFFCURVE",
"196 -101 OFFCURVE",
"224 -124 CURVE SMOOTH",
"257 -151 OFFCURVE",
"287 -190 OFFCURVE",
"311 -235 CURVE",
"382 -235 LINE",
"382 369 LINE SMOOTH",
"382 500 OFFCURVE",
"326 566 OFFCURVE",
"215 566 CURVE SMOOTH",
"110 566 OFFCURVE",
"47 495 OFFCURVE",
"47 375 CURVE SMOOTH",
"47 362 LINE",
"137 325 LINE",
"137 322 LINE",
"104 303 OFFCURVE",
"94 279 OFFCURVE",
"94 223 CURVE SMOOTH",
"94 204 LINE SMOOTH",
"94 192 OFFCURVE",
"96 175 OFFCURVE",
"99 168 CURVE",
"113 168 OFFCURVE",
"126 149 OFFCURVE",
"132 119 CURVE",
"139 119 LINE",
"137 159 OFFCURVE",
"114 186 OFFCURVE",
"81 186 CURVE SMOOTH",
"41 186 OFFCURVE",
"15 150 OFFCURVE",
"15 96 CURVE SMOOTH",
"15 39 OFFCURVE",
"43 5 OFFCURVE",
"89 5 CURVE SMOOTH",
"139 5 OFFCURVE",
"171 45 OFFCURVE",
"171 108 CURVE SMOOTH",
"171 215 LINE SMOOTH",
"171 276 OFFCURVE",
"176 290 OFFCURVE",
"204 301 CURVE",
"209 344 LINE",
"89 401 LINE",
"120 360 LINE",
"120 374 LINE SMOOTH",
"120 453 OFFCURVE",
"154 499 OFFCURVE",
"213 499 CURVE SMOOTH",
"273 499 OFFCURVE",
"305 452 OFFCURVE",
"305 364 CURVE SMOOTH",
"305 2 LINE SMOOTH",
"305 -65 OFFCURVE",
"307 -122 OFFCURVE",
"310 -160 CURVE",
"308 -160 LINE",
"285 -124 OFFCURVE",
"256 -92 OFFCURVE",
"223 -73 CURVE",
"198 -53 OFFCURVE",
"174 -44 OFFCURVE",
"149 -44 CURVE SMOOTH",
"100 -44 OFFCURVE",
"67 -86 OFFCURVE",
"67 -147 CURVE SMOOTH",
"67 -202 OFFCURVE",
"100 -242 OFFCURVE",
"145 -242 CURVE SMOOTH"
);
},
{
closed = 1;
nodes = (
"70 46 OFFCURVE",
"60 64 OFFCURVE",
"60 96 CURVE SMOOTH",
"60 128 OFFCURVE",
"70 146 OFFCURVE",
"88 146 CURVE SMOOTH",
"106 146 OFFCURVE",
"116 128 OFFCURVE",
"116 96 CURVE SMOOTH",
"116 64 OFFCURVE",
"106 46 OFFCURVE",
"88 46 CURVE SMOOTH"
);
},
{
closed = 1;
nodes = (
"240 -72 OFFCURVE",
"243 -31 OFFCURVE",
"243 4 CURVE",
"197 4 LINE",
"197 -18 OFFCURVE",
"196 -41 OFFCURVE",
"195 -75 CURVE",
"236 -95 LINE"
);
}
);
width = 438;
}
);
leftKerningGroup = "phoSamphao-thai";
leftMetricsKey = "phoSamphao-thai";
rightKerningGroup = "koKai-thai";
rightMetricsKey = "koKai-thai";
unicode = 0E0E;
},
{
glyphname = "doChada-thai.short";
lastChange = "2022-10-15 12:38:22 +0000";
layers = (
{
anchors = (
{
name = bottom;
position = "{606, -190}";
},
{
name = top;
position = "{596, 563}";
}
);
layerId = "EB3A5D6C-8260-43A6-9EF2-63971FC08D48";
paths = (
{
closed = 1;
nodes = (
"287 -200 OFFCURVE",
"348 -150 OFFCURVE",
"348 -86 CURVE",
"268 -54 LINE",
"268 -94 OFFCURVE",
"242 -128 OFFCURVE",
"210 -128 CURVE SMOOTH",
"188 -128 OFFCURVE",
"173 -115 OFFCURVE",
"173 -96 CURVE SMOOTH",
"173 -74 OFFCURVE",
"191 -60 OFFCURVE",
"218 -60 CURVE SMOOTH",
"249 -60 OFFCURVE",
"300 -80 OFFCURVE",
"339 -108 CURVE SMOOTH",
"398 -150 OFFCURVE",
"418 -167 OFFCURVE",
"439 -190 CURVE",
"606 -190 LINE",
"606 334 LINE SMOOTH",
"606 501 OFFCURVE",
"518 578 OFFCURVE",
"326 578 CURVE SMOOTH",
"157 578 OFFCURVE",
"50 493 OFFCURVE",
"50 360 CURVE SMOOTH",
"50 344 LINE",
"178 310 LINE",
"178 306 LINE",
"136 293 OFFCURVE",
"119 278 OFFCURVE",
"119 253 CURVE SMOOTH",
"119 250 LINE SMOOTH",
"119 243 OFFCURVE",
"123 234 OFFCURVE",
"129 223 CURVE",
"164 231 OFFCURVE",
"202 210 OFFCURVE",
"214 175 CURVE",
"231 175 LINE",
"228 222 OFFCURVE",
"188 252 OFFCURVE",
"129 252 CURVE SMOOTH",
"63 252 OFFCURVE",
"17 208 OFFCURVE",
"17 145 CURVE SMOOTH",
"17 77 OFFCURVE",
"68 33 OFFCURVE",
"148 33 CURVE SMOOTH",
"236 33 OFFCURVE",
"290 85 OFFCURVE",
"290 170 CURVE SMOOTH",
"290 223 LINE SMOOTH",
"290 251 OFFCURVE",
"301 263 OFFCURVE",
"332 266 CURVE",
"342 344 LINE",
"153 415 LINE",
"225 334 LINE",
"225 358 LINE SMOOTH",
"225 408 OFFCURVE",
"261 438 OFFCURVE",
"322 438 CURVE SMOOTH",
"388 438 OFFCURVE",
"420 402 OFFCURVE",
"420 329 CURVE SMOOTH",
"420 46 LINE SMOOTH",
"420 -14 OFFCURVE",
"422 -40 OFFCURVE",
"431 -77 CURVE",
"427 -77 LINE",
"400 -48 OFFCURVE",
"368 -29 OFFCURVE",
"332 -22 CURVE",
"291 3 OFFCURVE",
"251 15 OFFCURVE",
"205 15 CURVE SMOOTH",
"133 15 OFFCURVE",
"82 -29 OFFCURVE",
"82 -93 CURVE SMOOTH",
"82 -156 OFFCURVE",
"134 -200 OFFCURVE",
"209 -200 CURVE SMOOTH"
);
},
{
closed = 1;
nodes = (
"114 106 OFFCURVE",
"98 120 OFFCURVE",
"98 145 CURVE SMOOTH",
"98 170 OFFCURVE",
"114 184 OFFCURVE",
"140 184 CURVE SMOOTH",
"166 184 OFFCURVE",
"182 170 OFFCURVE",
"182 145 CURVE SMOOTH",
"182 120 OFFCURVE",
"166 106 OFFCURVE",
"140 106 CURVE SMOOTH"
);
},
{
closed = 1;
nodes = (
"368 -20 OFFCURVE",
"371 2 OFFCURVE",
"372 40 CURVE",
"273 40 LINE",
"273 15 OFFCURVE",
"271 -13 OFFCURVE",
"268 -40 CURVE",
"358 -63 LINE"
);
}
);
userData = {
com.schriftgestaltung.Glyphs.glyph.rightMetricsKey = "khoKhwai-thai";
};
width = 678;
},
{
anchors = (
{
name = bottom;
position = "{496, -190}";
},
{
name = top;
position = "{486, 550}";
}
);
layerId = "90A34054-68E4-499D-AE50-276C7B026D8B";
paths = (
{
closed = 1;
nodes = (
"262 -195 OFFCURVE",
"307 -145 OFFCURVE",
"322 -61 CURVE",
"300 -53 LINE",
"287 -131 OFFCURVE",
"252 -173 OFFCURVE",
"201 -173 CURVE SMOOTH",
"161 -173 OFFCURVE",
"134 -147 OFFCURVE",
"134 -110 CURVE SMOOTH",
"134 -68 OFFCURVE",
"165 -43 OFFCURVE",
"215 -43 CURVE SMOOTH",
"243 -43 OFFCURVE",
"275 -51 OFFCURVE",
"309 -67 CURVE SMOOTH",
"366 -92 OFFCURVE",
"429 -140 OFFCURVE",
"471 -190 CURVE",
"496 -190 LINE",
"496 382 LINE SMOOTH",
"496 496 OFFCURVE",
"425 558 OFFCURVE",
"297 558 CURVE SMOOTH",
"165 558 OFFCURVE",
"84 491 OFFCURVE",
"84 384 CURVE SMOOTH",
"84 373 LINE",
"223 335 LINE",
"223 332 LINE",
"173 315 OFFCURVE",
"154 281 OFFCURVE",
"154 206 CURVE SMOOTH",
"154 184 LINE SMOOTH",
"154 170 OFFCURVE",
"156 156 OFFCURVE",
"159 143 CURVE",
"163 137 OFFCURVE",
"166 130 OFFCURVE",
"167 121 CURVE",
"171 121 LINE",
"167 157 OFFCURVE",
"137 181 OFFCURVE",
"99 181 CURVE SMOOTH",
"53 181 OFFCURVE",
"21 149 OFFCURVE",
"21 103 CURVE SMOOTH",
"21 57 OFFCURVE",
"54 25 OFFCURVE",
"100 25 CURVE SMOOTH",
"148 25 OFFCURVE",
"179 58 OFFCURVE",
"179 107 CURVE SMOOTH",
"179 206 LINE SMOOTH",
"179 283 OFFCURVE",
"194 307 OFFCURVE",
"255 323 CURVE",
"258 344 LINE",
"98 392 LINE",
"109 377 LINE",
"109 384 LINE SMOOTH",
"109 478 OFFCURVE",
"179 535 OFFCURVE",
"297 535 CURVE SMOOTH",
"412 535 OFFCURVE",
"471 482 OFFCURVE",
"471 377 CURVE SMOOTH",
"471 28 LINE SMOOTH",
"471 -15 OFFCURVE",
"472 -91 OFFCURVE",
"473 -154 CURVE",
"470 -154 LINE",
"421 -107 OFFCURVE",
"366 -68 OFFCURVE",
"314 -45 CURVE",
"277 -29 OFFCURVE",
"242 -21 OFFCURVE",
"211 -21 CURVE SMOOTH",
"150 -21 OFFCURVE",
"109 -57 OFFCURVE",
"109 -110 CURVE SMOOTH",
"109 -160 OFFCURVE",
"147 -195 OFFCURVE",
"201 -195 CURVE SMOOTH"
);
},
{
closed = 1;
nodes = (
"66 47 OFFCURVE",
"45 69 OFFCURVE",
"45 103 CURVE SMOOTH",
"45 137 OFFCURVE",
"66 159 OFFCURVE",
"100 159 CURVE SMOOTH",
"134 159 OFFCURVE",
"155 137 OFFCURVE",
"155 103 CURVE SMOOTH",
"155 69 OFFCURVE",
"134 47 OFFCURVE",
"100 47 CURVE SMOOTH"
);
},
{
closed = 1;
nodes = (
"326 -21 OFFCURVE",
"328 4 OFFCURVE",
"328 25 CURVE",
"306 25 LINE",
"306 -8 OFFCURVE",
"305 -28 OFFCURVE",
"302 -45 CURVE",
"323 -54 LINE"
);
}
);
width = 591;
},
{
anchors = (
{
name = bottom;
position = "{543, -190}";
},
{
name = top;
position = "{533, 555}";
}
);
hints = (
{
horizontal = 1;
origin = "{0, 23}";
target = "{0, 63}";
type = Stem;
},
{
origin = "{0, 67}";
target = "{0, 19}";
type = Stem;
},
{
horizontal = 1;
origin = "{0, 83}";
target = "{0, 6}";
type = Stem;
},
{
origin = "{0, 33}";
target = "{0, 52}";
type = Stem;
}
);
layerId = "9148514D-BEB8-4275-B264-8F51401A425F";
paths = (
{
closed = 1;
nodes = (
"278 -197 OFFCURVE",
"328 -146 OFFCURVE",
"336 -67 CURVE",
"278 -49 LINE",
"275 -106 OFFCURVE",
"247 -143 OFFCURVE",
"208 -143 CURVE SMOOTH",
"180 -143 OFFCURVE",
"160 -125 OFFCURVE",
"160 -101 CURVE SMOOTH",
"160 -69 OFFCURVE",
"181 -52 OFFCURVE",
"220 -52 CURVE SMOOTH",
"246 -52 OFFCURVE",
"278 -60 OFFCURVE",
"309 -73 CURVE SMOOTH",
"353 -93 OFFCURVE",
"407 -135 OFFCURVE",
"460 -190 CURVE",
"543 -190 LINE",
"543 363 LINE SMOOTH",
"543 498 OFFCURVE",
"466 566 OFFCURVE",
"312 566 CURVE SMOOTH",
"164 566 OFFCURVE",
"70 492 OFFCURVE",
"70 374 CURVE SMOOTH",
"70 361 LINE",
"206 321 LINE",
"206 317 LINE",
"160 303 OFFCURVE",
"136 276 OFFCURVE",
"136 240 CURVE SMOOTH",
"136 236 LINE SMOOTH",
"136 218 OFFCURVE",
"138 203 OFFCURVE",
"143 183 CURVE",
"170 179 OFFCURVE",
"189 162 OFFCURVE",
"190 141 CURVE",
"200 141 LINE",
"200 187 OFFCURVE",
"167 218 OFFCURVE",
"118 218 CURVE SMOOTH",
"62 218 OFFCURVE",
"22 179 OFFCURVE",
"22 123 CURVE SMOOTH",
"22 65 OFFCURVE",
"61 28 OFFCURVE",
"121 28 CURVE SMOOTH",
"189 28 OFFCURVE",
"226 67 OFFCURVE",
"226 136 CURVE SMOOTH",
"226 237 LINE SMOOTH",
"226 267 OFFCURVE",
"245 285 OFFCURVE",
"287 296 CURVE",
"293 350 LINE",
"120 411 LINE",
"156 360 LINE",
"156 374 LINE SMOOTH",
"156 451 OFFCURVE",
"214 498 OFFCURVE",
"310 498 CURVE SMOOTH",
"404 498 OFFCURVE",
"453 451 OFFCURVE",
"453 358 CURVE SMOOTH",
"453 47 LINE SMOOTH",
"453 -19 OFFCURVE",
"455 -74 OFFCURVE",
"458 -115 CURVE",
"455 -115 LINE",
"414 -74 OFFCURVE",
"369 -43 OFFCURVE",
"324 -25 CURVE",
"287 -7 OFFCURVE",
"252 2 OFFCURVE",
"215 2 CURVE SMOOTH",
"146 2 OFFCURVE",
"99 -40 OFFCURVE",
"99 -101 CURVE SMOOTH",
"99 -156 OFFCURVE",
"145 -197 OFFCURVE",
"207 -197 CURVE SMOOTH"
);
},
{
closed = 1;
nodes = (
"94 79 OFFCURVE",
"78 95 OFFCURVE",
"78 122 CURVE SMOOTH",
"78 149 OFFCURVE",
"94 165 OFFCURVE",
"122 165 CURVE SMOOTH",
"150 165 OFFCURVE",
"166 149 OFFCURVE",
"166 122 CURVE SMOOTH",
"166 95 OFFCURVE",
"150 79 OFFCURVE",
"122 79 CURVE SMOOTH"
);
},
{
closed = 1;
nodes = (
"346 -25 OFFCURVE",
"348 -1 OFFCURVE",
"348 28 CURVE",
"283 28 LINE",
"283 1 OFFCURVE",
"282 -18 OFFCURVE",
"279 -35 CURVE",
"340 -49 LINE"
);
}
);
width = 629;
},
{
anchors = (
{
name = bottom;
position = "{323, -190}";
},
{
name = top;
position = "{317, 550}";
}
);
layerId = "54E3FB14-E6D2-4DF3-BA4A-5621168F9335";
paths = (
{
closed = 1;
nodes = (
"175 -195 OFFCURVE",
"201 -148 OFFCURVE",
"207 -61 CURVE",
"187 -53 LINE",
"183 -126 OFFCURVE",
"162 -174 OFFCURVE",
"134 -174 CURVE SMOOTH",
"109 -174 OFFCURVE",
"91 -147 OFFCURVE",
"91 -110 CURVE SMOOTH",
"91 -69 OFFCURVE",
"109 -43 OFFCURVE",
"138 -43 CURVE SMOOTH",
"157 -43 OFFCURVE",
"175 -50 OFFCURVE",
"197 -67 CURVE SMOOTH",
"234 -95 OFFCURVE",
"271 -142 OFFCURVE",
"296 -190 CURVE",
"323 -190 LINE",
"323 391 LINE SMOOTH",
"323 497 OFFCURVE",
"274 558 OFFCURVE",
"189 558 CURVE SMOOTH",
"100 558 OFFCURVE",
"50 495 OFFCURVE",
"50 384 CURVE SMOOTH",
"50 373 LINE",
"138 335 LINE",
"138 332 LINE",
"107 315 OFFCURVE",
"95 280 OFFCURVE",
"95 206 CURVE SMOOTH",
"95 184 LINE SMOOTH",
"95 167 OFFCURVE",
"96 153 OFFCURVE",
"99 143 CURVE",
"104 135 OFFCURVE",
"106 128 OFFCURVE",
"106 121 CURVE",
"109 121 LINE",
"107 159 OFFCURVE",
"91 181 OFFCURVE",
"65 181 CURVE SMOOTH",
"32 181 OFFCURVE",
"13 153 OFFCURVE",
"13 103 CURVE SMOOTH",
"13 53 OFFCURVE",
"32 25 OFFCURVE",
"66 25 CURVE SMOOTH",
"100 25 OFFCURVE",
"120 55 OFFCURVE",
"120 107 CURVE SMOOTH",
"120 206 LINE SMOOTH",
"120 283 OFFCURVE",
"129 307 OFFCURVE",
"165 323 CURVE",
"168 344 LINE",
"64 392 LINE",
"75 377 LINE",
"75 384 LINE SMOOTH",
"75 481 OFFCURVE",
"116 535 OFFCURVE",
"189 535 CURVE SMOOTH",
"260 535 OFFCURVE",
"298 483 OFFCURVE",
"298 387 CURVE SMOOTH",
"298 28 LINE SMOOTH",
"298 -22 OFFCURVE",
"299 -103 OFFCURVE",
"300 -152 CURVE",
"298 -152 LINE",
"269 -107 OFFCURVE",
"236 -70 OFFCURVE",
"201 -44 CURVE",
"176 -28 OFFCURVE",
"157 -21 OFFCURVE",
"136 -21 CURVE SMOOTH",
"96 -21 OFFCURVE",
"68 -57 OFFCURVE",
"68 -110 CURVE SMOOTH",
"68 -159 OFFCURVE",
"95 -195 OFFCURVE",
"132 -195 CURVE SMOOTH"
);
},
{
closed = 1;
nodes = (
"47 47 OFFCURVE",
"36 67 OFFCURVE",
"36 103 CURVE SMOOTH",
"36 139 OFFCURVE",
"47 159 OFFCURVE",
"66 159 CURVE SMOOTH",
"85 159 OFFCURVE",
"96 139 OFFCURVE",
"96 103 CURVE SMOOTH",
"96 67 OFFCURVE",
"85 47 OFFCURVE",
"66 47 CURVE SMOOTH"
);
},
{
closed = 1;
nodes = (
"211 -36 OFFCURVE",
"212 -11 OFFCURVE",
"212 25 CURVE",
"191 25 LINE",
"191 -9 OFFCURVE",
"190 -27 OFFCURVE",
"188 -45 CURVE",
"208 -54 LINE"
);
}
);
width = 383;
},
{
anchors = (
{
name = bottom;
position = "{465, -190}";
},
{
name = top;
position = "{459, 563}";
}
);
layerId = "E703E12A-5DA7-48FA-B69F-BB282FBD8E56";
paths = (
{
closed = 1;
nodes = (
"218 -200 OFFCURVE",
"264 -150 OFFCURVE",
"263 -86 CURVE",
"199 -54 LINE",
"200 -94 OFFCURVE",
"181 -128 OFFCURVE",
"158 -128 CURVE SMOOTH",
"143 -128 OFFCURVE",
"132 -115 OFFCURVE",
"132 -96 CURVE SMOOTH",
"132 -75 OFFCURVE",
"145 -60 OFFCURVE",
"163 -60 CURVE SMOOTH",
"188 -60 OFFCURVE",
"230 -81 OFFCURVE",
"259 -108 CURVE SMOOTH",
"291 -138 OFFCURVE",
"310 -162 OFFCURVE",
"326 -190 CURVE",
"465 -190 LINE",
"465 334 LINE SMOOTH",
"465 503 OFFCURVE",
"398 578 OFFCURVE",
"247 578 CURVE SMOOTH",
"117 578 OFFCURVE",
"34 493 OFFCURVE",
"34 360 CURVE SMOOTH",
"34 344 LINE",
"129 310 LINE",
"129 306 LINE",
"100 293 OFFCURVE",
"86 274 OFFCURVE",
"86 249 CURVE SMOOTH",
"86 246 LINE SMOOTH",
"86 239 OFFCURVE",
"89 229 OFFCURVE",
"94 223 CURVE",
"122 231 OFFCURVE",
"154 210 OFFCURVE",
"165 175 CURVE",
"179 175 LINE",
"176 220 OFFCURVE",
"143 252 OFFCURVE",
"99 252 CURVE SMOOTH",
"48 252 OFFCURVE",
"12 208 OFFCURVE",
"12 145 CURVE SMOOTH",
"12 77 OFFCURVE",
"53 33 OFFCURVE",
"116 33 CURVE SMOOTH",
"185 33 OFFCURVE",
"229 87 OFFCURVE",
"229 170 CURVE SMOOTH",
"229 223 LINE SMOOTH",
"229 250 OFFCURVE",
"237 262 OFFCURVE",
"257 266 CURVE",
"265 344 LINE",
"121 415 LINE",
"182 334 LINE",
"182 360 LINE SMOOTH",
"182 410 OFFCURVE",
"204 438 OFFCURVE",
"244 438 CURVE SMOOTH",
"288 438 OFFCURVE",
"309 404 OFFCURVE",
"309 331 CURVE SMOOTH",
"309 46 LINE SMOOTH",
"309 -6 OFFCURVE",
"312 -38 OFFCURVE",
"319 -77 CURVE",
"316 -77 LINE",
"295 -47 OFFCURVE",
"273 -29 OFFCURVE",
"250 -22 CURVE",
"219 3 OFFCURVE",
"188 15 OFFCURVE",
"152 15 CURVE SMOOTH",
"98 15 OFFCURVE",
"59 -30 OFFCURVE",
"59 -93 CURVE SMOOTH",
"59 -156 OFFCURVE",
"99 -200 OFFCURVE",
"157 -200 CURVE SMOOTH"
);
},
{
closed = 1;
nodes = (
"89 106 OFFCURVE",
"77 121 OFFCURVE",
"77 145 CURVE SMOOTH",
"77 169 OFFCURVE",
"89 184 OFFCURVE",
"108 184 CURVE SMOOTH",
"127 184 OFFCURVE",
"139 169 OFFCURVE",
"139 145 CURVE SMOOTH",
"139 121 OFFCURVE",
"127 106 OFFCURVE",
"108 106 CURVE SMOOTH"
);
},
{
closed = 1;
nodes = (
"279 -24 OFFCURVE",
"282 1 OFFCURVE",
"283 40 CURVE",
"203 40 LINE",
"203 16 OFFCURVE",
"201 -18 OFFCURVE",
"199 -40 CURVE",
"272 -63 LINE"
);
}
);
userData = {
com.schriftgestaltung.Glyphs.glyph.rightMetricsKey = "khoKhwai-thai";
};
width = 511;
},
{
anchors = (
{
name = bottom;
position = "{382, -190}";
},
{
name = top;
position = "{376, 555}";
}
);
layerId = "94F80E8F-7C96-497F-B870-569C37B7A2A5";
paths = (
{
closed = 1;
nodes = (
"197 -197 OFFCURVE",
"230 -148 OFFCURVE",
"233 -68 CURVE",
"195 -53 LINE",
"193 -114 OFFCURVE",
"173 -155 OFFCURVE",
"146 -155 CURVE SMOOTH",
"125 -155 OFFCURVE",
"110 -134 OFFCURVE",
"110 -104 CURVE SMOOTH",
"110 -72 OFFCURVE",
"126 -50 OFFCURVE",
"151 -50 CURVE SMOOTH",
"173 -50 OFFCURVE",
"201 -63 OFFCURVE",
"224 -83 CURVE SMOOTH",
"256 -110 OFFCURVE",
"287 -149 OFFCURVE",
"311 -190 CURVE",
"382 -190 LINE",
"382 369 LINE SMOOTH",
"382 500 OFFCURVE",
"326 566 OFFCURVE",
"215 566 CURVE SMOOTH",
"110 566 OFFCURVE",
"47 495 OFFCURVE",
"47 375 CURVE SMOOTH",
"47 362 LINE",
"137 325 LINE",
"137 322 LINE",
"103 304 OFFCURVE",
"95 273 OFFCURVE",
"95 241 CURVE SMOOTH",
"95 227 LINE SMOOTH",
"95 211 OFFCURVE",
"97 197 OFFCURVE",
"99 191 CURVE",
"113 191 OFFCURVE",
"126 172 OFFCURVE",
"132 142 CURVE",
"139 142 LINE",
"137 182 OFFCURVE",
"114 209 OFFCURVE",
"81 209 CURVE SMOOTH",
"41 209 OFFCURVE",
"15 173 OFFCURVE",
"15 119 CURVE SMOOTH",
"15 62 OFFCURVE",
"43 28 OFFCURVE",
"89 28 CURVE SMOOTH",
"139 28 OFFCURVE",
"171 68 OFFCURVE",
"171 131 CURVE SMOOTH",
"171 214 LINE SMOOTH",
"171 276 OFFCURVE",
"176 290 OFFCURVE",
"204 301 CURVE",
"209 344 LINE",
"89 401 LINE",
"120 360 LINE",
"120 374 LINE SMOOTH",
"120 453 OFFCURVE",
"154 499 OFFCURVE",
"213 499 CURVE SMOOTH",
"273 499 OFFCURVE",
"305 452 OFFCURVE",
"305 364 CURVE SMOOTH",
"305 35 LINE SMOOTH",
"305 -22 OFFCURVE",
"307 -80 OFFCURVE",
"310 -122 CURVE",
"308 -122 LINE",
"283 -83 OFFCURVE",
"254 -53 OFFCURVE",
"223 -35 CURVE",
"192 -16 OFFCURVE",
"168 -7 OFFCURVE",
"145 -7 CURVE SMOOTH",
"99 -7 OFFCURVE",
"67 -47 OFFCURVE",
"67 -103 CURVE SMOOTH",
"67 -158 OFFCURVE",
"99 -197 OFFCURVE",
"145 -197 CURVE SMOOTH"
);
},
{
closed = 1;
nodes = (
"70 69 OFFCURVE",
"60 87 OFFCURVE",
"60 119 CURVE SMOOTH",
"60 151 OFFCURVE",
"70 169 OFFCURVE",
"88 169 CURVE SMOOTH",
"106 169 OFFCURVE",
"116 151 OFFCURVE",
"116 119 CURVE SMOOTH",
"116 87 OFFCURVE",
"106 69 OFFCURVE",
"88 69 CURVE SMOOTH"
);
},
{
closed = 1;
nodes = (
"240 -25 OFFCURVE",
"242 -2 OFFCURVE",
"243 31 CURVE",
"199 31 LINE",
"199 -7 OFFCURVE",
"198 -28 OFFCURVE",
"195 -43 CURVE",
"236 -58 LINE"
);
}
);
width = 438;
}
);
leftKerningGroup = "phoSamphao-thai";
leftMetricsKey = "phoSamphao-thai";
rightKerningGroup = "koKai-thai";
rightMetricsKey = "koKai-thai";
},
{
glyphname = "toPatak-thai";
lastChange = "2022-09-01 04:16:00 +0000";
layers = (
{
anchors = (
{
name = bottom;
position = "{606, -240}";
},
{
name = top;
position = "{596, 563}";
}
);
layerId = "EB3A5D6C-8260-43A6-9EF2-63971FC08D48";
paths = (
{
closed = 1;
nodes = (
"217 -250 OFFCURVE",
"264 -206 OFFCURVE",
"280 -128 CURVE",
"202 -91 LINE",
"190 -146 OFFCURVE",
"172 -169 OFFCURVE",
"144 -169 CURVE SMOOTH",
"123 -169 OFFCURVE",
"109 -156 OFFCURVE",
"109 -137 CURVE SMOOTH",
"109 -114 OFFCURVE",
"126 -100 OFFCURVE",
"155 -100 CURVE SMOOTH",
"216 -100 OFFCURVE",
"276 -149 OFFCURVE",
"306 -240 CURVE",
"353 -240 LINE",
"377 -180 LINE",
"381 -180 LINE",
"435 -240 LINE",
"606 -240 LINE",
"606 334 LINE SMOOTH",
"606 501 OFFCURVE",
"518 578 OFFCURVE",
"326 578 CURVE SMOOTH",
"157 578 OFFCURVE",
"50 493 OFFCURVE",
"50 360 CURVE SMOOTH",
"50 344 LINE",
"178 310 LINE",
"178 306 LINE",
"139 292 OFFCURVE",
"119 272 OFFCURVE",
"119 248 CURVE SMOOTH",
"119 245 LINE SMOOTH",
"119 234 OFFCURVE",
"123 218 OFFCURVE",
"129 202 CURVE",
"164 210 OFFCURVE",
"202 189 OFFCURVE",
"214 154 CURVE",
"231 154 LINE",
"228 201 OFFCURVE",
"188 231 OFFCURVE",
"129 231 CURVE SMOOTH",
"63 231 OFFCURVE",
"17 187 OFFCURVE",
"17 124 CURVE SMOOTH",
"17 56 OFFCURVE",
"68 12 OFFCURVE",
"148 12 CURVE SMOOTH",
"236 12 OFFCURVE",
"290 64 OFFCURVE",
"290 149 CURVE SMOOTH",
"290 223 LINE SMOOTH",
"290 251 OFFCURVE",
"301 263 OFFCURVE",
"332 266 CURVE",
"342 344 LINE",
"153 415 LINE",
"225 334 LINE",
"225 358 LINE SMOOTH",
"225 408 OFFCURVE",
"261 438 OFFCURVE",
"322 438 CURVE SMOOTH",
"388 438 OFFCURVE",
"420 402 OFFCURVE",
"420 329 CURVE SMOOTH",
"420 18 LINE SMOOTH",
"420 -59 OFFCURVE",
"422 -86 OFFCURVE",
"431 -125 CURVE",
"427 -125 LINE",
"384 -76 LINE",
"334 -76 LINE",
"317 -125 LINE",
"313 -125 LINE",
"276 -57 OFFCURVE",
"224 -25 OFFCURVE",
"153 -25 CURVE SMOOTH",
"75 -25 OFFCURVE",
"27 -68 OFFCURVE",
"27 -136 CURVE SMOOTH",
"27 -203 OFFCURVE",
"77 -250 OFFCURVE",
"149 -250 CURVE SMOOTH"
);
},
{
closed = 1;
nodes = (
"114 85 OFFCURVE",
"98 99 OFFCURVE",
"98 124 CURVE SMOOTH",
"98 149 OFFCURVE",
"114 163 OFFCURVE",
"140 163 CURVE SMOOTH",
"166 163 OFFCURVE",
"182 149 OFFCURVE",
"182 124 CURVE SMOOTH",
"182 99 OFFCURVE",
"166 85 OFFCURVE",
"140 85 CURVE SMOOTH"
);
},
{
closed = 1;
nodes = (
"299 -71 OFFCURVE",
"307 -32 OFFCURVE",
"309 0 CURVE",
"213 0 LINE",
"212 -19 OFFCURVE",
"208 -43 OFFCURVE",
"202 -67 CURVE",
"289 -106 LINE"
);
}
);
userData = {
com.schriftgestaltung.Glyphs.glyph.leftMetricsKey = "phoSamphao-thai";
com.schriftgestaltung.Glyphs.glyph.rightMetricsKey = "khoKhwai-thai";
};
width = 678;
},
{
anchors = (
{
name = bottom;
position = "{496, -232}";
},
{
name = top;
position = "{486, 550}";
}
);
layerId = "90A34054-68E4-499D-AE50-276C7B026D8B";
paths = (
{
closed = 1;
nodes = (
"236 -237 OFFCURVE",
"277 -196 OFFCURVE",
"293 -125 CURVE",
"274 -111 LINE",
"259 -179 OFFCURVE",
"227 -215 OFFCURVE",
"181 -215 CURVE SMOOTH",
"140 -215 OFFCURVE",
"113 -190 OFFCURVE",
"113 -152 CURVE SMOOTH",
"113 -113 OFFCURVE",
"143 -85 OFFCURVE",
"187 -85 CURVE SMOOTH",
"254 -85 OFFCURVE",
"309 -140 OFFCURVE",
"334 -232 CURVE",
"361 -232 LINE",
"398 -123 LINE",
"402 -123 LINE",
"460 -232 LINE",
"496 -232 LINE",
"496 382 LINE SMOOTH",
"496 496 OFFCURVE",
"425 558 OFFCURVE",
"297 558 CURVE SMOOTH",
"166 558 OFFCURVE",
"84 491 OFFCURVE",
"84 384 CURVE SMOOTH",
"84 373 LINE",
"223 335 LINE",
"223 332 LINE",
"173 315 OFFCURVE",
"154 281 OFFCURVE",
"154 206 CURVE SMOOTH",
"154 159 LINE SMOOTH",
"154 144 OFFCURVE",
"156 130 OFFCURVE",
"159 118 CURVE",
"164 112 OFFCURVE",
"166 104 OFFCURVE",
"167 96 CURVE",
"172 96 LINE",
"168 131 OFFCURVE",
"138 156 OFFCURVE",
"99 156 CURVE SMOOTH",
"53 156 OFFCURVE",
"21 124 OFFCURVE",
"21 78 CURVE SMOOTH",
"21 32 OFFCURVE",
"54 0 OFFCURVE",
"100 0 CURVE SMOOTH",
"148 0 OFFCURVE",
"179 33 OFFCURVE",
"179 82 CURVE SMOOTH",
"179 206 LINE SMOOTH",
"179 283 OFFCURVE",
"194 307 OFFCURVE",
"255 323 CURVE",
"258 344 LINE",
"98 392 LINE",
"109 377 LINE",
"109 384 LINE SMOOTH",
"109 478 OFFCURVE",
"179 535 OFFCURVE",
"297 535 CURVE SMOOTH",
"412 535 OFFCURVE",
"471 482 OFFCURVE",
"471 377 CURVE SMOOTH",
"471 -62 LINE SMOOTH",
"471 -112 OFFCURVE",
"472 -139 OFFCURVE",
"474 -209 CURVE",
"470 -209 LINE",
"410 -97 LINE",
"386 -97 LINE",
"350 -205 LINE",
"346 -205 LINE",
"323 -120 OFFCURVE",
"259 -63 OFFCURVE",
"187 -63 CURVE SMOOTH",
"129 -63 OFFCURVE",
"89 -99 OFFCURVE",
"89 -152 CURVE SMOOTH",
"89 -202 OFFCURVE",
"127 -237 OFFCURVE",
"181 -237 CURVE SMOOTH"
);
},
{
closed = 1;
nodes = (
"66 22 OFFCURVE",
"45 44 OFFCURVE",
"45 78 CURVE SMOOTH",
"45 112 OFFCURVE",
"66 134 OFFCURVE",
"100 134 CURVE SMOOTH",
"134 134 OFFCURVE",
"155 112 OFFCURVE",
"155 78 CURVE SMOOTH",
"155 44 OFFCURVE",
"134 22 OFFCURVE",
"100 22 CURVE SMOOTH"
);
},
{
closed = 1;
nodes = (
"308 -75 OFFCURVE",
"312 -42 OFFCURVE",
"311 0 CURVE",
"286 0 LINE",
"287 -49 OFFCURVE",
"285 -75 OFFCURVE",
"276 -104 CURVE",
"297 -119 LINE"
);
}
);
width = 591;
},
{
anchors = (
{
name = bottom;
position = "{543, -235}";
},
{
name = top;
position = "{533, 555}";
}
);
hints = (
{
horizontal = 1;
origin = "{0, 23}";
target = "{0, 63}";
type = Stem;
},
{
origin = "{0, 34}";
target = "{0, 53}";
type = Stem;
},
{
origin = "{0, 68}";
target = "{0, 20}";
type = Stem;
},
{
horizontal = 1;
origin = "{0, 85}";
target = "{0, 6}";
type = Stem;
}
);
layerId = "9148514D-BEB8-4275-B264-8F51401A425F";
paths = (
{
closed = 1;
nodes = (
"231 -242 OFFCURVE",
"274 -200 OFFCURVE",
"290 -126 CURVE",
"244 -103 LINE",
"230 -161 OFFCURVE",
"205 -189 OFFCURVE",
"168 -189 CURVE SMOOTH",
"142 -189 OFFCURVE",
"123 -170 OFFCURVE",
"123 -146 CURVE SMOOTH",
"123 -119 OFFCURVE",
"144 -100 OFFCURVE",
"176 -100 CURVE SMOOTH",
"240 -100 OFFCURVE",
"297 -152 OFFCURVE",
"323 -235 CURVE",
"363 -235 LINE",
"391 -151 LINE",
"395 -151 LINE",
"456 -235 LINE",
"543 -235 LINE",
"543 358 LINE SMOOTH",
"543 497 OFFCURVE",
"467 566 OFFCURVE",
"312 566 CURVE SMOOTH",
"164 566 OFFCURVE",
"70 492 OFFCURVE",
"70 374 CURVE SMOOTH",
"70 361 LINE",
"206 321 LINE",
"206 317 LINE",
"153 302 OFFCURVE",
"136 277 OFFCURVE",
"136 215 CURVE SMOOTH",
"136 201 LINE SMOOTH",
"136 189 OFFCURVE",
"138 174 OFFCURVE",
"143 155 CURVE",
"170 151 OFFCURVE",
"189 134 OFFCURVE",
"190 113 CURVE",
"200 113 LINE",
"200 159 OFFCURVE",
"167 190 OFFCURVE",
"118 190 CURVE SMOOTH",
"62 190 OFFCURVE",
"22 151 OFFCURVE",
"22 95 CURVE SMOOTH",
"22 37 OFFCURVE",
"61 0 OFFCURVE",
"121 0 CURVE SMOOTH",
"189 0 OFFCURVE",
"226 39 OFFCURVE",
"226 108 CURVE SMOOTH",
"226 213 LINE SMOOTH",
"226 264 OFFCURVE",
"240 284 OFFCURVE",
"287 296 CURVE",
"293 350 LINE",
"120 411 LINE",
"156 360 LINE",
"156 374 LINE SMOOTH",
"156 451 OFFCURVE",
"214 498 OFFCURVE",
"310 498 CURVE SMOOTH",
"404 498 OFFCURVE",
"453 451 OFFCURVE",
"453 358 CURVE SMOOTH",
"453 1 LINE SMOOTH",
"453 -89 OFFCURVE",
"455 -122 OFFCURVE",
"464 -165 CURVE",
"460 -165 LINE",
"403 -78 LINE",
"366 -78 LINE",
"339 -151 LINE",
"335 -151 LINE",
"303 -88 OFFCURVE",
"241 -47 OFFCURVE",
"176 -47 CURVE SMOOTH",
"110 -47 OFFCURVE",
"66 -86 OFFCURVE",
"66 -145 CURVE SMOOTH",
"66 -202 OFFCURVE",
"109 -242 OFFCURVE",
"170 -242 CURVE SMOOTH"
);
},
{
closed = 1;
nodes = (
"94 51 OFFCURVE",
"78 67 OFFCURVE",
"78 94 CURVE SMOOTH",
"78 121 OFFCURVE",
"94 137 OFFCURVE",
"122 137 CURVE SMOOTH",
"150 137 OFFCURVE",
"166 121 OFFCURVE",
"166 94 CURVE SMOOTH",
"166 67 OFFCURVE",
"150 51 OFFCURVE",
"122 51 CURVE SMOOTH"
);
},
{
closed = 1;
nodes = (
"307 -74 OFFCURVE",
"312 -39 OFFCURVE",
"313 0 CURVE",
"255 0 LINE",
"255 -36 OFFCURVE",
"252 -62 OFFCURVE",
"245 -89 CURVE",
"296 -113 LINE"
);
}
);
width = 629;
},
{
anchors = (
{
name = bottom;
position = "{323, -232}";
},
{
name = top;
position = "{317, 550}";
}
);
layerId = "54E3FB14-E6D2-4DF3-BA4A-5621168F9335";
paths = (
{
closed = 1;
nodes = (
"150 -237 OFFCURVE",
"177 -196 OFFCURVE",
"187 -125 CURVE",
"171 -111 LINE",
"161 -181 OFFCURVE",
"142 -215 OFFCURVE",
"113 -215 CURVE SMOOTH",
"91 -215 OFFCURVE",
"76 -189 OFFCURVE",
"76 -152 CURVE SMOOTH",
"76 -113 OFFCURVE",
"93 -85 OFFCURVE",
"118 -85 CURVE SMOOTH",
"159 -85 OFFCURVE",
"195 -143 OFFCURVE",
"209 -232 CURVE",
"231 -232 LINE",
"253 -124 LINE",
"255 -124 LINE",
"297 -232 LINE",
"323 -232 LINE",
"323 391 LINE SMOOTH",
"323 497 OFFCURVE",
"274 558 OFFCURVE",
"189 558 CURVE SMOOTH",
"100 558 OFFCURVE",
"50 495 OFFCURVE",
"50 384 CURVE SMOOTH",
"50 373 LINE",
"138 335 LINE",
"138 332 LINE",
"107 315 OFFCURVE",
"95 280 OFFCURVE",
"95 206 CURVE SMOOTH",
"95 159 LINE SMOOTH",
"95 142 OFFCURVE",
"96 128 OFFCURVE",
"99 118 CURVE",
"104 110 OFFCURVE",
"106 103 OFFCURVE",
"106 96 CURVE",
"109 96 LINE",
"107 134 OFFCURVE",
"91 156 OFFCURVE",
"65 156 CURVE SMOOTH",
"32 156 OFFCURVE",
"13 128 OFFCURVE",
"13 78 CURVE SMOOTH",
"13 28 OFFCURVE",
"32 0 OFFCURVE",
"66 0 CURVE SMOOTH",
"100 0 OFFCURVE",
"120 30 OFFCURVE",
"120 82 CURVE SMOOTH",
"120 206 LINE SMOOTH",
"120 283 OFFCURVE",
"129 307 OFFCURVE",
"165 323 CURVE",
"168 344 LINE",
"64 392 LINE",
"75 377 LINE",
"75 384 LINE SMOOTH",
"75 481 OFFCURVE",
"116 535 OFFCURVE",
"189 535 CURVE SMOOTH",
"260 535 OFFCURVE",
"298 483 OFFCURVE",
"298 387 CURVE SMOOTH",
"298 -62 LINE SMOOTH",
"298 -123 OFFCURVE",
"299 -159 OFFCURVE",
"301 -190 CURVE",
"299 -190 LINE",
"262 -97 LINE",
"243 -97 LINE",
"221 -197 LINE",
"219 -197 LINE",
"204 -119 OFFCURVE",
"162 -63 OFFCURVE",
"118 -63 CURVE SMOOTH",
"79 -63 OFFCURVE",
"53 -99 OFFCURVE",
"53 -152 CURVE SMOOTH",
"53 -201 OFFCURVE",
"79 -237 OFFCURVE",
"114 -237 CURVE SMOOTH"
);
},
{
closed = 1;
nodes = (
"47 22 OFFCURVE",
"36 42 OFFCURVE",
"36 78 CURVE SMOOTH",
"36 114 OFFCURVE",
"47 134 OFFCURVE",
"66 134 CURVE SMOOTH",
"85 134 OFFCURVE",
"96 114 OFFCURVE",
"96 78 CURVE SMOOTH",
"96 42 OFFCURVE",
"85 22 OFFCURVE",
"66 22 CURVE SMOOTH"
);
},
{
closed = 1;
nodes = (
"196 -76 OFFCURVE",
"199 -42 OFFCURVE",
"199 0 CURVE",
"178 0 LINE",
"179 -40 OFFCURVE",
"177 -72 OFFCURVE",
"172 -104 CURVE",
"189 -121 LINE"
);
}
);
width = 383;
},
{
anchors = (
{
name = bottom;
position = "{465, -240}";
},
{
name = top;
position = "{459, 563}";
}
);
layerId = "E703E12A-5DA7-48FA-B69F-BB282FBD8E56";
paths = (
{
closed = 1;
nodes = (
"161 -250 OFFCURVE",
"197 -206 OFFCURVE",
"208 -128 CURVE",
"144 -91 LINE",
"135 -147 OFFCURVE",
"124 -169 OFFCURVE",
"104 -169 CURVE SMOOTH",
"89 -169 OFFCURVE",
"79 -156 OFFCURVE",
"79 -137 CURVE SMOOTH",
"79 -114 OFFCURVE",
"92 -100 OFFCURVE",
"113 -100 CURVE SMOOTH",
"155 -100 OFFCURVE",
"204 -161 OFFCURVE",
"227 -240 CURVE",
"263 -240 LINE",
"280 -180 LINE",
"283 -180 LINE",
"323 -240 LINE",
"465 -240 LINE",
"465 334 LINE SMOOTH",
"465 503 OFFCURVE",
"398 578 OFFCURVE",
"247 578 CURVE SMOOTH",
"117 578 OFFCURVE",
"34 493 OFFCURVE",
"34 360 CURVE SMOOTH",
"34 344 LINE",
"129 310 LINE",
"129 306 LINE",
"101 292 OFFCURVE",
"86 272 OFFCURVE",
"86 248 CURVE SMOOTH",
"86 245 LINE SMOOTH",
"86 236 OFFCURVE",
"89 221 OFFCURVE",
"94 202 CURVE",
"122 210 OFFCURVE",
"154 189 OFFCURVE",
"165 154 CURVE",
"179 154 LINE",
"176 199 OFFCURVE",
"143 231 OFFCURVE",
"99 231 CURVE SMOOTH",
"48 231 OFFCURVE",
"12 187 OFFCURVE",
"12 124 CURVE SMOOTH",
"12 56 OFFCURVE",
"53 12 OFFCURVE",
"116 12 CURVE SMOOTH",
"185 12 OFFCURVE",
"229 66 OFFCURVE",
"229 149 CURVE SMOOTH",
"229 223 LINE SMOOTH",
"229 250 OFFCURVE",
"237 262 OFFCURVE",
"257 266 CURVE",
"265 344 LINE",
"121 415 LINE",
"182 334 LINE",
"182 360 LINE SMOOTH",
"182 410 OFFCURVE",
"204 438 OFFCURVE",
"244 438 CURVE SMOOTH",
"288 438 OFFCURVE",
"309 404 OFFCURVE",
"309 331 CURVE SMOOTH",
"309 18 LINE SMOOTH",
"309 -54 OFFCURVE",
"311 -87 OFFCURVE",
"318 -125 CURVE",
"315 -125 LINE",
"285 -76 LINE",
"245 -76 LINE",
"234 -125 LINE",
"231 -125 LINE",
"201 -56 OFFCURVE",
"163 -25 OFFCURVE",
"111 -25 CURVE SMOOTH",
"51 -25 OFFCURVE",
"14 -67 OFFCURVE",
"14 -136 CURVE SMOOTH",
"14 -202 OFFCURVE",
"53 -250 OFFCURVE",
"108 -250 CURVE SMOOTH"
);
},
{
closed = 1;
nodes = (
"89 85 OFFCURVE",
"77 100 OFFCURVE",
"77 124 CURVE SMOOTH",
"77 148 OFFCURVE",
"89 163 OFFCURVE",
"108 163 CURVE SMOOTH",
"127 163 OFFCURVE",
"139 148 OFFCURVE",
"139 124 CURVE SMOOTH",
"139 100 OFFCURVE",
"127 85 OFFCURVE",
"108 85 CURVE SMOOTH"
);
},
{
closed = 1;
nodes = (
"225 -62 OFFCURVE",
"229 -31 OFFCURVE",
"231 0 CURVE",
"153 0 LINE",
"152 -14 OFFCURVE",
"149 -40 OFFCURVE",
"144 -67 CURVE",
"216 -106 LINE"
);
}
);
userData = {
com.schriftgestaltung.Glyphs.glyph.leftMetricsKey = "phoSamphao-thai";
com.schriftgestaltung.Glyphs.glyph.rightMetricsKey = "khoKhwai-thai";
};
width = 511;
},
{
anchors = (
{
name = bottom;
position = "{382, -235}";
},
{
name = top;
position = "{376, 555}";
}
);
layerId = "94F80E8F-7C96-497F-B870-569C37B7A2A5";
paths = (
{
closed = 1;
nodes = (
"157 -242 OFFCURVE",
"187 -201 OFFCURVE",
"198 -126 CURVE",
"163 -103 LINE",
"154 -167 OFFCURVE",
"138 -197 OFFCURVE",
"112 -197 CURVE SMOOTH",
"93 -197 OFFCURVE",
"80 -176 OFFCURVE",
"80 -146 CURVE SMOOTH",
"80 -113 OFFCURVE",
"96 -91 OFFCURVE",
"119 -91 CURVE SMOOTH",
"160 -91 OFFCURVE",
"199 -151 OFFCURVE",
"213 -235 CURVE",
"246 -235 LINE",
"266 -156 LINE",
"269 -156 LINE",
"310 -235 LINE",
"382 -235 LINE",
"382 369 LINE SMOOTH",
"382 500 OFFCURVE",
"326 566 OFFCURVE",
"215 566 CURVE SMOOTH",
"110 566 OFFCURVE",
"47 495 OFFCURVE",
"47 375 CURVE SMOOTH",
"47 362 LINE",
"137 325 LINE",
"137 322 LINE",
"105 305 OFFCURVE",
"94 279 OFFCURVE",
"94 223 CURVE SMOOTH",
"94 204 LINE SMOOTH",
"94 191 OFFCURVE",
"96 174 OFFCURVE",
"99 168 CURVE",
"113 168 OFFCURVE",
"126 149 OFFCURVE",
"132 119 CURVE",
"139 119 LINE",
"137 159 OFFCURVE",
"114 186 OFFCURVE",
"81 186 CURVE SMOOTH",
"41 186 OFFCURVE",
"15 150 OFFCURVE",
"15 96 CURVE SMOOTH",
"15 39 OFFCURVE",
"43 5 OFFCURVE",
"89 5 CURVE SMOOTH",
"139 5 OFFCURVE",
"171 45 OFFCURVE",
"171 108 CURVE SMOOTH",
"171 215 LINE SMOOTH",
"171 276 OFFCURVE",
"176 290 OFFCURVE",
"204 301 CURVE",
"209 344 LINE",
"89 401 LINE",
"120 360 LINE",
"120 374 LINE SMOOTH",
"120 453 OFFCURVE",
"154 499 OFFCURVE",
"213 499 CURVE SMOOTH",
"273 499 OFFCURVE",
"305 452 OFFCURVE",
"305 364 CURVE SMOOTH",
"305 -30 LINE SMOOTH",
"305 -96 OFFCURVE",
"306 -126 OFFCURVE",
"311 -156 CURVE",
"308 -156 LINE",
"274 -89 LINE",
"247 -89 LINE",
"230 -161 LINE",
"228 -161 LINE",
"206 -89 OFFCURVE",
"166 -48 OFFCURVE",
"118 -48 CURVE SMOOTH",
"71 -48 OFFCURVE",
"40 -86 OFFCURVE",
"40 -146 CURVE SMOOTH",
"40 -201 OFFCURVE",
"72 -242 OFFCURVE",
"114 -242 CURVE SMOOTH"
);
},
{
closed = 1;
nodes = (
"70 46 OFFCURVE",
"60 64 OFFCURVE",
"60 96 CURVE SMOOTH",
"60 128 OFFCURVE",
"70 146 OFFCURVE",
"88 146 CURVE SMOOTH",
"106 146 OFFCURVE",
"116 128 OFFCURVE",
"116 96 CURVE SMOOTH",
"116 64 OFFCURVE",
"106 46 OFFCURVE",
"88 46 CURVE SMOOTH"
);
},
{
closed = 1;
nodes = (
"211 -66 OFFCURVE",
"214 -34 OFFCURVE",
"214 0 CURVE",
"171 0 LINE",
"171 -30 OFFCURVE",
"168 -62 OFFCURVE",
"164 -89 CURVE",
"202 -115 LINE"
);
}
);
width = 438;
}
);
leftKerningGroup = "phoSamphao-thai";
leftMetricsKey = "phoSamphao-thai";
rightKerningGroup = "koKai-thai";
rightMetricsKey = "koKai-thai";
unicode = 0E0F;
},
